<svg width="25" height="21" viewBox="0 0 25 21" fill="none" xmlns="http://www.w3.org/2000/svg">
<path d="M2.96155 0.573532C2.91609 0.506574 2.86332 0.44493 2.8042 0.389761C2.74618 0.329483 2.68191 0.275599 2.61251 0.228984C2.46865 0.135674 2.30998 0.0676783 2.14333 0.0279683C1.93834 -0.0105944 1.72708 0.00142745 1.52774 0.0629489C1.3284 0.12447 1.14693 0.233679 0.998954 0.381174C0.931874 0.440906 0.873164 0.509474 0.824433 0.585028C0.776153 0.660941 0.734056 0.740628 0.698551 0.823338C0.673815 0.896878 0.652807 0.971637 0.635611 1.04731C0.618707 1.1295 0.610081 1.21319 0.609863 1.29712C0.611691 1.47008 0.644643 1.64128 0.707134 1.80248C0.777246 1.95373 0.874188 2.09092 0.993227 2.20735C1.10845 2.33551 1.25269 2.43399 1.41378 2.49448C1.56983 2.56304 1.73839 2.59824 1.90873 2.59785C2.07881 2.59861 2.2473 2.56494 2.40412 2.49883C2.56093 2.43272 2.70284 2.33553 2.82136 2.2131C2.9408 2.09154 3.03769 1.94955 3.10746 1.79385C3.16983 1.63572 3.20186 1.46719 3.20186 1.29712C3.20165 1.21319 3.19302 1.1295 3.17612 1.04731C3.16171 0.966816 3.13669 0.888621 3.10173 0.81475C3.06569 0.728557 3.01856 0.647445 2.96155 0.573532Z" fill="#121212"/>
<rect x="5.40967" y="0.00585938" width="19.2" height="2.5881" rx="1.29405" fill="#121212"/>
<path d="M2.96155 9.21318C2.91609 9.14622 2.86332 9.08458 2.8042 9.02941C2.74618 8.96913 2.68191 8.91525 2.61251 8.86863C2.46865 8.77532 2.30998 8.70733 2.14333 8.66762C1.93834 8.62905 1.72708 8.64108 1.52774 8.7026C1.3284 8.76412 1.14693 8.87333 0.998954 9.02082C0.931874 9.08055 0.873164 9.14912 0.824433 9.22468C0.776153 9.30059 0.734056 9.38028 0.698551 9.46299C0.673815 9.53653 0.652807 9.61129 0.635611 9.68696C0.618707 9.76915 0.610081 9.85284 0.609863 9.93677C0.611691 10.1097 0.644643 10.2809 0.707134 10.4421C0.777246 10.5934 0.874188 10.7306 0.993227 10.847C1.10845 10.9752 1.25269 11.0736 1.41378 11.1341C1.56983 11.2027 1.73839 11.2379 1.90873 11.2375C2.07881 11.2383 2.2473 11.2046 2.40412 11.1385C2.56093 11.0724 2.70284 10.9752 2.82136 10.8527C2.9408 10.7312 3.03769 10.5892 3.10746 10.4335C3.16983 10.2754 3.20186 10.1068 3.20186 9.93677C3.20165 9.85284 3.19302 9.76915 3.17612 9.68696C3.16171 9.60646 3.13669 9.52827 3.10173 9.4544C3.06569 9.36821 3.01856 9.28709 2.96155 9.21318Z" fill="#121212"/>
<rect x="5.40967" y="8.64551" width="19.2" height="2.5881" rx="1.29405" fill="#121212"/>
<rect x="5.40967" y="18.2461" width="19.2" height="2.5881" rx="1.29405" fill="#121212"/>
<path d="M2.96155 18.8138C2.91609 18.7468 2.86332 18.6852 2.8042 18.63C2.74618 18.5697 2.68191 18.5158 2.61251 18.4692C2.46865 18.3759 2.30998 18.3079 2.14333 18.2682C1.93834 18.2296 1.72708 18.2417 1.52774 18.3032C1.3284 18.3647 1.14693 18.4739 0.998954 18.6214C0.931874 18.6811 0.873164 18.7497 0.824433 18.8253C0.776153 18.9012 0.734056 18.9809 0.698551 19.0636C0.673815 19.1371 0.652807 19.2119 0.635611 19.2875C0.618707 19.3697 0.610081 19.4534 0.609863 19.5374C0.611691 19.7103 0.644643 19.8815 0.707134 20.0427C0.777246 20.194 0.874188 20.3312 0.993227 20.4476C1.10845 20.5757 1.25269 20.6742 1.41378 20.7347C1.56983 20.8033 1.73839 20.8385 1.90873 20.8381C2.07881 20.8388 2.2473 20.8052 2.40412 20.7391C2.56093 20.673 2.70284 20.5758 2.82136 20.4533C2.9408 20.3318 3.03769 20.1898 3.10746 20.0341C3.16983 19.876 3.20186 19.7074 3.20186 19.5374C3.20165 19.4534 3.19302 19.3697 3.17612 19.2875C3.16171 19.2071 3.13669 19.1289 3.10173 19.055C3.06569 18.9688 3.01856 18.8877 2.96155 18.8138Z" fill="#121212"/>
</svg>
