<svg width="36" height="36" viewBox="0 0 36 36" fill="none" xmlns="http://www.w3.org/2000/svg">
<rect opacity="0.01" x="3" y="3.00244" width="30" height="29.9951" fill="#0669FD"/>
<path fill-rule="evenodd" clip-rule="evenodd" d="M30.2501 18.0998C29.9407 17.3092 29.4007 16.6298 28.7001 16.1501V16.1001C28.7001 15.7752 28.6751 15.4502 28.6501 15.1378C28.577 14.4995 28.4516 13.8683 28.2751 13.2506C28.2626 13.2006 28.247 13.1537 28.2313 13.1069C28.2157 13.06 28.2001 13.0131 28.1876 12.9631C27.0664 9.41001 24.173 6.69875 20.5542 5.81015C16.9353 4.92154 13.115 5.98425 10.4751 8.61385C10.3501 8.73883 10.2376 8.85131 10.1251 8.97629L10.0944 9.01039L10.0944 9.01041C9.99014 9.12608 9.87744 9.25115 9.77509 9.37622C9.45125 9.76783 9.15472 10.1812 8.88759 10.6135C8.88069 10.6135 8.87509 10.6191 8.87509 10.626C8.62509 11.0634 8.38759 11.5134 8.17509 11.9883L8.16259 12.0008C8.0376 12.3132 7.9251 12.6382 7.8126 12.9631L7.81259 12.9631C7.78759 13.0444 7.76259 13.1287 7.7376 13.2131C7.71259 13.2975 7.68759 13.3818 7.66259 13.4631C7.60921 13.6308 7.56744 13.802 7.53759 13.9755C7.38865 14.6826 7.30911 15.4026 7.30009 16.1251C7.29319 16.1251 7.28759 16.1307 7.28759 16.1376C6.44148 16.7144 5.83656 17.5816 5.58759 18.5747C5.44768 19.1434 5.42641 19.7347 5.52509 20.3119L5.93759 22.6491C5.97433 22.848 6.02444 23.0443 6.08759 23.2365C6.08759 23.2427 6.09072 23.249 6.09384 23.2552C6.09697 23.2615 6.10009 23.2677 6.10009 23.274C6.56901 24.6705 7.74473 25.7128 9.18759 26.011C9.4748 26.0758 9.76817 26.1093 10.0626 26.111C10.3055 26.1083 10.5478 26.0874 10.7876 26.0485C11.7057 25.8897 12.376 25.0929 12.3751 24.1613C12.3792 24.0483 12.3708 23.9351 12.3501 23.8239L11.1626 17.0125C10.9941 16.095 10.1955 15.4279 9.26259 15.4252H9.20009C9.22509 15.1503 9.26259 14.8878 9.31259 14.6254C9.33816 14.4604 9.37576 14.2975 9.42509 14.1379C10.4095 10.1008 14.077 7.29696 18.2316 7.40533C22.3863 7.51369 25.9026 10.5049 26.6751 14.5879C26.736 14.8764 26.7777 15.1687 26.8001 15.4627H26.7626C25.835 15.4613 25.0398 16.1248 24.8751 17.0375L23.6876 23.7989C23.5063 24.84 24.198 25.8328 25.2376 26.0235C25.4774 26.0624 25.7197 26.0833 25.9626 26.086C26.2529 26.0843 26.5421 26.0508 26.8251 25.986C26.8251 25.9923 26.822 25.9954 26.8188 25.9985C26.8157 26.0016 26.8126 26.0048 26.8126 26.011C26.2518 27.5734 24.7728 28.6176 23.1126 28.6231H20.5001V30.4978H23.1126C26.2556 30.4872 28.8255 27.9896 28.9251 24.8487V24.8237C29.3616 24.3863 29.6947 23.8568 29.9001 23.274C29.9097 23.264 29.9142 23.2502 29.9126 23.2365C29.9757 23.0443 30.0259 22.848 30.0626 22.6491L30.4751 20.2994C30.6103 19.5597 30.5322 18.7968 30.2501 18.0998ZM7.8875 22.7252L7.86751 22.6526C7.83703 22.5427 7.80805 22.4382 7.7875 22.3252L7.375 19.9881C7.30063 19.5906 7.33518 19.1803 7.475 18.8008C7.75087 18.0282 8.4179 17.4613 9.225 17.3135L9.2375 17.301H9.2625C9.28637 17.2987 9.30808 17.315 9.3125 17.3385L10.5 24.1374C10.5063 24.1507 10.5056 24.1662 10.498 24.1787C10.4905 24.1913 10.4771 24.1992 10.4625 24.1999C10.3305 24.2242 10.1967 24.2368 10.0625 24.2374C9.78875 24.2384 9.51729 24.1875 9.2625 24.0874C9.25576 24.0806 9.24698 24.0763 9.2375 24.0749C8.99702 23.9828 8.77323 23.8519 8.575 23.6875C8.26905 23.4292 8.03269 23.0983 7.8875 22.7252ZM28.625 19.9879V19.9754C28.6936 19.5776 28.6592 19.1688 28.525 18.7881C28.334 18.2985 27.9869 17.8856 27.5375 17.6133C27.3014 17.4776 27.0433 17.3846 26.775 17.3383V17.3133L26.7625 17.3008V17.3383C26.7625 17.3383 26.725 17.3383 26.725 17.3633L25.5375 24.1247C25.6706 24.186 25.816 24.2159 25.9625 24.2122C26.2308 24.2112 26.4971 24.1647 26.75 24.0747C27.1156 23.934 27.4415 23.7067 27.7 23.4123C27.9601 23.0975 28.1403 22.7245 28.225 22.325L28.625 19.9879Z" fill="#0669FD"/>
</svg>
