<svg width="148" height="46" viewBox="0 0 148 46" fill="none" xmlns="http://www.w3.org/2000/svg">
<g clip-path="url(#clip0_14433:26585)">
<path d="M19.6076 8.28175C19.5871 8.27382 19.5644 8.27382 19.544 8.28175C19.2939 8.41878 19.0266 8.52232 18.7492 8.58964C17.714 8.87604 16.6446 9.0221 15.57 9.02386C15.5743 7.95664 15.7213 6.89473 16.0071 5.86596C16.0743 5.59016 16.1785 5.32462 16.3171 5.07649C16.3215 5.05036 16.3215 5.02367 16.3171 4.99754C16.3118 4.78087 16.2487 4.56949 16.1342 4.385C16.0197 4.20052 15.8579 4.04955 15.6654 3.94754C15.49 3.87062 15.3007 3.83031 15.109 3.82912C14.945 3.82828 14.7825 3.85997 14.631 3.92233C14.4795 3.98469 14.3421 4.07647 14.2268 4.19228C14.1129 4.30229 14.022 4.43353 13.9593 4.57848C13.8965 4.72343 13.8632 4.87925 13.8612 5.03701C13.8554 5.0494 13.8525 5.06286 13.8525 5.07649C13.8525 5.09011 13.8554 5.10357 13.8612 5.11596C13.9927 5.36731 14.0966 5.63199 14.1711 5.90543C14.4576 6.93407 14.6046 7.99607 14.6083 9.06333C13.5341 9.05538 12.4655 8.90943 11.4291 8.62912C11.1545 8.55286 10.8883 8.44972 10.6343 8.32122H10.5945C10.2636 8.32122 9.94618 8.45181 9.71216 8.68426C9.47815 8.9167 9.34668 9.23197 9.34668 9.5607C9.34668 9.88943 9.47815 10.2047 9.71216 10.4371C9.94618 10.6696 10.2636 10.8002 10.5945 10.8002V10.8002C10.8464 10.6669 11.1131 10.5635 11.3893 10.4923C12.4242 10.2044 13.4938 10.0584 14.5685 10.0581C14.552 11.1199 14.3559 12.1714 13.9883 13.1686C13.8929 13.3975 13.6148 13.9581 13.1935 14.0607C13.1773 14.067 13.1626 14.0766 13.1503 14.0889C13.138 14.1011 13.1284 14.1157 13.122 14.1318C13.114 14.1521 13.114 14.1746 13.122 14.1949L14.9818 26.6923C14.987 26.716 15 26.7374 15.0187 26.7531C15.0373 26.7688 15.0607 26.7779 15.0851 26.7791C15.11 26.7794 15.1341 26.7708 15.1531 26.7548C15.1721 26.7389 15.1846 26.7167 15.1885 26.6923L17.0642 14.1318V14.0844C17.0593 14.0666 17.0503 14.0502 17.0378 14.0365C17.0254 14.0228 17.01 14.0122 16.9927 14.0054C16.5555 13.8791 16.2773 13.3344 16.1979 13.1054V13.0581C15.8522 12.0749 15.6644 11.0439 15.6415 10.0028C16.7161 10.0046 17.7855 10.1506 18.8207 10.437C19.0981 10.5047 19.3653 10.6082 19.6155 10.7449H19.6791C20.01 10.7449 20.3274 10.6143 20.5615 10.3819C20.7955 10.1494 20.9269 9.83416 20.9269 9.50543C20.9269 9.17671 20.7955 8.86144 20.5615 8.62899C20.3274 8.39655 20.01 8.26596 19.6791 8.26596L19.6076 8.28175Z" fill="white"/>
<path d="M0 0V30H108.387V0H0ZM1.70088 28.3421V1.68158H15.1012C16.8911 1.63831 18.6716 1.95111 20.3379 2.60157C22.0042 3.25203 23.5227 4.22701 24.804 5.46912C26.0853 6.71123 27.1035 8.19538 27.7987 9.83421C28.4939 11.4731 28.8521 13.2335 28.8521 15.0118C28.8521 16.7902 28.4939 18.5506 27.7987 20.1895C27.1035 21.8283 26.0853 23.3125 24.804 24.5546C23.5227 25.7967 22.0042 26.7717 20.3379 27.4221C18.6716 28.0726 16.8911 28.3854 15.1012 28.3421H1.70088ZM106.615 28.3421H20.8397C23.3918 27.3081 25.6197 25.6162 27.2934 23.4411C28.9671 21.266 30.0259 18.6865 30.3605 15.969C30.6951 13.2516 30.2933 10.4947 29.1967 7.98298C28.1 5.47132 26.3482 3.29597 24.1222 1.68158H106.615V28.3421Z" fill="white"/>
<path d="M49.1582 22.1051C48.6177 22.3025 48.0534 22.492 47.4573 22.6657C46.8612 22.8393 46.3764 22.9341 45.7246 23.0525C45.077 23.17 44.4198 23.2282 43.7615 23.2262C42.7288 23.235 41.7047 23.039 40.7492 22.6499C39.8242 22.2793 38.9896 21.7168 38.3012 20.9999C37.6027 20.2417 37.0624 19.3535 36.7116 18.3867C36.3008 17.2884 36.0987 16.124 36.1155 14.9525C36.0998 13.7778 36.3242 12.6122 36.7752 11.5262C37.1937 10.5436 37.8074 9.65486 38.5794 8.91302C39.3367 8.19224 40.231 7.62863 41.2101 7.25513C42.2256 6.87178 43.3031 6.67645 44.3894 6.67881C44.9849 6.67432 45.58 6.7139 46.1697 6.79723C46.7022 6.87618 47.1553 6.95513 47.5368 7.03407C47.9434 7.11959 48.3442 7.23034 48.7369 7.36565L47.9421 9.57618L47.0917 9.41039C46.8214 9.36302 46.5115 9.31565 46.1538 9.27618C45.7657 9.23616 45.3756 9.21771 44.9855 9.22092C44.2136 9.21362 43.4474 9.35297 42.7282 9.63144C42.0464 9.89665 41.4229 10.2908 40.8922 10.792C40.3587 11.3145 39.9393 11.9407 39.6603 12.6314C39.3609 13.3852 39.2124 14.1897 39.2231 14.9999C39.2131 15.7768 39.3423 16.5494 39.6047 17.2814C39.8364 17.9366 40.1956 18.5402 40.6617 19.0578C41.1044 19.5504 41.6458 19.9457 42.2513 20.2183C42.8953 20.5076 43.5952 20.6531 44.3019 20.6446C44.604 20.6446 44.8742 20.6446 45.0967 20.6446C45.3072 20.6328 45.5168 20.609 45.7246 20.5735L46.273 20.4788V16.713H43.4753V14.3446H49.1582V22.1051Z" fill="white"/>
<path d="M58.124 22.9341L57.9094 21.5683H57.8617L57.4008 22.0025C57.1787 22.2011 56.9423 22.3832 56.6934 22.5473C56.3899 22.7352 56.0676 22.8913 55.7317 23.0131C55.3443 23.1507 54.935 23.2176 54.5236 23.2104C53.6855 23.2036 52.8826 22.8755 52.2822 22.2946C51.9437 21.9843 51.6731 21.6081 51.4874 21.1894C51.2957 20.7294 51.2036 20.2344 51.2172 19.7367C51.1768 18.9939 51.421 18.2634 51.9007 17.692C52.3672 17.1842 52.947 16.7922 53.5937 16.5473C54.289 16.2858 55.0158 16.1159 55.7555 16.042C56.4631 15.9667 57.174 15.9271 57.8856 15.9236V15.7104C57.9303 15.1099 57.7768 14.5113 57.4484 14.0052C57.2483 13.7915 56.9995 13.6284 56.723 13.5295C56.4465 13.4306 56.1502 13.3988 55.8588 13.4367C55.4816 13.4347 55.1054 13.4771 54.7382 13.5631C54.3646 13.6499 54.0308 13.7446 53.7288 13.8315C53.4267 13.9183 53.0452 14.0683 52.7114 14.2104L52.0756 12.5288C52.9809 12.0975 53.9293 11.7614 54.9051 11.5262C55.4263 11.4062 55.9596 11.3453 56.4947 11.3446C57.0447 11.3081 57.5964 11.3838 58.1158 11.5671C58.6353 11.7504 59.1114 12.0374 59.5149 12.4104C59.8805 12.8169 60.1614 13.2913 60.3415 13.8062C60.5216 14.3211 60.5972 14.8663 60.5641 15.4104V22.9578L58.124 22.9341ZM57.8856 17.6446C57.4634 17.6469 57.0416 17.6706 56.6219 17.7157C56.1711 17.7586 55.7262 17.8485 55.2945 17.9841C54.9095 18.1029 54.5545 18.3021 54.2533 18.5683C54.115 18.7004 54.0066 18.8603 53.9354 19.0373C53.8641 19.2142 53.8316 19.4042 53.84 19.5946C53.8288 19.7994 53.8661 20.0039 53.9489 20.1918C54.0317 20.3796 54.1578 20.5456 54.3169 20.6762C54.6069 20.9226 54.9765 21.0571 55.3581 21.0552C55.6855 21.055 56.0096 20.9906 56.3119 20.8657C56.5901 20.7496 56.8563 20.6068 57.1067 20.4394C57.3975 20.2725 57.6648 20.0681 57.9015 19.8315L57.8856 17.6446Z" fill="white"/>
<path d="M63.4175 22.9342V5.62891H66.2629V22.9342H63.4175Z" fill="white"/>
<path d="M72.327 7.55502C72.3272 7.76526 72.2851 7.97341 72.2032 8.16728C72.1213 8.36114 72.0012 8.53681 71.8501 8.68397C71.7039 8.83888 71.5263 8.96121 71.329 9.04287C71.1317 9.12453 70.9192 9.16365 70.7056 9.15766C70.4931 9.16354 70.2818 9.12432 70.0858 9.04264C69.8898 8.96096 69.7136 8.83868 69.569 8.68397C69.284 8.37769 69.1326 7.97183 69.1478 7.55502C69.1413 7.34436 69.1773 7.13455 69.2538 6.93795C69.3302 6.74134 69.4455 6.56193 69.5929 6.41029C69.7384 6.25456 69.9159 6.13168 70.1133 6.04996C70.3108 5.96824 70.5236 5.92958 70.7374 5.9366C70.951 5.93061 71.1635 5.96973 71.3608 6.05139C71.5581 6.13304 71.7357 6.25537 71.8819 6.41029C72.0292 6.56193 72.1445 6.74134 72.221 6.93795C72.2974 7.13455 72.3335 7.34436 72.327 7.55502ZM69.2829 22.934V11.605H72.1283V22.934H69.2829Z" fill="white"/>
<path d="M83.7162 21.8288C83.2949 22.1004 82.8508 22.3355 82.3889 22.5314C81.9292 22.7225 81.4564 22.8808 80.9741 23.0051C80.4231 23.1422 79.8572 23.2112 79.2891 23.2104C78.6424 23.2159 78.0023 23.0812 77.4134 22.8156C76.8096 22.5579 76.2678 22.1758 75.8238 21.6946C75.3638 21.1934 75.0049 20.6091 74.7667 19.9735C74.5016 19.2502 74.3697 18.4854 74.3773 17.7156C74.3722 16.8809 74.5175 16.0521 74.8065 15.2682C75.0779 14.5263 75.4817 13.839 75.9987 13.2393C76.5252 12.6487 77.1693 12.1729 77.8903 11.8419C78.6359 11.4942 79.4511 11.3187 80.2747 11.3288C80.6639 11.3255 81.0526 11.3599 81.4351 11.4314C81.8007 11.5025 82.1266 11.5814 82.4286 11.6604C82.7306 11.7393 83.0803 11.8498 83.3983 11.9604L82.6591 13.8551L82.1822 13.7446L81.6735 13.6498C81.4606 13.6167 81.2453 13.6009 81.0297 13.6025C80.5321 13.5962 80.0389 13.6958 79.5832 13.8946C79.1519 14.0741 78.7644 14.3433 78.4466 14.684C78.1221 15.0504 77.8688 15.4733 77.6995 15.9314C77.5153 16.4375 77.4238 16.9722 77.4293 17.5104C77.3802 18.3885 77.6637 19.2531 78.2241 19.934C78.4981 20.2349 78.8349 20.4728 79.2111 20.631C79.5872 20.7892 79.9936 20.8638 80.4019 20.8498C80.7159 20.85 81.0294 20.8263 81.3397 20.7788C81.6074 20.7376 81.8728 20.6823 82.1345 20.613C82.4095 20.5599 82.6766 20.4724 82.9293 20.3525L83.7162 21.8288Z" fill="white"/>
<path d="M88.5652 7.555C88.5706 7.76808 88.5326 7.98006 88.4534 8.17816C88.3742 8.37625 88.2554 8.55636 88.1042 8.70763C87.9571 8.86135 87.7793 8.98289 87.5823 9.06445C87.3852 9.14602 87.1731 9.18582 86.9597 9.18132C86.7479 9.18298 86.5383 9.13943 86.3449 9.05362C86.1516 8.96781 85.9791 8.84174 85.839 8.68395C85.6893 8.53202 85.5719 8.35161 85.4941 8.15355C85.4163 7.95548 85.3795 7.74384 85.386 7.53131C85.3814 7.11275 85.5444 6.70953 85.839 6.41026C85.983 6.25473 86.1591 6.1319 86.3552 6.05015C86.5514 5.9684 86.763 5.92966 86.9756 5.93658C87.189 5.93207 87.4011 5.97187 87.5982 6.05344C87.7952 6.13501 87.973 6.25654 88.1201 6.41026C88.2674 6.56191 88.3827 6.74132 88.4592 6.93792C88.5356 7.13453 88.5717 7.34434 88.5652 7.555ZM85.537 22.9339V11.605H88.3744V22.9339H85.537Z" fill="white"/>
<path d="M97.4824 22.9341L97.2678 21.5683H97.2201L96.7591 22.0025C96.5371 22.2011 96.3007 22.3832 96.0517 22.5473C95.7483 22.7352 95.426 22.8913 95.09 23.0131C94.7026 23.1507 94.2933 23.2176 93.8819 23.2104C93.0439 23.2036 92.2409 22.8755 91.6406 22.2946C91.3021 21.9843 91.0315 21.6081 90.8458 21.1894C90.6649 20.7271 90.5836 20.2322 90.6073 19.7367C90.567 18.9939 90.8112 18.2634 91.2909 17.692C91.757 17.1746 92.3399 16.7742 92.9917 16.5236C93.6871 16.2621 94.4139 16.0922 95.1536 16.0183C95.8612 15.943 96.5721 15.9034 97.2837 15.8999V15.6867C97.3284 15.0862 97.1749 14.4876 96.8465 13.9815C96.6464 13.7678 96.3976 13.6047 96.1211 13.5058C95.8446 13.4069 95.5483 13.3751 95.2569 13.4131C94.8797 13.411 94.5035 13.4534 94.1363 13.5394C93.7627 13.6262 93.4289 13.721 93.1269 13.8078C92.8248 13.8946 92.4433 14.0446 92.1095 14.1867L91.4737 12.5052C92.379 12.0738 93.3274 11.7377 94.3032 11.5025C94.8244 11.3825 95.3577 11.3216 95.8928 11.321C96.4428 11.2844 96.9945 11.3601 97.5139 11.5434C98.0334 11.7267 98.5095 12.0137 98.913 12.3867C99.2786 12.7933 99.5595 13.2676 99.7396 13.7825C99.9197 14.2974 99.9953 14.8427 99.9622 15.3867V22.9341H97.4824ZM97.2439 17.6446C96.8218 17.6469 96.4 17.6706 95.9802 17.7157C95.5295 17.7586 95.0846 17.8485 94.6529 17.9841C94.2679 18.1029 93.9129 18.3021 93.6117 18.5683C93.4734 18.7004 93.365 18.8603 93.2937 19.0373C93.2225 19.2142 93.19 19.4042 93.1984 19.5946C93.1871 19.7994 93.2244 20.0039 93.3073 20.1918C93.3901 20.3797 93.5161 20.5456 93.6753 20.6762C93.9653 20.9226 94.3349 21.0571 94.7165 21.0552C95.0438 21.055 95.368 20.9906 95.6702 20.8657C95.9485 20.7496 96.2147 20.6068 96.465 20.4394C96.7419 20.2697 96.9957 20.0654 97.2201 19.8315L97.2439 17.6446Z" fill="white"/>
</g>
<defs>
<clipPath id="clip0_14433:26585">
<rect width="108.387" height="30" fill="white"/>
</clipPath>
</defs>
</svg>
