<svg width="25" height="25" viewBox="0 0 25 25" fill="none" xmlns="http://www.w3.org/2000/svg">
<path d="M14.3785 5.1806L12.7334 6.58423C12.4245 6.84778 12.3878 7.31185 12.6513 7.62074C12.9149 7.92964 13.3789 7.9664 13.6878 7.70285L15.3329 6.29922C16.4604 5.4154 18.0901 5.6085 18.9799 6.73134C19.9486 7.78675 19.8828 9.42652 18.8325 10.4008L15.6959 13.077C15.387 13.3405 15.3502 13.8046 15.6138 14.1135C15.8773 14.4224 16.3414 14.4592 16.6503 14.1956L19.7869 11.5194C21.4546 10.0178 21.5939 7.45022 20.0985 5.77692C18.6815 4.0367 16.124 3.77007 14.3785 5.1806Z" fill="#121212"/>
<path d="M6.30409 17.5483C5.33533 16.4929 5.4012 14.8531 6.4515 13.8788L9.5881 11.2026C9.897 10.9391 9.93376 10.475 9.67021 10.1661C9.40665 9.8572 8.94259 9.82044 8.63369 10.084L5.49709 12.7602C3.82936 14.2618 3.69003 16.8294 5.18547 18.5027C6.60247 20.2429 9.15995 20.5095 10.9054 19.099L12.5669 17.6814C12.8758 17.4178 12.9126 16.9538 12.649 16.6449C12.3855 16.336 11.9214 16.2992 11.6125 16.5628L9.95101 17.9804C8.82351 18.8642 7.19382 18.6711 6.30409 17.5483Z" fill="#121212"/>
<path d="M10.404 14.0476C10.1404 13.7387 10.1772 13.2746 10.4861 13.0111L13.8419 10.1479C14.1508 9.88431 14.6148 9.92107 14.8784 10.23C15.1419 10.5389 15.1052 11.0029 14.7963 11.2665L11.4405 14.1297C11.1316 14.3932 10.6675 14.3565 10.404 14.0476Z" fill="#121212"/>
</svg>
