<svg xmlns="http://www.w3.org/2000/svg" width="36" height="36" viewBox="0 0 36 36" fill="#ffffff">
	<path d="M15.5 11.875C15.036 11.8755 14.5912 12.0601 14.2631 12.3881C13.9351 12.7162 13.7505 13.161 13.75 13.625H15.25C15.25 13.35 15.75 13.35 15.75 13.625C15.75 13.6913 15.7237 13.7549 15.6768 13.8018C15.6299 13.8487 15.5663 13.875 15.5 13.875C15.3011 13.875 15.1103 13.954 14.9697 14.0947C14.829 14.2353 14.75 14.4261 14.75 14.625V15.75C14.75 16.1642 15.0858 16.5 15.5 16.5C15.9142 16.5 16.25 16.1642 16.25 15.75V15.206C16.6089 15.0357 16.8992 14.7483 17.0731 14.3911C17.247 14.0339 17.2942 13.6282 17.207 13.2406C17.1197 12.853 16.9032 12.5067 16.5929 12.2585C16.2827 12.0103 15.8973 11.8751 15.5 11.875Z" fill="#ffffff"/>
	<path d="M15.75 17H15.25C14.9739 17 14.75 17.2239 14.75 17.5C14.75 17.7761 14.9739 18 15.25 18H15.75C16.0261 18 16.25 17.7761 16.25 17.5C16.25 17.2239 16.0261 17 15.75 17Z" fill="#ffffff"/>
	<path d="M25.9999 11.75H24.4999V13.25H25.9999C26.1326 13.25 26.2597 13.3027 26.3535 13.3964C26.4473 13.4902 26.4999 13.6174 26.4999 13.75V21.25C26.4999 21.3826 26.4473 21.5098 26.3535 21.6036C26.2597 21.6973 26.1326 21.75 25.9999 21.75H22.8799L22.6799 21.95L20.4999 24.13L18.7499 22.38L17.6899 23.44L20.4999 26.25L23.4999 23.25H25.9999C26.5299 23.2484 27.0377 23.0372 27.4124 22.6625C27.7871 22.2877 27.9984 21.7799 27.9999 21.25V13.75C27.9984 13.2201 27.7871 12.7123 27.4124 12.3375C27.0377 11.9628 26.5299 11.7516 25.9999 11.75Z" fill="#ffffff"/>
	<path d="M21 20.5C21.5299 20.4984 22.0377 20.2872 22.4125 19.9125C22.7872 19.5377 22.9984 19.0299 23 18.5V11C22.9984 10.4701 22.7872 9.96227 22.4125 9.58753C22.0377 9.2128 21.5299 9.00158 21 9H10C9.47005 9.00158 8.96227 9.2128 8.58753 9.58753C8.2128 9.96227 8.00158 10.4701 8 11V18.5C8.00158 19.0299 8.2128 19.5377 8.58753 19.9125C8.96227 20.2872 9.47005 20.4984 10 20.5H12.5L15.5 23.5L18.5 20.5H21ZM15.5 21.38L13.12 19H10C9.86739 19 9.74021 18.9473 9.64645 18.8536C9.55268 18.7598 9.5 18.6326 9.5 18.5V11C9.5 10.8674 9.55268 10.7402 9.64645 10.6464C9.74021 10.5527 9.86739 10.5 10 10.5H21C21.1326 10.5 21.2598 10.5527 21.3536 10.6464C21.4473 10.7402 21.5 10.8674 21.5 11V18.5C21.5 18.6326 21.4473 18.7598 21.3536 18.8536C21.2598 18.9473 21.1326 19 21 19H17.88L15.5 21.38Z" fill="#ffffff"/>
</svg>