<svg width="250" height="107" viewBox="0 0 464 107" fill="none" xmlns="http://www.w3.org/2000/svg">
<path d="M329.465 14.1912C319.775 5.59395 306.624 1.0498 291.434 1.0498H259.941C257.19 1.09972 254.568 2.22692 252.64 4.18886C250.712 6.15079 249.632 8.79066 249.632 11.5404C249.632 14.2902 250.712 16.93 252.64 18.892C254.568 20.8539 257.19 21.9811 259.941 22.031H291.434C321.436 22.031 324.658 44.0393 324.658 53.5011C324.658 62.9629 321.418 84.9712 291.434 84.9712H270.438V43.0122C270.438 40.2304 269.332 37.5625 267.363 35.5955C265.395 33.6284 262.725 32.5233 259.941 32.5233C257.157 32.5233 254.488 33.6284 252.519 35.5955C250.551 37.5625 249.445 40.2304 249.445 43.0122V95.4635C249.445 96.8409 249.716 98.2049 250.244 99.4774C250.771 100.75 251.545 101.906 252.519 102.88C253.494 103.854 254.651 104.627 255.924 105.154C257.198 105.681 258.563 105.952 259.941 105.952H291.434C306.637 105.952 319.788 101.408 329.465 92.811C340.065 83.3942 345.671 69.7998 345.671 53.5011C345.671 37.2024 340.065 23.608 329.465 14.1912Z" fill="#008859"/>
<path d="M181.208 0.00124101C179.813 -0.024064 178.427 0.228575 177.131 0.744414C175.836 1.26025 174.656 2.02895 173.66 3.0056C172.665 3.98225 171.874 5.14728 171.335 6.43264C170.795 7.718 170.517 9.09794 170.517 10.4918C170.517 11.8857 170.795 13.2657 171.335 14.551C171.874 15.8364 172.665 17.0014 173.66 17.9781C174.656 18.9547 175.836 19.7234 177.131 20.2393C178.427 20.7551 179.813 21.0077 181.208 20.9824C188.734 20.9844 196.026 23.5936 201.842 28.3656C207.659 33.1376 211.64 39.7772 213.107 47.1532C214.574 54.5292 213.436 62.1853 209.888 68.8172C206.339 75.4491 200.6 80.6465 193.647 83.5239C186.694 86.4013 178.957 86.7808 171.756 84.5976C164.554 82.4145 158.333 77.8037 154.151 71.551C149.97 65.2982 148.088 57.7902 148.825 50.3061C149.562 42.822 152.873 35.8247 158.194 30.5065C160.163 28.5391 161.269 25.8708 161.269 23.0885C161.269 20.3062 160.163 17.6379 158.194 15.6706C156.225 13.7032 153.555 12.598 150.77 12.598C147.986 12.598 145.316 13.7032 143.347 15.6706C138.358 20.6258 134.401 26.5208 131.707 33.0144C129.013 39.5079 127.635 46.4709 127.653 53.5004C127.653 82.9992 151.67 107 181.194 107C210.718 107 234.732 82.9992 234.732 53.5004C234.732 24.0015 210.728 0.00124101 181.208 0.00124101Z" fill="#008859"/>
<path d="M410.462 0.00124101C409.067 -0.024064 407.682 0.228575 406.386 0.744414C405.09 1.26025 403.91 2.02895 402.915 3.0056C401.919 3.98225 401.129 5.14728 400.589 6.43264C400.049 7.718 399.771 9.09794 399.771 10.4918C399.771 11.8857 400.049 13.2657 400.589 14.551C401.129 15.8364 401.919 17.0014 402.915 17.9781C403.91 18.9547 405.09 19.7234 406.386 20.2393C407.682 20.7551 409.067 21.0077 410.462 20.9824C417.988 20.9844 425.28 23.5936 431.097 28.3656C436.913 33.1376 440.894 39.7772 442.361 47.1532C443.828 54.5292 442.69 62.1853 439.142 68.8172C435.594 75.4491 429.854 80.6465 422.901 83.5239C415.948 86.4013 408.212 86.7808 401.01 84.5976C393.808 82.4144 387.587 77.8037 383.406 71.551C379.224 65.2982 377.342 57.7902 378.079 50.3061C378.816 42.822 382.127 35.8247 387.448 30.5065C389.417 28.5396 390.523 25.8717 390.523 23.0897C390.524 20.3078 389.418 17.6397 387.45 15.6723C385.481 13.7049 382.812 12.5995 380.028 12.5992C377.244 12.5989 374.574 13.7037 372.605 15.6706C367.617 20.6268 363.663 26.5222 360.971 33.0157C358.279 39.5091 356.902 46.4717 356.921 53.5004C356.921 82.9992 380.938 107 410.462 107C439.986 107 464 82.9992 464 53.5004C464 24.0015 439.982 0.00124101 410.462 0.00124101Z" fill="#008859"/>
<path d="M10.8534 53.4995C9.47463 53.4982 8.10909 53.7685 6.83498 54.2952C5.56087 54.8218 4.4032 55.5943 3.42824 56.5686C2.45328 57.5428 1.68017 58.6997 1.15315 59.9729C0.626139 61.2461 0.355573 62.6106 0.356939 63.9884V96.1501C0.356939 98.932 1.46281 101.6 3.43128 103.567C5.39976 105.534 8.06959 106.639 10.8534 106.639C13.6373 106.639 16.3071 105.534 18.2756 103.567C20.2441 101.6 21.3499 98.932 21.3499 96.1501V63.9884C21.3499 61.2066 20.2441 58.5387 18.2756 56.5716C16.3071 54.6046 13.6373 53.4995 10.8534 53.4995Z" fill="#008859"/>
<path d="M103.992 1.54882C101.875 0.869335 99.5978 0.878596 97.487 1.57527C95.3762 2.27194 93.5411 3.62007 92.246 5.42552L55.6381 56.4693L19.0301 5.42552C18.227 4.30583 17.2112 3.35516 16.0404 2.62779C14.8697 1.90043 13.5671 1.41061 12.2069 1.1863C10.8467 0.961992 9.45568 1.00759 8.11316 1.32049C6.77063 1.63339 5.50291 2.20746 4.38241 3.00993C2.11944 4.6306 0.593439 7.08319 0.140099 9.82817C-0.0843722 11.1873 -0.0387404 12.5774 0.274387 13.919C0.587515 15.2605 1.16201 16.5273 1.96507 17.647L47.0831 80.556C48.0532 81.9186 49.3355 83.0296 50.8228 83.7962C52.3101 84.5628 53.9594 84.9628 55.6329 84.9628C57.3064 84.9628 58.9556 84.5628 60.4429 83.7962C61.9303 83.0296 63.2125 81.9186 64.1827 80.556L90.2769 44.1821V96.1528C90.2769 98.9346 91.3827 101.602 93.3512 103.57C95.3197 105.537 97.9895 106.642 100.773 106.642C103.557 106.642 106.227 105.537 108.196 103.57C110.164 101.602 111.27 98.9346 111.27 96.1528V11.5363C111.27 9.3162 110.566 7.15327 109.258 5.35861C107.95 3.56395 106.106 2.23006 103.992 1.54882Z" fill="#008859"/>
</svg>
