<svg width="28" height="25" viewBox="0 0 28 25" fill="none" xmlns="http://www.w3.org/2000/svg">
<path d="M4.10442 24.1055H23.6767C24.5997 24.1043 25.4848 23.7382 26.139 23.0871C26.7932 22.436 27.1634 21.5526 27.169 20.6296V8.38976C27.1677 7.46418 26.7993 6.57689 26.1446 5.92262C25.4899 5.26835 24.6023 4.90056 23.6767 4.89994H2.85074C3.07114 4.12786 3.5253 3.44301 4.15077 2.93953C4.82969 2.38919 5.67756 2.08966 6.55154 2.09141H16.3377C16.6022 2.07376 16.8502 1.95623 17.0313 1.76261C17.2125 1.56899 17.3132 1.31377 17.3132 1.04863C17.3132 0.783498 17.2125 0.528274 17.0313 0.334658C16.8502 0.141041 16.6022 0.0235056 16.3377 0.00585938L6.55154 0.00585938C4.97688 0.00708475 3.46701 0.632819 2.35313 1.7458C1.23925 2.85878 0.612317 4.36812 0.609863 5.94272C0.610662 6.16283 0.681248 6.37702 0.811471 6.55448C0.681817 6.73223 0.611294 6.94623 0.609863 7.16624V20.6296C0.615371 21.553 0.985902 22.4367 1.6406 23.0879C2.29529 23.7391 3.181 24.1049 4.10442 24.1055ZM25.0787 20.6296C25.0757 20.9974 24.9282 21.3493 24.6681 21.6094C24.408 21.8695 24.0561 22.0169 23.6883 22.02H4.10442C3.73338 22.0218 3.37674 21.8765 3.11265 21.6159C2.84855 21.3553 2.69854 21.0006 2.69547 20.6296V7.16624C2.69573 7.10638 2.69029 7.04664 2.67925 6.98781H23.6698C24.0394 6.99147 24.3927 7.14071 24.653 7.40317C24.9133 7.66562 25.0596 8.02012 25.0602 8.38976L25.0787 20.6296Z" fill="#121212"/>
<path d="M21.234 13.4619H17.561C17.2965 13.4796 17.0485 13.5971 16.8674 13.7907C16.6862 13.9843 16.5854 14.2396 16.5854 14.5047C16.5854 14.7698 16.6862 15.025 16.8674 15.2187C17.0485 15.4123 17.2965 15.5298 17.561 15.5475H21.234C21.4986 15.5298 21.7465 15.4123 21.9277 15.2187C22.1088 15.025 22.2096 14.7698 22.2096 14.5047C22.2096 14.2396 22.1088 13.9843 21.9277 13.7907C21.7465 13.5971 21.4986 13.4796 21.234 13.4619Z" fill="#121212"/>
<path d="M21.2342 2.09143C21.3702 2.09412 21.5052 2.06806 21.6304 2.01496C21.7585 1.96153 21.8744 1.8827 21.9711 1.78324C22.0687 1.68661 22.1461 1.57144 22.1986 1.4445C22.2512 1.31756 22.2778 1.1814 22.277 1.04402C22.2778 0.976243 22.2708 0.90859 22.2561 0.842422C22.2418 0.774893 22.2232 0.708332 22.2005 0.643137C22.1707 0.580336 22.1374 0.519222 22.1008 0.460072C22.0614 0.405989 22.018 0.354871 21.9711 0.307132C21.7749 0.113217 21.51 0.0048986 21.2342 0.00588613C20.9588 0.00392804 20.6936 0.109519 20.4949 0.30018C20.4468 0.352184 20.4019 0.407132 20.3605 0.464706C20.3251 0.519384 20.2956 0.577638 20.2725 0.638502C20.2432 0.702011 20.2222 0.768976 20.2099 0.837788C20.1952 0.903955 20.1882 0.971609 20.189 1.03939C20.1887 1.17669 20.2156 1.3127 20.2681 1.43957C20.3206 1.56644 20.3977 1.68166 20.4949 1.7786C20.5909 1.87762 20.7058 1.95634 20.8328 2.01008C20.9598 2.06382 21.0963 2.09148 21.2342 2.09143Z" fill="#121212"/>
</svg>
