<svg xmlns="http://www.w3.org/2000/svg" width="20" height="22" viewBox="0 0 20 22" fill="none">
<path fill-rule="evenodd" clip-rule="evenodd" d="M18.8469 13.767C18.7472 13.6091 18.6277 13.4645 18.4915 13.3367L18.399 13.2113C17.1297 11.9327 16.4176 10.2039 16.4182 8.4023V6.81105C16.4192 5.00477 15.7074 3.27107 14.4374 1.98667C13.1985 0.76792 11.5459 0.0606765 9.80889 0.00585938H9.5954C5.75229 0.119759 2.71564 3.30358 2.78361 7.14779V8.39129C2.78121 10.24 2.02632 12.008 0.692756 13.2883C0.204153 13.748 -0.0480998 14.4055 0.0076129 15.074C0.0633256 15.7426 0.42092 16.3492 0.978873 16.7217C2.44879 17.6642 4.06438 18.3573 5.76033 18.7729C5.77677 18.777 5.78927 18.7904 5.79225 18.8071C6.10619 20.6594 7.71406 22.0127 9.59276 22.0058C11.4715 21.999 13.0695 20.6341 13.37 18.7796C15.0629 18.3844 16.6798 17.7154 18.1569 16.7987C19.1835 16.1513 19.4922 14.795 18.8469 13.767ZM9.60342 20.3693C8.75932 20.3689 7.98979 19.8859 7.62261 19.1258C8.30412 19.2239 8.99192 19.2717 9.68045 19.2689C10.3134 19.2731 10.9459 19.2326 11.5732 19.1478C11.1988 19.8961 10.4324 20.3673 9.59571 20.3638L9.60342 20.3693ZM13.304 17.1178C14.7174 16.764 16.0657 16.1883 17.2987 15.4121C17.4429 15.333 17.541 15.19 17.5628 15.0269H17.5518C17.5895 14.8235 17.5186 14.615 17.3647 14.4767L17.1886 14.3116C15.623 12.7382 14.7412 10.6108 14.7346 8.39121V6.80656C14.7478 4.02494 12.541 1.73999 9.76057 1.65645H9.5955C6.67018 1.78717 4.38137 4.22434 4.43439 7.1521V8.39561C4.45379 10.6862 3.53531 12.885 1.89235 14.4811C1.74094 14.6 1.65514 14.7839 1.66125 14.9763C1.67185 15.1287 1.75882 15.2653 1.89235 15.3395C3.1183 16.1158 4.45367 16.7041 5.85397 17.0848C6.38554 17.2322 6.92582 17.3461 7.47163 17.4259C8.19984 17.5383 8.93572 17.5935 9.67254 17.591C10.3428 17.593 11.0122 17.5452 11.6754 17.4479C12.2255 17.3772 12.7698 17.2668 13.304 17.1178Z" fill="#ffffff"/>
</svg>