<svg xmlns="http://www.w3.org/2000/svg" width="36" height="36" viewBox="0 0 36 36" fill="none">
<path d="M21.4849 19.7543C20.9402 19.3119 20.3352 18.9496 19.6882 18.6783C20.442 18.0752 20.9899 17.2528 21.2561 16.3247C21.5222 15.3967 21.4935 14.4089 21.174 13.4979C20.8544 12.5869 20.2597 11.7976 19.4721 11.2393C18.6845 10.6809 17.7429 10.381 16.7774 10.381C15.812 10.381 14.8704 10.6809 14.0828 11.2393C13.2952 11.7976 12.7005 12.5869 12.3809 13.4979C12.0613 14.4089 12.0326 15.3967 12.2988 16.3247C12.565 17.2528 13.1128 18.0752 13.8667 18.6783C12.6653 19.2234 11.6262 20.0714 10.8512 21.1391C10.0762 22.2068 9.59202 23.4576 9.44604 24.7688C8.29502 23.5694 7.45617 22.1056 7.00322 20.5062C6.55027 18.9067 6.49707 17.2205 6.8483 15.5957C7.19953 13.9708 7.94443 12.4571 9.01756 11.1875C10.0907 9.91797 11.4592 8.93138 13.0028 8.31446C14.5465 7.69754 16.218 7.46917 17.8706 7.64942C19.5231 7.82968 21.1061 8.41303 22.4805 9.34823C23.8548 10.2834 24.9785 11.5419 25.7527 13.0129C26.5269 14.484 26.9279 16.1227 26.9206 17.7851C26.9117 17.8981 26.9263 18.0118 26.9634 18.119C27.0006 18.2261 27.0595 18.3244 27.1365 18.4077C27.2135 18.491 27.3068 18.5574 27.4108 18.6029C27.5147 18.6483 27.6269 18.6718 27.7403 18.6718C27.8537 18.6718 27.9659 18.6483 28.0698 18.6029C28.1737 18.5574 28.2671 18.491 28.344 18.4077C28.421 18.3244 28.48 18.2261 28.5171 18.119C28.5543 18.0118 28.5688 17.8981 28.5599 17.7851C28.5609 15.4548 27.8708 13.1765 26.5768 11.2385C25.2828 9.30056 23.443 7.78991 21.2903 6.89768C19.1376 6.00545 16.7686 5.77173 14.4831 6.22611C12.1975 6.68048 10.098 7.80252 8.45028 9.45028C6.80252 11.098 5.68048 13.1975 5.22611 15.4831C4.77174 17.7686 5.00545 20.1376 5.89767 22.2903C6.7899 24.443 8.30055 26.2828 10.2385 27.5768C12.1765 28.8708 14.4548 29.561 16.785 29.5599C19.334 29.5673 21.8153 28.7402 23.85 27.205C23.9525 27.1294 24.0357 27.0307 24.093 26.917C24.1503 26.8032 24.1801 26.6776 24.1799 26.5502V25.454C24.1811 24.3614 23.94 23.2822 23.474 22.294C23.008 21.3058 22.3286 20.4332 21.4849 19.7391V19.7543ZM16.785 12.0143C17.3813 12.0143 17.9642 12.1912 18.46 12.5224C18.9557 12.8537 19.3422 13.3245 19.5703 13.8754C19.7985 14.4263 19.8582 15.0325 19.7419 15.6173C19.6256 16.2021 19.3384 16.7393 18.9168 17.1609C18.4952 17.5825 17.958 17.8696 17.3732 17.986C16.7884 18.1023 16.1822 18.0426 15.6313 17.8144C15.0805 17.5862 14.6096 17.1998 14.2783 16.704C13.9471 16.2083 13.7703 15.6254 13.7703 15.0291C13.7716 14.23 14.0897 13.4639 14.6548 12.8988C15.2198 12.3337 15.9859 12.0157 16.785 12.0143ZM22.5355 26.129C20.8301 27.3007 18.8073 27.9233 16.7382 27.9133C14.6691 27.9033 12.6525 27.2613 10.9585 26.0732C11.0058 25.9661 11.0301 25.8502 11.0296 25.7331C11.0296 22.8249 12.9582 20.3329 15.5974 19.8152C16.4347 19.6418 17.3002 19.6571 18.1309 19.8601C18.9615 20.063 19.7365 20.4485 20.3995 20.9886C21.0625 21.5286 21.5969 22.2096 21.9637 22.982C22.3305 23.7544 22.5207 24.5989 22.5202 25.454L22.5355 26.129Z" fill="#ffffff"/>
<path d="M31.7807 22.869H29.4615V20.5499C29.4615 20.3449 29.3801 20.1482 29.2351 20.0033C29.0902 19.8583 28.8935 19.7769 28.6885 19.7769C28.4835 19.7769 28.2868 19.8583 28.1419 20.0033C27.9969 20.1482 27.9155 20.3449 27.9155 20.5499V22.869H25.5772C25.3722 22.869 25.1756 22.9505 25.0306 23.0954C24.8856 23.2404 24.8042 23.437 24.8042 23.6421C24.8042 23.8471 24.8856 24.0437 25.0306 24.1887C25.1756 24.3337 25.3722 24.4151 25.5772 24.4151H27.8964V26.7342C27.8964 26.9393 27.9778 27.1359 28.1228 27.2809C28.2678 27.4258 28.4644 27.5073 28.6694 27.5073C28.8744 27.5073 29.0711 27.4258 29.216 27.2809C29.361 27.1359 29.4425 26.9393 29.4425 26.7342V24.4151H31.7807C31.9857 24.4151 32.1823 24.3337 32.3273 24.1887C32.4723 24.0437 32.5537 23.8471 32.5537 23.6421C32.5537 23.437 32.4723 23.2404 32.3273 23.0954C32.1823 22.9505 31.9857 22.869 31.7807 22.869Z" fill="#ffffff"/>
</svg>