<svg width="148" height="46" viewBox="0 0 148 46" fill="none" xmlns="http://www.w3.org/2000/svg">
<path d="M15.9398 9.66506C15.8892 8.90602 15.6867 8.14699 15.2819 7.48916L11.841 1.46747C11.5879 1.01205 11.3855 0.506024 11.2843 0L11.1325 0.253012C10.2723 1.72048 10.2723 3.59277 11.1325 5.06024L13.9157 9.86747C14.7759 11.3349 14.7759 13.2072 13.9157 14.6747L13.7639 14.9277C13.6626 14.4217 13.4602 13.9157 13.2072 13.4602L10.6771 9.05783L9.05783 6.2241C8.80482 5.76868 8.60241 5.26265 8.5012 4.75663L8.3494 5.00964C7.48916 6.47711 7.48916 8.2988 8.3494 9.81687L11.1325 14.6241C11.9928 16.0916 11.9928 17.9639 11.1325 19.4313L10.9807 19.6843C10.8795 19.1783 10.6771 18.6723 10.4241 18.2169L6.93253 12.1952C6.47711 11.3855 6.2747 10.4747 6.2747 9.56386C2.58072 10.5253 0 12.6 0 14.9783C0 18.3181 4.95903 21 11.0819 21C17.2048 21 22.1639 18.3181 22.1639 14.9783C22.2145 12.7012 19.6843 10.6265 15.9398 9.66506ZM26.4145 19.9373C26.4651 19.0771 26.5663 18.5205 26.8193 17.812C27.9831 18.3687 29.5012 18.6217 30.6145 18.6217C32.5373 18.6217 33.6506 18.0145 33.6506 16.7494C33.6506 15.5349 32.841 14.9783 30.9181 14.1181L29.8554 13.7133C27.8819 12.853 26.5663 11.7398 26.5663 9.56386C26.5663 7.18554 28.2361 5.66747 31.5759 5.66747C32.9422 5.66747 34.2072 5.86988 35.3711 6.2747C35.3205 7.08434 35.1687 7.74217 34.9663 8.3494C33.853 7.94458 32.4867 7.74217 31.5253 7.74217C29.7036 7.74217 28.894 8.4506 28.894 9.56386C28.894 10.6265 29.7036 11.2843 31.1711 11.8916L32.2843 12.347C34.9157 13.4602 36.0289 14.6747 36.0289 16.6988C36.0289 19.0771 34.2072 20.747 30.6651 20.747C28.9952 20.747 27.5783 20.494 26.4145 19.9373ZM47.212 9.96868V20.3928H45.0867L44.9855 19.1277C44.3783 20.0386 43.5181 20.6458 42.0506 20.6458C39.3181 20.6458 37.4458 18.6217 37.4458 15.1301C37.4458 11.4867 39.4193 9.36145 43.2651 9.36145C44.7831 9.41205 46.0482 9.56386 47.212 9.96868ZM44.9349 18.0145V11.4867C44.4795 11.3855 43.9229 11.3855 43.2651 11.3855C40.8867 11.3855 39.7735 12.853 39.7735 15.1807C39.7735 17.306 40.6337 18.8241 42.6578 18.8241C43.6193 18.7735 44.3277 18.4699 44.9349 18.0145ZM58.9518 13.4096V20.3928H56.6747V13.8145C56.6747 12.1446 56.1181 11.3855 53.841 11.3855C53.2843 11.3855 52.6771 11.4361 52.0193 11.5374V20.3928H49.7422V9.96868C51.2096 9.61446 52.8289 9.36145 53.8916 9.36145C57.7373 9.41205 58.9518 10.8795 58.9518 13.4096ZM65.3277 18.7229C65.9855 18.7229 66.6434 18.6217 67.0988 18.4193C67.0482 19.0265 66.947 19.7349 66.8458 20.3422C66.2385 20.5952 65.5301 20.6964 64.9229 20.6964C62.6964 20.6964 61.2795 19.6843 61.2795 17.1542V6.17349C61.9879 5.92048 62.8482 5.81928 63.5566 5.81928V9.76627H67.2C67.1494 10.4747 67.0988 11.1325 66.9976 11.7398H63.5566V16.8506C63.5566 18.1663 64.2144 18.7229 65.3277 18.7229ZM77.6241 9.96868V20.3928H75.4988L75.3976 19.1277C74.7903 20.0386 73.9301 20.6458 72.4626 20.6458C69.7301 20.6458 67.8578 18.6217 67.8578 15.1301C67.8578 11.4867 69.8313 9.36145 73.6771 9.36145C75.1952 9.41205 76.4096 9.56386 77.6241 9.96868ZM75.2964 18.0145V11.4867C74.841 11.3855 74.2843 11.3855 73.6265 11.3855C71.2482 11.3855 70.1349 12.853 70.1349 15.1807C70.1349 17.306 70.9952 18.8241 73.0193 18.8241C73.9807 18.7735 74.7397 18.4699 75.2964 18.0145ZM89.3638 13.4096V20.3928H87.0361V13.8145C87.0361 12.1446 86.4795 11.3855 84.2024 11.3855C83.6458 11.3855 83.0385 11.4361 82.3807 11.5374V20.3928H80.1036V9.96868C81.5711 9.61446 83.1903 9.36145 84.253 9.36145C88.0988 9.41205 89.3638 10.8795 89.3638 13.4096ZM100.952 5.81928V20.3928H98.8265L98.7253 19.0771C98.1181 20.0386 97.2578 20.6458 95.7397 20.6458C93.0072 20.6458 91.1349 18.6217 91.1349 15.1301C91.1349 11.4867 93.1084 9.36145 96.9542 9.36145C97.5614 9.36145 98.1181 9.41205 98.6747 9.51325V6.07229C99.3831 5.86988 100.193 5.81928 100.952 5.81928ZM98.6747 18.0145V11.588C98.0675 11.4867 97.4602 11.3855 96.853 11.3855C94.5759 11.3855 93.5132 12.8024 93.5132 15.1807C93.5132 17.306 94.3735 18.8241 96.3976 18.8241C97.3084 18.7735 98.0675 18.4699 98.6747 18.0145ZM112.489 15.9398H105.152C105.455 17.812 106.518 18.6723 108.593 18.6723C109.858 18.6723 111.123 18.4193 112.236 17.8627C112.135 18.4699 112.034 19.2795 111.882 19.9373C110.819 20.3928 109.757 20.5952 108.492 20.5952C104.646 20.5952 102.824 18.4699 102.824 14.9277C102.824 11.841 104.241 9.36145 107.884 9.36145C111.173 9.36145 112.59 11.4867 112.59 14.1181C112.59 14.8265 112.59 15.3325 112.489 15.9398ZM105.152 14.0169H110.313C110.313 12.2964 109.402 11.2843 107.834 11.2843C106.164 11.3349 105.304 12.2458 105.152 14.0169ZM120.535 9.51325C120.535 10.2217 120.434 11.0313 120.333 11.4867C119.776 11.4361 119.27 11.3855 118.612 11.3855C118.055 11.3855 117.499 11.4361 116.942 11.4867V20.3928H114.665V9.96868C115.626 9.61446 117.296 9.36145 118.561 9.36145C119.219 9.41205 120.029 9.41205 120.535 9.51325Z" fill="white"/>
</svg>
