<svg width="36" height="36" viewBox="0 0 36 36" fill="none" xmlns="http://www.w3.org/2000/svg">
<path d="M23.7238 7.39446C21.9936 6.4822 20.0463 6 18.0915 6H18.0776C11.4185 6 6.00001 11.4192 6.00001 18.0807C5.99788 20.0201 6.47141 21.9543 7.3642 23.6638L7.59724 24.1162C7.6664 24.2471 7.6813 24.4036 7.65683 24.4898C7.31844 25.3744 7.03858 26.2877 6.82363 27.2032C6.80979 27.2617 6.80235 27.3224 6.80022 27.3809C6.78426 27.894 6.92046 28.3017 7.20671 28.5923C7.39293 28.7818 7.73131 29.0064 8.28678 29.0064C8.35595 29.0085 8.4315 28.9989 8.50173 28.984C9.32961 28.7988 10.5555 28.3528 11.4514 28.0281L11.6941 27.9398C12.1633 27.7705 12.407 27.2511 12.2368 26.7817C12.0665 26.3112 11.544 26.0653 11.079 26.2388L10.8332 26.3271C10.2341 26.5453 9.40516 26.8466 8.72626 27.051C8.90077 26.4016 9.11253 25.7491 9.36685 25.0785C9.55094 24.4803 9.48816 23.8192 9.20404 23.287L8.97206 22.8335C8.2091 21.3741 7.80687 19.7317 7.80899 18.0817C7.80899 12.4177 12.4166 7.8096 18.0787 7.8096H18.0904C19.7536 7.8096 21.4094 8.21942 22.88 8.99542C27.8887 11.6374 29.8148 17.8635 27.1737 22.8729C25.021 26.9562 20.3751 29.116 15.8749 28.1154C15.3844 28.0101 14.9023 28.3156 14.7949 28.8031C14.6874 29.2906 14.9949 29.7739 15.4823 29.8825C16.3474 30.0741 17.2168 30.1667 18.0776 30.1667C22.4841 30.1667 26.6554 27.7354 28.7741 23.717C31.8802 17.8241 29.6147 10.5027 23.7238 7.39446Z" fill="#121212"/>
<path d="M22.8889 19.8726C22.8282 19.7749 22.6698 19.7155 22.4322 19.5974C22.1947 19.4793 21.0232 18.9077 20.8061 18.8305C20.589 18.7533 20.428 18.7111 20.2696 18.948C20.1112 19.1849 19.6558 19.7162 19.5159 19.8719C19.376 20.0277 19.2387 20.0501 19.0005 19.9333C18.3 19.6554 17.6526 19.2589 17.0866 18.7612C16.5666 18.2846 16.1204 17.7332 15.7628 17.1252C15.6229 16.889 15.7483 16.7616 15.8664 16.6441C15.9726 16.5379 16.1046 16.3683 16.2241 16.229C16.3225 16.1095 16.4028 15.976 16.4623 15.833C16.4935 15.7676 16.508 15.6954 16.5045 15.623C16.5011 15.5506 16.4798 15.4801 16.4425 15.4179C16.3831 15.2991 15.908 14.1383 15.7087 13.6651C15.5094 13.1919 15.3127 13.2691 15.1735 13.2691C15.0342 13.2691 14.8758 13.25 14.7174 13.25C14.5971 13.2526 14.4786 13.2801 14.3695 13.3307C14.2603 13.3814 14.1629 13.4541 14.0832 13.5443C13.8148 13.7966 13.6021 14.1021 13.4587 14.4413C13.3153 14.7806 13.2443 15.146 13.2504 15.5143C13.3279 16.4058 13.6657 17.2549 14.2218 17.9561C14.3419 18.1132 15.8717 20.5768 18.2891 21.5198C20.7065 22.4629 20.7104 22.1494 21.146 22.1092C21.4776 22.0456 21.792 21.9128 22.0688 21.7195C22.3456 21.5262 22.5785 21.2767 22.7523 20.9872C22.9052 20.6369 22.9531 20.2495 22.8889 19.8726Z" fill="#121212"/>
</svg>
