<svg width="24" height="20" viewBox="0 0 24 20" fill="none" xmlns="http://www.w3.org/2000/svg">
<path d="M14.0499 11.4619C13.596 11.0933 13.0919 10.7914 12.5526 10.5653C13.1809 10.0627 13.6374 9.3773 13.8592 8.60394C14.081 7.83058 14.0571 7.00742 13.7908 6.24825C13.5245 5.48907 13.0289 4.83137 12.3726 4.36607C11.7162 3.90077 10.9316 3.65084 10.127 3.65084C9.32249 3.65084 8.53782 3.90077 7.88149 4.36607C7.22516 4.83137 6.72957 5.48907 6.46325 6.24825C6.19693 7.00742 6.17302 7.83058 6.39483 8.60394C6.61664 9.3773 7.0732 10.0627 7.70142 10.5653C6.70024 11.0195 5.8343 11.7262 5.18849 12.6159C4.54269 13.5057 4.13918 14.548 4.01754 15.6407C3.05835 14.6411 2.35931 13.4214 1.98185 12.0885C1.60439 10.7556 1.56006 9.35041 1.85275 7.99638C2.14544 6.64236 2.76619 5.38094 3.66047 4.32296C4.55474 3.26498 5.69516 2.44282 6.98153 1.92872C8.26791 1.41462 9.66086 1.22431 11.038 1.37452C12.4151 1.52473 13.7343 2.01086 14.8796 2.79019C16.0249 3.56953 16.9612 4.61821 17.6064 5.84411C18.2516 7.07001 18.5858 8.43559 18.5797 9.82088C18.5722 9.9151 18.5844 10.0098 18.6154 10.0991C18.6463 10.1884 18.6954 10.2704 18.7596 10.3398C18.8237 10.4092 18.9015 10.4645 18.9881 10.5024C19.0747 10.5403 19.1682 10.5598 19.2627 10.5598C19.3572 10.5598 19.4507 10.5403 19.5373 10.5024C19.6239 10.4645 19.7017 10.4092 19.7659 10.3398C19.83 10.2704 19.8791 10.1884 19.9101 10.0991C19.9411 10.0098 19.9532 9.9151 19.9458 9.82088C19.9466 7.87897 19.3715 5.98044 18.2931 4.36545C17.2148 2.75047 15.6817 1.49159 13.8878 0.748065C12.0938 0.00454259 10.1197 -0.190222 8.21505 0.188421C6.31042 0.567063 4.56087 1.5021 3.18773 2.87523C1.8146 4.24837 0.879565 5.99792 0.500923 7.90255C0.12228 9.80719 0.317038 11.7813 1.06056 13.5753C1.80408 15.3692 3.06296 16.9023 4.67794 17.9806C6.29293 19.059 8.19146 19.6341 10.1334 19.6333C12.2575 19.6395 14.3252 18.9502 16.0208 17.6708C16.1062 17.6078 16.1756 17.5256 16.2234 17.4308C16.2711 17.336 16.2959 17.2313 16.2957 17.1252V16.2116C16.2967 15.3012 16.0958 14.4018 15.7075 13.5783C15.3191 12.7548 14.753 12.0277 14.0499 11.4492V11.4619ZM10.1334 5.01195C10.6303 5.01195 11.116 5.1593 11.5291 5.43535C11.9423 5.71141 12.2643 6.10378 12.4545 6.56284C12.6446 7.02191 12.6944 7.52705 12.5974 8.0144C12.5005 8.50174 12.2612 8.94939 11.9098 9.30075C11.5585 9.6521 11.1108 9.89137 10.6235 9.98831C10.1362 10.0852 9.63102 10.0355 9.17196 9.84535C8.71289 9.65519 8.32051 9.33318 8.04446 8.92004C7.7684 8.50689 7.62106 8.02115 7.62106 7.52426C7.62217 6.8583 7.88722 6.21994 8.35813 5.74903C8.82904 5.27812 9.46741 5.01307 10.1334 5.01195ZM14.9254 16.7742C13.5042 17.7506 11.8186 18.2694 10.0944 18.2611C8.37012 18.2528 6.68959 17.7177 5.27792 16.7276C5.31737 16.6384 5.33755 16.5418 5.33713 16.4443C5.33713 14.0208 6.94434 11.9441 9.14367 11.5127C9.84145 11.3681 10.5627 11.3809 11.2549 11.5501C11.9471 11.7192 12.5929 12.0405 13.1454 12.4905C13.6979 12.9405 14.1432 13.508 14.4489 14.1517C14.7546 14.7953 14.913 15.4991 14.9127 16.2116L14.9254 16.7742Z" fill="#121212"/>
<path d="M22.6301 14.0573H20.6975V12.1247C20.6975 11.9538 20.6297 11.79 20.5088 11.6692C20.388 11.5483 20.2242 11.4805 20.0533 11.4805C19.8825 11.4805 19.7186 11.5483 19.5978 11.6692C19.477 11.79 19.4091 11.9538 19.4091 12.1247V14.0573H17.4606C17.2898 14.0573 17.1259 14.1251 17.0051 14.246C16.8843 14.3668 16.8164 14.5306 16.8164 14.7015C16.8164 14.8723 16.8843 15.0362 17.0051 15.157C17.1259 15.2778 17.2898 15.3457 17.4606 15.3457H19.3932V17.2783C19.3932 17.4491 19.4611 17.613 19.5819 17.7338C19.7027 17.8546 19.8666 17.9225 20.0374 17.9225C20.2083 17.9225 20.3721 17.8546 20.4929 17.7338C20.6137 17.613 20.6816 17.4491 20.6816 17.2783V15.3457H22.6301C22.801 15.3457 22.9648 15.2778 23.0856 15.157C23.2065 15.0362 23.2743 14.8723 23.2743 14.7015C23.2743 14.5306 23.2065 14.3668 23.0856 14.246C22.9648 14.1251 22.801 14.0573 22.6301 14.0573Z" fill="#121212"/>
</svg>
