<svg width="20" height="20" viewBox="0 0 20 20" fill="none" xmlns="http://www.w3.org/2000/svg">
<path d="M10.0004 2C8.14954 1.99991 6.35592 2.64159 4.92515 3.81569C3.49437 4.98979 2.51496 6.62367 2.1538 8.43894C1.79264 10.2542 2.07207 12.1385 2.94448 13.7709C3.8169 15.4032 5.22832 16.6826 6.93825 17.3909C8.64818 18.0993 10.5508 18.1928 12.322 17.6556C14.0932 17.1184 15.6233 15.9837 16.6516 14.4448C17.6799 12.9059 18.1429 11.0581 17.9615 9.21614C17.7802 7.3742 16.9658 5.65212 15.6571 4.34333C14.1568 2.84302 12.1221 2.0001 10.0004 2ZM10.0004 16.8C8.42716 16.8001 6.90256 16.2548 5.68635 15.2569C4.47014 14.2589 3.63757 12.8702 3.33051 11.3272C3.02346 9.78424 3.2609 8.18254 4.0024 6.79501C4.74389 5.40749 5.94355 4.32 7.39697 3.71783C8.85039 3.11567 10.4676 3.03609 11.9732 3.49265C13.4787 3.94922 14.7793 4.91368 15.6534 6.2217C16.5276 7.52972 16.9211 9.10037 16.767 10.666C16.6129 12.2317 15.9207 13.6955 14.8084 14.808C13.5333 16.0833 11.8038 16.7998 10.0004 16.8Z" fill="#D0D0D0"/>
</svg>
