<svg width="36" height="36" viewBox="0 0 36 36" fill="none" xmlns="http://www.w3.org/2000/svg">
<path d="M15.3275 29.66C13.4645 29.6596 11.6303 29.1998 9.98737 28.3212C8.34446 27.4427 6.94354 26.1726 5.90867 24.6234C4.87381 23.0742 4.23694 21.2937 4.05447 19.4396C3.87201 17.5855 4.14957 15.7151 4.86259 13.9939C5.5756 12.2726 6.70205 10.7538 8.14219 9.57189C9.58233 8.38997 11.2917 7.58141 13.1189 7.21784C14.9462 6.85426 16.8349 6.94689 18.6177 7.48752C20.4006 8.02814 22.0227 9.00007 23.3403 10.3172C23.5064 10.484 23.5994 10.71 23.5989 10.9453C23.5984 11.1807 23.5044 11.4063 23.3377 11.5723C23.1709 11.7384 22.9449 11.8315 22.7096 11.831C22.4742 11.8305 22.2486 11.7365 22.0825 11.5697C20.7456 10.2333 19.0424 9.32325 17.1883 8.95471C15.3342 8.58617 13.4124 8.77567 11.666 9.49925C9.91959 10.2228 8.42695 11.448 7.37678 13.0198C6.32661 14.5917 5.76608 16.4396 5.76608 18.33C5.76608 20.2204 6.32661 22.0683 7.37678 23.6402C8.42695 25.212 9.91959 26.4372 11.666 27.1607C13.4124 27.8843 15.3342 28.0738 17.1883 27.7053C19.0424 27.3367 20.7456 26.4267 22.0825 25.0902C22.2486 24.9235 22.4742 24.8295 22.7096 24.829C22.9449 24.8285 23.1709 24.9215 23.3377 25.0876C23.5044 25.2537 23.5984 25.4793 23.5989 25.7146C23.5994 25.95 23.5064 26.176 23.3403 26.3427C22.2897 27.3971 21.0408 28.233 19.6655 28.8023C18.2903 29.3717 16.8159 29.6632 15.3275 29.66Z" fill="#FD0658"/>
<path d="M31.3581 18.9117C31.3968 18.8764 31.4303 18.8358 31.4576 18.7911L31.4996 18.723C31.4996 18.723 31.4996 18.6759 31.5363 18.6444C31.5481 18.6157 31.5569 18.5859 31.5624 18.5553C31.5678 18.5329 31.5678 18.5096 31.5624 18.4872C31.5887 18.3769 31.5887 18.2621 31.5624 18.1518C31.5678 18.1294 31.5678 18.1061 31.5624 18.0837C31.5569 18.0531 31.5481 18.0233 31.5363 17.9946C31.5243 17.9673 31.5103 17.9411 31.4943 17.916C31.4853 17.8917 31.4729 17.8688 31.4576 17.8479C31.4289 17.7996 31.3936 17.7555 31.3528 17.7168L27.3386 13.7026C27.2616 13.6145 27.1673 13.5432 27.0616 13.4931C26.9559 13.4429 26.841 13.415 26.7241 13.4111C26.6072 13.4072 26.4907 13.4274 26.3819 13.4703C26.2731 13.5133 26.1742 13.5781 26.0915 13.6608C26.0088 13.7436 25.9439 13.8424 25.901 13.9512C25.858 14.06 25.8379 14.1765 25.8418 14.2935C25.8457 14.4104 25.8736 14.5252 25.9238 14.6309C25.9739 14.7366 26.0452 14.8309 26.1333 14.9079L28.6959 17.4705H21.0867C20.8724 17.4874 20.6723 17.5844 20.5263 17.7422C20.3804 17.9001 20.2993 18.1072 20.2993 18.3221C20.2993 18.5371 20.3804 18.7442 20.5263 18.902C20.6723 19.0599 20.8724 19.1569 21.0867 19.1737H28.6697L26.1176 21.7363C26.038 21.8152 25.9749 21.9091 25.9318 22.0126C25.8887 22.116 25.8665 22.2269 25.8665 22.339C25.8665 22.451 25.8887 22.562 25.9318 22.6654C25.9749 22.7688 26.038 22.8627 26.1176 22.9416C26.2783 23.0997 26.4948 23.1883 26.7202 23.1883C26.9457 23.1883 27.1621 23.0997 27.3229 22.9416L31.3371 18.9222" fill="#FD0658"/>
<circle cx="17.4935" cy="18.2774" r="0.917089" fill="#FD0658"/>
</svg>
