<svg width="21" height="21" viewBox="0 0 21 21" fill="none" xmlns="http://www.w3.org/2000/svg">
<path d="M12.3558 9.97887H19.6084C19.8527 9.97887 20.087 9.88175 20.2597 9.70887C20.4325 9.53599 20.5295 9.30152 20.5295 9.05704V1.79903C20.5302 1.67751 20.507 1.55704 20.461 1.44456C20.415 1.33207 20.3473 1.22979 20.2617 1.14361C20.1761 1.05742 20.0743 0.989019 19.9622 0.942346C19.85 0.895673 19.7298 0.871646 19.6084 0.871649H12.3558C12.2331 0.870179 12.1114 0.893081 11.9977 0.939028C11.884 0.984975 11.7805 1.05305 11.6933 1.13931C11.6061 1.22558 11.5368 1.32831 11.4896 1.44155C11.4423 1.5548 11.418 1.6763 11.418 1.79903V9.05704C11.4179 9.17951 11.4423 9.30076 11.4896 9.4137C11.537 9.52664 11.6063 9.62901 11.6936 9.71483C11.7809 9.80065 11.8845 9.8682 11.9981 9.91354C12.1118 9.95887 12.2334 9.98108 12.3558 9.97887ZM13.2769 2.72086H18.6817V8.12966H13.2769V2.72086Z" fill="white"/>
<path d="M8.72816 11.7612H1.47554C1.35411 11.7605 1.23371 11.7838 1.12131 11.8298C1.00891 11.8758 0.906716 11.9436 0.820591 12.0293C0.734466 12.1149 0.666117 12.2168 0.619478 12.329C0.57284 12.4412 0.548826 12.5616 0.548828 12.6831V19.9411C0.550294 20.1861 0.648587 20.4205 0.822217 20.5933C0.995846 20.766 1.23073 20.8629 1.47554 20.8629H8.72816C8.97394 20.8629 9.20963 20.7652 9.38342 20.5913C9.55721 20.4174 9.65485 20.1815 9.65485 19.9355V12.6831C9.65485 12.5616 9.63083 12.4412 9.5842 12.329C9.53756 12.2168 9.46921 12.1149 9.38308 12.0293C9.29696 11.9436 9.19476 11.8758 9.08236 11.8298C8.96996 11.7838 8.8496 11.7605 8.72816 11.7612ZM7.80145 19.0193H2.40223V13.6105H7.80145V19.0193Z" fill="white"/>
<path d="M12.3558 17.2368H19.6084C19.8527 17.2368 20.087 17.1397 20.2597 16.9668C20.4325 16.7939 20.5295 16.5595 20.5295 16.315V12.6832C20.5115 12.4504 20.4063 12.2329 20.235 12.0743C20.0637 11.9157 19.839 11.8275 19.6056 11.8275C19.3722 11.8275 19.1475 11.9157 18.9762 12.0743C18.8049 12.2329 18.6997 12.4504 18.6817 12.6832V15.3876H16.906V12.6832C16.906 12.5617 16.882 12.4414 16.8353 12.3292C16.7887 12.2169 16.7204 12.1151 16.6342 12.0294C16.5481 11.9437 16.4459 11.8759 16.3335 11.83C16.2211 11.784 16.1007 11.7606 15.9793 11.7614H12.3558C12.2334 11.7592 12.1118 11.7814 11.9981 11.8267C11.8845 11.872 11.7809 11.9396 11.6936 12.0254C11.6063 12.1112 11.537 12.2136 11.4896 12.3265C11.4423 12.4395 11.4179 12.5607 11.418 12.6832V16.315C11.4179 16.4375 11.4423 16.5587 11.4896 16.6716C11.537 16.7846 11.6063 16.887 11.6936 16.9728C11.7809 17.0586 11.8845 17.1262 11.9981 17.1715C12.1118 17.2168 12.2334 17.239 12.3558 17.2368ZM13.2769 13.6106H15.0526V15.3876H13.2769V13.6106Z" fill="white"/>
<path d="M15.9793 19.0194H12.3558C12.2284 19.0095 12.1004 19.0261 11.9798 19.068C11.8591 19.11 11.7484 19.1765 11.6547 19.2633C11.5609 19.3502 11.4861 19.4554 11.435 19.5726C11.3838 19.6897 11.3574 19.8162 11.3574 19.944C11.3574 20.0718 11.3838 20.1983 11.435 20.3154C11.4861 20.4325 11.5609 20.5378 11.6547 20.6246C11.7484 20.7114 11.8591 20.7779 11.9798 20.8199C12.1004 20.8619 12.2284 20.8785 12.3558 20.8686H15.9793C16.1066 20.8785 16.2347 20.8619 16.3553 20.8199C16.476 20.7779 16.5866 20.7114 16.6804 20.6246C16.7741 20.5378 16.8489 20.4325 16.9001 20.3154C16.9512 20.1983 16.9776 20.0718 16.9776 19.944C16.9776 19.8162 16.9512 19.6897 16.9001 19.5726C16.8489 19.4554 16.7741 19.3502 16.6804 19.2633C16.5866 19.1765 16.476 19.11 16.3553 19.068C16.2347 19.0261 16.1066 19.0095 15.9793 19.0194Z" fill="white"/>
<path d="M20.5104 19.7526C20.4881 19.634 20.4429 19.5208 20.3772 19.4195C20.3445 19.3684 20.3053 19.3217 20.2607 19.2806C20.0829 19.1147 19.8489 19.0225 19.6059 19.0225C19.3628 19.0225 19.1288 19.1147 18.9511 19.2806C18.9098 19.3233 18.8726 19.3698 18.8401 19.4195C18.8052 19.47 18.7754 19.524 18.7513 19.5805C18.7289 19.636 18.7121 19.6937 18.7014 19.7526C18.6959 19.8136 18.6959 19.8749 18.7014 19.9359C18.7007 20.0569 18.7244 20.1769 18.7711 20.2885C18.8179 20.4001 18.8866 20.5012 18.9733 20.5856C19.0567 20.673 19.1567 20.7428 19.2674 20.7911C19.3806 20.8351 19.5011 20.8577 19.6225 20.8577C19.7444 20.8592 19.8653 20.8358 19.9779 20.789C20.0904 20.7422 20.1923 20.673 20.2773 20.5856C20.3662 20.5024 20.4345 20.3998 20.4771 20.2857C20.5233 20.1748 20.5478 20.0561 20.5492 19.9359C20.5447 19.8733 20.5316 19.8117 20.5104 19.7526Z" fill="white"/>
<path d="M8.72759 0.87151H5.09849C4.85806 0.878755 4.63002 0.979826 4.46308 1.15312C4.29613 1.32641 4.20354 1.55818 4.2051 1.79889V9.0569C4.2051 9.30138 4.30215 9.53585 4.4749 9.70873C4.64764 9.88161 4.88192 9.97873 5.12623 9.97873H8.75533C8.88268 9.98861 9.01069 9.97204 9.13134 9.93006C9.25199 9.88807 9.36266 9.82158 9.45641 9.73476C9.55016 9.64794 9.62496 9.54266 9.67612 9.42553C9.72727 9.3084 9.75368 9.18195 9.75368 9.05412C9.75368 8.92629 9.72727 8.79985 9.67612 8.68272C9.62496 8.56559 9.55016 8.46031 9.45641 8.37348C9.36266 8.28666 9.25199 8.22017 9.13134 8.17819C9.01069 8.1362 8.88268 8.11963 8.75533 8.12952H6.05294V6.3525H8.75533C9.0011 6.3525 9.2368 6.25479 9.41059 6.08088C9.58438 5.90696 9.68201 5.67107 9.68201 5.42512V1.79889C9.68207 1.67473 9.65722 1.55183 9.60892 1.43746C9.56063 1.3231 9.48988 1.21961 9.40087 1.13312C9.31186 1.04663 9.20639 0.978909 9.09073 0.93397C8.97508 0.889032 8.8516 0.867792 8.72759 0.87151ZM7.80087 4.50329H6.0252V2.72072H7.80087V4.50329Z" fill="white"/>
<path d="M1.47554 6.35257C1.72132 6.35257 1.95701 6.25487 2.1308 6.08095C2.30459 5.90703 2.40223 5.67115 2.40223 5.42519V1.79896C2.40223 1.55301 2.30459 1.31712 2.1308 1.14321C1.95701 0.969288 1.72132 0.871582 1.47554 0.871582C1.22977 0.871582 0.994041 0.969288 0.820252 1.14321C0.646464 1.31712 0.548828 1.55301 0.548828 1.79896V5.42519C0.548828 5.67115 0.646464 5.90703 0.820252 6.08095C0.994041 6.25487 1.22977 6.35257 1.47554 6.35257Z" fill="white"/>
<path d="M1.12051 9.91201C1.23328 9.95829 1.35379 9.98278 1.47566 9.9842C1.72047 9.98273 1.95474 9.88438 2.12733 9.71062C2.29992 9.53686 2.39679 9.30181 2.39679 9.05682C2.40228 8.99585 2.40228 8.93452 2.39679 8.87356C2.38594 8.81399 2.36729 8.7561 2.34131 8.70141C2.31911 8.6468 2.29119 8.59468 2.25806 8.54592C2.22544 8.49308 2.18631 8.44457 2.14156 8.40154C2.09893 8.36021 2.05248 8.32302 2.00283 8.29048C1.95232 8.2555 1.89838 8.22573 1.84188 8.20163C1.7864 8.17913 1.72876 8.16239 1.66987 8.15165C1.52128 8.12204 1.36771 8.12933 1.22259 8.1729C1.07748 8.21647 0.945267 8.29497 0.837507 8.40154C0.792752 8.44457 0.753587 8.49308 0.720965 8.54592C0.687834 8.59468 0.659955 8.6468 0.637749 8.70141C0.611769 8.7561 0.593091 8.81399 0.582239 8.87356C0.576754 8.93452 0.576754 8.99585 0.582239 9.05682C0.582061 9.1786 0.606016 9.29921 0.652686 9.41168C0.699355 9.52415 0.767843 9.62626 0.854171 9.71209C0.928699 9.79589 1.01926 9.86387 1.12051 9.91201Z" fill="white"/>
<path d="M4.76134 17.1703C4.87368 17.218 4.99447 17.2425 5.11649 17.2425C5.23851 17.2425 5.35929 17.218 5.47163 17.1703C5.58411 17.1249 5.68608 17.0568 5.77127 16.9704C5.85586 16.8837 5.92359 16.782 5.97103 16.6705C6.0155 16.5574 6.0381 16.4368 6.03761 16.3151C6.03883 16.0701 5.94308 15.8345 5.77127 15.6599C5.72752 15.6198 5.68118 15.5827 5.63254 15.5488C5.58204 15.5138 5.52813 15.4841 5.47163 15.4599C5.4159 15.4382 5.35829 15.4215 5.29958 15.41C5.15013 15.3809 4.99588 15.3884 4.84997 15.4319C4.70406 15.4754 4.57085 15.5536 4.4617 15.6599C4.28989 15.8345 4.1941 16.0701 4.19532 16.3151C4.1953 16.56 4.29091 16.7951 4.4617 16.9704C4.54689 17.0568 4.64886 17.1249 4.76134 17.1703Z" fill="white"/>
<path d="M15.7972 4.52024C15.7375 4.53026 15.6796 4.54897 15.6252 4.57577C15.5689 4.59794 15.5149 4.62585 15.4643 4.65907C15.365 4.72873 15.2786 4.81517 15.209 4.91452C15.145 5.01727 15.0981 5.12982 15.0703 5.24771C15.0651 5.30683 15.0651 5.36629 15.0703 5.42541C15.0703 5.67137 15.168 5.90725 15.3417 6.08117C15.5155 6.25508 15.7512 6.35279 15.997 6.35279C16.1174 6.35413 16.2366 6.32951 16.3466 6.2806C16.4606 6.238 16.5631 6.16958 16.6462 6.08068C16.7336 5.99561 16.8027 5.89365 16.8495 5.78101C16.8962 5.66836 16.9196 5.54737 16.9181 5.42541C16.9175 5.28841 16.8867 5.15325 16.8277 5.02963C16.7687 4.90601 16.683 4.79701 16.5769 4.71046C16.4708 4.62391 16.3468 4.56197 16.2139 4.52908C16.081 4.49619 15.9425 4.49317 15.8083 4.52024H15.7972Z" fill="white"/>
</svg>
