<svg xmlns="http://www.w3.org/2000/svg" width="36" height="36" viewBox="0 0 36 36" fill="none">
<rect opacity="0.01" x="3" y="3" width="30" height="30" fill="#ffffff"/>
<path fill-rule="evenodd" clip-rule="evenodd" d="M30.2501 18.0998C29.9407 17.3091 29.4007 16.6296 28.7001 16.1498V16.0998C28.7001 15.7748 28.6751 15.4498 28.6501 15.1373C28.577 14.499 28.4516 13.8677 28.2751 13.2498C28.2626 13.1998 28.247 13.153 28.2313 13.1061L28.2313 13.106C28.2157 13.0592 28.2001 13.0123 28.1876 12.9623C27.0664 9.40864 24.173 6.69693 20.5542 5.80818C16.9353 4.91943 13.115 5.98232 10.4751 8.61234C10.3501 8.73734 10.2376 8.84984 10.1251 8.97484L10.0944 9.00894C9.99016 9.12463 9.87745 9.24974 9.77509 9.37484C9.45125 9.76651 9.15472 10.18 8.88759 10.6123C8.88069 10.6123 8.87509 10.6179 8.87509 10.6248C8.62509 11.0623 8.38759 11.5123 8.17509 11.9873L8.16259 11.9998C8.0376 12.3123 7.9251 12.6373 7.8126 12.9623L7.81259 12.9623C7.78759 13.0436 7.76259 13.128 7.7376 13.2123C7.71259 13.2967 7.68759 13.3811 7.66259 13.4623C7.60921 13.6301 7.56744 13.8013 7.53759 13.9748C7.38865 14.6821 7.30911 15.4022 7.30009 16.1248C7.29319 16.1248 7.28759 16.1304 7.28759 16.1373C6.44148 16.7142 5.83656 17.5815 5.58759 18.5748C5.44768 19.1436 5.42641 19.735 5.52509 20.3123L5.93759 22.6498C5.97433 22.8488 6.02444 23.0451 6.08759 23.2373C6.08759 23.2436 6.09072 23.2498 6.09384 23.2561C6.09697 23.2623 6.10009 23.2686 6.10009 23.2748C6.56901 24.6716 7.74473 25.714 9.18759 26.0123C9.4748 26.0771 9.76817 26.1107 10.0626 26.1123C10.3055 26.1096 10.5478 26.0887 10.7876 26.0498C11.7057 25.891 12.376 25.0941 12.3751 24.1623C12.3792 24.0493 12.3708 23.9361 12.3501 23.8248L11.1626 17.0123C10.9941 16.0947 10.1955 15.4275 9.26259 15.4248H9.20009C9.22509 15.1498 9.26259 14.8873 9.31259 14.6248C9.33816 14.4598 9.37576 14.2969 9.42509 14.1373C10.4095 10.0995 14.077 7.29524 18.2316 7.40362C22.3863 7.512 25.9026 10.5037 26.6751 14.5873C26.736 14.8759 26.7777 15.1682 26.8001 15.4623H26.7626C25.835 15.4609 25.0398 16.1245 24.8751 17.0373L23.6876 23.7998C23.5063 24.8412 24.198 25.834 25.2376 26.0248C25.4774 26.0637 25.7197 26.0846 25.9626 26.0873C26.2529 26.0857 26.5421 26.0521 26.8251 25.9873C26.8251 25.9936 26.822 25.9967 26.8188 25.9998C26.8157 26.003 26.8126 26.0061 26.8126 26.0123C26.2518 27.575 24.7728 28.6193 23.1126 28.6248H20.5001V30.4998H23.1126C26.2556 30.4893 28.8255 27.9912 28.9251 24.8498V24.8248C29.3616 24.3873 29.6947 23.8577 29.9001 23.2748C29.9097 23.2648 29.9142 23.2511 29.9126 23.2373C29.9757 23.0451 30.0259 22.8488 30.0626 22.6498L30.4751 20.2998C30.6103 19.56 30.5322 18.797 30.2501 18.0998ZM7.8875 22.7259L7.86751 22.6534C7.83702 22.5435 7.80805 22.4389 7.7875 22.3259L7.375 19.9884C7.30063 19.5908 7.33518 19.1805 7.475 18.8009C7.75087 18.0282 8.4179 17.4612 9.225 17.3134L9.2375 17.3009H9.2625C9.28637 17.2986 9.30808 17.3149 9.3125 17.3384L10.5 24.1384C10.5063 24.1517 10.5056 24.1672 10.498 24.1797C10.4905 24.1923 10.4771 24.2003 10.4625 24.2009C10.3305 24.2253 10.1967 24.2378 10.0625 24.2384C9.78875 24.2395 9.51729 24.1886 9.2625 24.0884C9.25576 24.0817 9.24698 24.0773 9.2375 24.0759C8.99702 23.9838 8.77323 23.8529 8.575 23.6884C8.26905 23.4301 8.03269 23.0992 7.8875 22.7259ZM28.625 19.9882V19.9757C28.6936 19.5778 28.6592 19.169 28.525 18.7882C28.334 18.2986 27.9869 17.8856 27.5375 17.6132C27.3014 17.4776 27.0433 17.3845 26.775 17.3382V17.3132L26.7625 17.3007V17.3382C26.7625 17.3382 26.725 17.3382 26.725 17.3632L25.5375 24.1257C25.6706 24.187 25.816 24.217 25.9625 24.2132C26.2308 24.2122 26.4971 24.1657 26.75 24.0757C27.1156 23.935 27.4415 23.7077 27.7 23.4132C27.9601 23.0984 28.1403 22.7253 28.225 22.3257L28.625 19.9882Z" fill="#ffffff"/>
</svg>