<svg version="1.2" xmlns="http://www.w3.org/2000/svg" viewBox="0 0 24 17" width="24" height="17">
	<title>erase-svg</title>
	<style>
		.s0 { fill: #ffffff } 
	</style>
	<path id="Layer" class="s0" d="m11 6c-0.2-0.3-0.2-0.7 0-1 0.3-0.3 0.8-0.3 1.1 0l2.5 2.4 2.5-2.4c0.2-0.3 0.7-0.3 1 0 0.3 0.3 0.3 0.7 0 1l-2.5 2.5 2.5 2.5c0.3 0.3 0.3 0.7 0 1-0.3 0.3-0.8 0.3-1 0l-2.5-2.4-2.5 2.4c-0.3 0.3-0.8 0.3-1.1 0-0.2-0.3-0.2-0.7 0-1l2.5-2.5z"/>
	<path id="Layer" fill-rule="evenodd" class="s0" d="m10.1 0h10.2c1.7 0 3 1.3 3 3v11c0 1.7-1.3 3-3 3h-10.2c-0.8 0-1.6-0.3-2.1-0.9l-7.7-7.6 7.7-7.6c0.5-0.6 1.3-0.9 2.1-0.9zm11.9 14v-11c0-0.9-0.7-1.7-1.7-1.7h-10.2c-0.5 0-0.9 0.2-1.2 0.5l-6.7 6.7 6.7 6.7c0.3 0.3 0.7 0.5 1.2 0.5h10.2c1 0 1.7-0.8 1.7-1.7z"/>
</svg>