<svg width="24" height="17" viewBox="0 0 24 17" fill="none" xmlns="http://www.w3.org/2000/svg">
<path d="M11.0464 6.02515C10.7535 5.73224 10.7535 5.25739 11.0464 4.96448C11.3394 4.67157 11.8142 4.67157 12.1071 4.96448L14.582 7.43939L17.0569 4.96448C17.3497 4.67157 17.8246 4.67157 18.1176 4.96448C18.4104 5.25732 18.4104 5.73224 18.1176 6.02515L15.6426 8.5L18.1176 10.9749C18.4104 11.2678 18.4104 11.7427 18.1176 12.0355C17.8246 12.3284 17.3497 12.3284 17.0569 12.0355L14.582 9.56067L12.1071 12.0355C11.8142 12.3284 11.3394 12.3284 11.0465 12.0355C10.7535 11.7426 10.7535 11.2678 11.0465 10.9749L13.5214 8.50006L11.0464 6.02515Z" fill="black"/>
<path fill-rule="evenodd" clip-rule="evenodd" d="M7.95337 0.878662L0.332031 8.5L7.95337 16.1213C8.51599 16.684 9.27905 17 10.0747 17H20.332C21.9889 17 23.332 15.6569 23.332 14V3C23.332 1.34314 21.9889 0 20.332 0H10.0747C9.27905 0 8.51599 0.316101 7.95337 0.878662ZM20.332 15.7H10.0747C9.62378 15.7 9.19141 15.5209 8.87256 15.2021L2.17053 8.5L8.87256 1.79791C9.19141 1.47913 9.62378 1.29999 10.0747 1.29999H20.332C21.2709 1.29999 22.032 2.0611 22.032 3V14C22.032 14.9389 21.2709 15.7 20.332 15.7Z" fill="black"/>
</svg>
