<svg xmlns="http://www.w3.org/2000/svg" width="36" height="36" viewBox="0 0 36 36" fill="none">
<path d="M20.0273 16.4483H28.8248C29.0426 16.4484 29.2516 16.3626 29.4065 16.2096C29.5615 16.0566 29.6499 15.8487 29.6527 15.6309V6.82814C29.6499 6.6104 29.5615 6.4025 29.4065 6.2495C29.2516 6.09651 29.0426 6.01072 28.8248 6.01074H20.0273C19.8081 6.01212 19.5984 6.09978 19.4434 6.25474C19.2884 6.4097 19.2008 6.61948 19.1994 6.83863V15.6414C19.1959 15.7516 19.2146 15.8614 19.2543 15.9643C19.2941 16.0671 19.3541 16.1609 19.4309 16.2401C19.5076 16.3193 19.5995 16.3823 19.701 16.4252C19.8026 16.4682 19.9118 16.4903 20.022 16.4903L20.0273 16.4483ZM20.8447 7.68746H27.9865V14.8135H20.8499L20.8447 7.68746Z" fill="#ffffff"/>
<path d="M15.6255 19.1992H6.82265C6.71417 19.1992 6.60678 19.2207 6.50663 19.2623C6.40648 19.304 6.31555 19.3651 6.23909 19.442C6.16263 19.5189 6.10215 19.6103 6.06112 19.7107C6.02008 19.8111 5.99933 19.9186 6.00002 20.0271L6.00002 28.8299C6.00002 29.0481 6.08669 29.2573 6.24096 29.4116C6.39524 29.5659 6.60447 29.6525 6.82265 29.6525H15.6255C15.8436 29.6525 16.0529 29.5659 16.2072 29.4116C16.3614 29.2573 16.4481 29.0481 16.4481 28.8299V20.0271C16.4495 19.9189 16.4294 19.8115 16.3889 19.7111C16.3484 19.6107 16.2885 19.5193 16.2124 19.4423C16.1364 19.3653 16.0458 19.3041 15.9459 19.2624C15.8461 19.2207 15.7389 19.1992 15.6307 19.1992H15.6255ZM14.8028 28.0177H7.64529V20.8497H14.8028V28.0177Z" fill="#ffffff"/>
<path d="M20.0274 25.251H28.8249C29.0427 25.251 29.2517 25.1652 29.4066 25.0122C29.5616 24.8592 29.65 24.6514 29.6528 24.4336V20.0322C29.6652 19.9242 29.6562 19.8148 29.6263 19.7102C29.5964 19.6057 29.5462 19.508 29.4785 19.4229C29.4109 19.3377 29.3272 19.2667 29.2321 19.214C29.137 19.1612 29.0325 19.1276 28.9245 19.1153C28.8164 19.1029 28.707 19.1119 28.6025 19.1418C28.4979 19.1717 28.4003 19.2219 28.3152 19.2895C28.23 19.3571 28.159 19.4409 28.1062 19.5359C28.0534 19.631 28.0199 19.7355 28.0075 19.8436C28.0049 19.8785 28.0049 19.9135 28.0075 19.9484V23.6162H25.2619V20.0427C25.2619 19.8231 25.1747 19.6125 25.0194 19.4573C24.8641 19.302 24.6536 19.2148 24.434 19.2148H20.0378C19.8183 19.2148 19.6077 19.302 19.4524 19.4573C19.2972 19.6125 19.21 19.8231 19.21 20.0427V24.4441C19.2113 24.6627 19.2992 24.872 19.4543 25.0261C19.6094 25.1802 19.8192 25.2667 20.0378 25.2667L20.0274 25.251ZM20.8605 20.8653H23.6114V23.6162H20.8605V20.8653Z" fill="#ffffff"/>
<path d="M24.4281 28.0176H20.0267C19.8192 28.0341 19.6255 28.1282 19.4843 28.2812C19.3431 28.4341 19.2646 28.6347 19.2646 28.8428C19.2646 29.051 19.3431 29.2516 19.4843 29.4045C19.6255 29.5574 19.8192 29.6516 20.0267 29.6681H24.4281C24.6389 29.6659 24.8409 29.5833 24.9929 29.4373C25.1449 29.2913 25.2355 29.0928 25.2462 28.8823C25.2569 28.6717 25.1869 28.4651 25.0504 28.3044C24.914 28.1437 24.7214 28.0412 24.512 28.0176H24.4281Z" fill="#ffffff"/>
<path d="M15.6254 6.01074H11.2187C11.0005 6.01074 10.7913 6.09741 10.637 6.25169C10.4828 6.40596 10.3961 6.61521 10.3961 6.83339V15.6309C10.3911 15.742 10.4087 15.8529 10.4479 15.957C10.487 16.0611 10.5468 16.1562 10.6237 16.2365C10.7006 16.3168 10.7929 16.3807 10.8952 16.4243C10.9975 16.4679 11.1075 16.4904 11.2187 16.4903H15.6254C15.8329 16.4737 16.0265 16.3796 16.1678 16.2266C16.309 16.0737 16.3874 15.8732 16.3874 15.665C16.3874 15.4568 16.309 15.2563 16.1678 15.1033C16.0265 14.9504 15.8329 14.8563 15.6254 14.8397H12.0518V12.0889H15.6254C15.7354 12.0896 15.8445 12.0683 15.9462 12.0264C16.048 11.9844 16.1403 11.9226 16.2179 11.8446C16.2955 11.7665 16.3567 11.6738 16.398 11.5718C16.4393 11.4698 16.4599 11.3605 16.4585 11.2505V6.84911C16.4571 6.62996 16.3694 6.42018 16.2145 6.26522C16.0595 6.11026 15.8498 6.0226 15.6306 6.02122L15.6254 6.01074ZM14.808 10.4226H12.0571V7.67174H14.808V10.4226Z" fill="#ffffff"/>
<path d="M6.82287 12.0467C7.04105 12.0467 7.2503 11.96 7.40458 11.8057C7.55885 11.6515 7.64552 11.4422 7.64552 11.224V6.82265C7.64552 6.71461 7.62424 6.60764 7.5829 6.50783C7.54156 6.40803 7.48096 6.31733 7.40458 6.24094C7.32819 6.16456 7.2375 6.10396 7.13769 6.06262C7.03789 6.02128 6.9309 6 6.82287 6C6.71484 6 6.60788 6.02128 6.50807 6.06262C6.40826 6.10396 6.31758 6.16456 6.24119 6.24094C6.1648 6.31733 6.1042 6.40803 6.06286 6.50783C6.02152 6.60764 6.00024 6.71461 6.00024 6.82265V11.2502C6.00024 11.4684 6.08691 11.6777 6.24119 11.8319C6.39546 11.9862 6.6047 12.0729 6.82287 12.0729" fill="#ffffff"/>
<ellipse cx="6.91696" cy="15.7143" rx="0.916958" ry="0.916958" fill="#ffffff"/>
<ellipse cx="24.5173" cy="11.3134" rx="0.916958" ry="0.916958" fill="#ffffff"/>
<ellipse cx="28.903" cy="28.9345" rx="0.916957" ry="0.916959" fill="#ffffff"/>
<ellipse cx="11.3137" cy="24.5224" rx="0.916958" ry="0.916959" fill="#ffffff"/>
</svg>