<svg version="1.2" xmlns="http://www.w3.org/2000/svg" viewBox="0 0 49 49" width="49" height="49">
	<title>icAddCard-svg</title>
	<style>
		.s0 { fill: #222220;stroke: #008859;stroke-linecap: round;stroke-dasharray: 4 } 
		.s1 { fill: #008859 } 
	</style>
	<path id="Layer" class="s0" d="m1 19c0-9.9 8.1-18 18-18h11c9.9 0 18 8.1 18 18v11c0 9.9-8.1 18-18 18h-11c-9.9 0-18-8.1-18-18z"/>
	<path id="Layer" class="s1" d="m32.9 23.9h-6.8v-6.8c0-0.3-0.1-0.6-0.3-0.8-0.2-0.2-0.5-0.3-0.8-0.3-0.3 0-0.6 0.1-0.8 0.3-0.2 0.2-0.3 0.5-0.3 0.8v6.8h-6.8c-0.3 0-0.6 0.1-0.8 0.3-0.2 0.2-0.3 0.5-0.3 0.8q0 0.2 0.1 0.4 0.1 0.2 0.2 0.4 0.2 0.1 0.4 0.2 0.2 0.1 0.4 0.1h6.8v6.8q0 0.2 0.1 0.4 0.1 0.2 0.2 0.4 0.2 0.1 0.4 0.2 0.2 0.1 0.4 0.1c0.3 0 0.6-0.1 0.8-0.3 0.2-0.2 0.3-0.5 0.3-0.8v-6.8h6.8c0.3 0 0.6-0.1 0.8-0.3 0.2-0.2 0.3-0.5 0.3-0.8 0-0.3-0.1-0.6-0.3-0.8-0.2-0.2-0.5-0.3-0.8-0.3z"/>
</svg>