<svg width="49" height="49" viewBox="0 0 49 49" fill="none" xmlns="http://www.w3.org/2000/svg">
<rect x="1" y="1" width="47" height="47" rx="18" fill="#F8F8F8" stroke="#008859" stroke-linecap="round" stroke-dasharray="4 4"/>
<path d="M32.8795 23.8795H26.1205V17.1205C26.1195 16.8236 26.0012 16.5392 25.7913 16.3292C25.5813 16.1193 25.2969 16.001 25 16C24.7031 16.001 24.4187 16.1193 24.2088 16.3292C23.9988 16.5392 23.8805 16.8236 23.8795 17.1205V23.8795H17.1205C16.8236 23.8805 16.5392 23.9988 16.3292 24.2088C16.1193 24.4187 16.001 24.7031 16 25C16 25.1471 16.0291 25.2928 16.0855 25.4286C16.1419 25.5644 16.2247 25.6878 16.3289 25.7916C16.4327 25.8958 16.5561 25.9785 16.6919 26.0349C16.8278 26.0913 16.9734 26.1204 17.1205 26.1205H23.8795V32.8807C23.8795 33.0278 23.9086 33.1735 23.965 33.3093C24.0215 33.4452 24.1042 33.5685 24.2084 33.6723C24.3122 33.7765 24.4356 33.8593 24.5714 33.9157C24.7073 33.9722 24.8529 34.0012 25 34.0012C25.2969 34.0003 25.5813 33.8819 25.7913 33.672C26.0012 33.462 26.1195 33.1776 26.1205 32.8807V26.1205H32.8795C33.1764 26.1195 33.4608 26.0012 33.6708 25.7913C33.8807 25.5813 33.999 25.2969 34 25C33.999 24.7031 33.8807 24.4187 33.6708 24.2088C33.4608 23.9988 33.1764 23.8805 32.8795 23.8795Z" fill="#008859"/>
</svg>
