<svg width="70" height="48" viewBox="0 0 70 48" fill="none" xmlns="http://www.w3.org/2000/svg">
<path d="M34.674 20.3944L30.1279 41.6672H24.6345L29.1806 20.3944H34.674ZM57.7917 34.1305L60.6892 26.144L62.3501 34.1305H57.7917ZM63.9249 41.6734H69L64.5708 20.4006H59.8771C58.8252 20.4006 57.9332 21.0106 57.5395 21.9597L49.2964 41.6734H55.0604L56.2108 38.4997H63.2605L63.9249 41.6734ZM49.5793 34.7283C49.6039 29.1081 41.8283 28.8 41.8837 26.2919C41.9021 25.5216 42.628 24.7081 44.2151 24.5048C45.0025 24.4062 47.1679 24.326 49.6347 25.4538L50.5944 20.9429C49.2779 20.4683 47.5678 20 45.4578 20C40.032 20 36.2057 22.8902 36.175 27.0375C36.138 30.1003 38.9001 31.8073 40.9855 32.8302C43.1263 33.8717 43.8399 34.5372 43.8337 35.4739C43.8153 36.8975 42.1236 37.5322 40.5426 37.5507C37.7805 37.6 36.175 36.805 34.8954 36.2134L33.8989 40.8723C35.1845 41.4639 37.5529 41.9692 40.0136 42C45.7899 42.0062 49.567 39.1468 49.5793 34.7283ZM26.8245 20.3944L17.9231 41.6672H12.1098L7.72987 24.6896C7.4592 23.642 7.23159 23.2599 6.41957 22.8162C5.10313 22.0952 2.9193 21.4235 1 21.0045L1.13534 20.3944H10.4858C11.6792 20.3944 12.7496 21.1832 13.0203 22.5636L15.3333 34.8762L21.0481 20.3944H26.8245Z" fill="white"/>
</svg>
