<svg width="148" height="46" viewBox="0 0 148 46" fill="none" xmlns="http://www.w3.org/2000/svg">
<path d="M121.461 15.5663V9.65424C121.087 9.44923 120.469 9.31825 120.001 9.31825C118.298 9.31825 117.773 10.96 117.773 12.6571V12.8434C117.773 14.5404 118.148 16.1627 119.851 16.1627C120.376 16.1627 121.125 15.8836 121.461 15.5663V15.5663ZM115.582 12.9931V12.4895C115.582 9.72909 116.649 7.54714 119.421 7.54714C120.17 7.54714 121.012 7.82619 121.461 8.16219V3.57457H123.596V17.7865H121.799L121.592 16.9087H121.499C120.844 17.5245 120.02 17.9541 119.009 17.9541C116.331 17.9541 115.582 15.1376 115.582 12.9931V12.9931ZM111.332 15.7526V13.1786L109.666 13.3282C108.711 13.4405 108.243 13.9815 108.243 14.9326C108.243 15.8462 108.673 16.3124 109.591 16.3124C110.096 16.3124 110.976 16.052 111.332 15.7526ZM106.071 15.0627C106.071 13.0484 107.25 12.1535 109.029 11.9485L111.332 11.7239V10.9405C111.332 9.65424 110.283 9.31825 109.16 9.31825C108.393 9.31825 107.606 9.48584 106.876 9.67296V8.05073C107.794 7.75216 108.879 7.54714 109.965 7.54714C112.025 7.54714 113.485 8.47947 113.485 10.55V17.7865H111.707L111.519 16.9656H111.426C110.864 17.5245 109.778 17.9541 108.86 17.9541C107.063 17.9541 106.071 16.8534 106.071 15.0627V15.0627ZM92.1776 17.7865V16.8908H92.1036C91.2982 17.5441 90.5302 17.9354 89.5376 17.9354C87.8154 17.9354 86.9538 16.9282 86.9538 15.306V7.69602H89.0886V14.6901C89.0886 15.6599 89.4262 16.1261 90.3618 16.1261C90.6986 16.1261 91.4479 15.921 92.0849 15.4915V7.69602H94.2188V17.7865H92.1776ZM72.4767 11.37V10.6988C72.4767 6.89386 73.9923 4.153 77.6248 4.153C78.5425 4.153 79.5163 4.24575 80.3404 4.58175V6.44641C79.5912 6.14783 78.7483 6.03638 77.8689 6.03638C75.5096 6.03638 74.91 8.57222 74.91 10.9226V11.1463C74.91 13.4966 75.4347 15.9772 77.7932 15.9772C78.898 15.9772 79.6286 15.6973 80.4332 15.306V17.0584C79.5912 17.6742 78.6173 17.9541 77.5125 17.9541C73.8426 17.9541 72.4767 15.0261 72.4767 11.37V11.37ZM102.195 15.5663V9.65424C101.821 9.44923 101.203 9.31825 100.735 9.31825C99.031 9.31825 98.5062 10.96 98.5062 12.6571V12.8434C98.5062 14.5404 98.8813 16.1627 100.585 16.1627C101.109 16.1627 101.858 15.8836 102.195 15.5663V15.5663ZM96.3162 12.9931V12.4895C96.3162 9.72909 97.3827 7.54714 100.155 7.54714C100.903 7.54714 101.746 7.82619 102.195 8.16219V3.57457H104.33V17.7865H102.532L102.326 16.9087H102.232C101.577 17.5245 100.753 17.9541 99.742 17.9541C97.0646 17.9541 96.3162 15.1376 96.3162 12.9931V12.9931ZM84.3513 17.7865H82.2165V7.69684H84.3513V17.7865ZM84.37 6.03638H82.2173V4.04073H84.37V6.03638ZM68.282 12.8621V12.6384C68.282 10.96 67.9452 9.31825 66.3164 9.31825C64.6869 9.31825 64.3314 10.96 64.3314 12.6384V12.8434C64.3314 14.5225 64.7056 16.1627 66.3351 16.1627C67.9639 16.1627 68.282 14.5404 68.282 12.8621V12.8621ZM62.1779 12.9931V12.4895C62.1779 9.61763 63.4511 7.54714 66.3351 7.54714C69.2184 7.54714 70.4916 9.61763 70.4916 12.4895V12.9735C70.4916 15.8462 69.2184 17.9541 66.3351 17.9541C63.4511 17.9541 62.1779 15.8649 62.1779 12.9931ZM54.5012 12.9931V12.4895C54.5012 9.61763 55.7183 7.54714 58.6398 7.54714C59.3695 7.54714 60.3059 7.71474 60.9421 7.97589V9.72909C60.362 9.46794 59.5192 9.31825 58.8269 9.31825C57.0289 9.31825 56.6921 10.8851 56.6921 12.6571V12.8247C56.6921 14.5779 57.0102 16.1627 58.7707 16.1627C59.6502 16.1627 60.3808 15.8836 61.0365 15.585V17.2081C60.362 17.6742 59.4257 17.9541 58.5462 17.9541C55.606 17.9541 54.5012 15.7526 54.5012 12.9931V12.9931ZM47.0873 7.69602V8.59174H47.1622C47.9676 7.93846 48.8283 7.54714 49.8209 7.54714C51.5431 7.54714 52.4047 8.55432 52.4047 10.1765V17.7865H50.2699V10.7924C50.2699 9.82184 49.9331 9.35567 48.9967 9.35567C48.6599 9.35567 47.8171 9.56069 47.1809 9.99024V17.7865H45.0461V7.69602H47.0873ZM40.2722 15.7526V13.1786L38.6052 13.3282C37.6501 13.4405 37.1823 13.9815 37.1823 14.9326C37.1823 15.8462 37.6135 16.3124 38.5304 16.3124C39.0364 16.3124 39.9159 16.052 40.2722 15.7526ZM35.0101 15.0627C35.0101 13.0484 36.1898 12.1535 37.969 11.9485L40.2722 11.7239V10.9405C40.2722 9.65424 39.2235 9.31825 38.1 9.31825C37.332 9.31825 36.5461 9.48584 35.8156 9.67296V8.05073C36.7332 7.75216 37.8185 7.54714 38.9046 7.54714C40.9645 7.54714 42.4249 8.47947 42.4249 10.55V17.7865H40.6464L40.4593 16.9656H40.3649C39.8036 17.5245 38.7175 17.9541 37.8006 17.9541C36.0027 17.9541 35.0101 16.8534 35.0101 15.0627V15.0627ZM30.8862 13.7765C30.8862 12.4699 30.1378 11.706 28.8084 11.706H26.8421V16.0146H28.8084C30.3062 16.0146 30.8862 15.1376 30.8862 13.7765V13.7765ZM30.4746 8.12558C30.4746 6.81983 29.8189 6.16655 28.64 6.16655H26.8421V10.1391H28.64C29.9694 10.1391 30.4746 9.31825 30.4746 8.12558V8.12558ZM28.8459 4.39544C31.5233 4.39544 32.8526 5.55069 32.8526 7.73345C32.8526 9.11323 32.4027 10.2888 31.1482 10.7176V10.8103C32.5719 11.3139 33.2643 12.2845 33.2643 14.0368C33.2643 16.8159 31.2987 17.7865 28.8833 17.7865H24.5771V4.39544H28.8459Z" fill="white"/>
<path d="M16.9604 3.46676C18.5606 5.59989 19.2001 8.58644 19.2001 12.0261C19.2001 18.8795 16.4536 24 9.60019 24C6.53391 24 4.26654 22.9863 2.74683 21.2006C5.1468 18.5337 8.58732 14.6669 10.3202 12.4533C12.0002 10.3201 14.9338 6.39961 16.9604 3.46676Z" fill="white"/>
<path d="M2.21368 20.5332C0.693146 18.374 0 15.4396 0 12.0267C0 5.14649 2.72052 -3.81228e-05 9.60073 -3.81228e-05C12.6141 -3.81228e-05 14.8807 1.01283 16.4004 2.74651C13.9207 5.49388 10.4533 9.43961 8.93362 11.3864C7.19994 13.5204 4.24023 17.6003 2.21368 20.5332Z" fill="white"/>
</svg>
