<svg width="36" height="36" viewBox="0 0 36 36" fill="none" xmlns="http://www.w3.org/2000/svg">
<path d="M27.4835 11H8.51584C7.93692 11 7.38171 11.23 6.97234 11.6393C6.56298 12.0487 6.33301 12.6039 6.33301 13.1828V25.1505C6.33301 25.7294 6.56298 26.2846 6.97234 26.694C7.38171 27.1034 7.93692 27.3333 8.51584 27.3333H27.4835C28.0624 27.3333 28.6176 27.1034 29.027 26.694C29.4364 26.2846 29.6663 25.7294 29.6663 25.1505V13.1828C29.6663 12.6039 29.4364 12.0487 29.027 11.6393C28.6176 11.23 28.0624 11 27.4835 11V11ZM27.9163 25.1505C27.9163 25.2653 27.8707 25.3754 27.7896 25.4566C27.7084 25.5377 27.5983 25.5833 27.4835 25.5833H8.51584C8.40105 25.5833 8.29095 25.5377 8.20978 25.4566C8.12861 25.3754 8.08301 25.2653 8.08301 25.1505V13.1828C8.08301 13.126 8.0942 13.0697 8.11596 13.0172C8.13771 12.9647 8.16959 12.917 8.20978 12.8768C8.24997 12.8366 8.29769 12.8047 8.3502 12.7829C8.40272 12.7612 8.459 12.75 8.51584 12.75H27.4835C27.5403 12.75 27.5966 12.7612 27.6491 12.7829C27.7017 12.8047 27.7494 12.8366 27.7896 12.8768C27.8298 12.917 27.8616 12.9647 27.8834 13.0172C27.9051 13.0697 27.9163 13.126 27.9163 13.1828V25.1505Z" fill="#121212"/>
<rect x="20.3984" y="15.5237" width="5.5256" height="1.66738" rx="0.833688" fill="#121212"/>
<rect x="20.2734" y="18.6875" width="5.5256" height="1.66738" rx="0.833688" fill="#121212"/>
<rect x="21.8516" y="21.8516" width="3.94685" height="1.66738" rx="0.833688" fill="#121212"/>
<path fill-rule="evenodd" clip-rule="evenodd" d="M17.6809 20.6076C17.337 19.8194 16.8361 19.1109 16.2094 18.5261C16.2535 18.4431 16.293 18.3576 16.3278 18.2702C16.3738 18.1517 16.4115 18.0301 16.4406 17.9063L16.4575 17.8039C16.4864 17.652 16.5015 17.4979 16.5026 17.3432C16.5026 15.9016 15.344 14.7329 13.9148 14.7329C12.4856 14.7329 11.327 15.9016 11.327 17.3432V17.3603C11.3286 17.4996 11.3418 17.6384 11.3664 17.7755C11.3721 17.801 11.3777 17.828 11.3833 17.855C11.389 17.882 11.3946 17.9091 11.4002 17.9347C11.4228 18.0257 11.451 18.1167 11.4792 18.202C11.5204 18.3144 11.5674 18.4245 11.6201 18.5318C10.9953 19.116 10.4946 19.8222 10.1486 20.6076C9.8197 21.3112 9.94682 22.1458 10.47 22.7174C12.2468 24.6322 15.2242 24.7364 17.1284 22.9506C17.165 22.9108 17.2031 22.8724 17.2411 22.8341C17.2792 22.7957 17.3173 22.7573 17.3539 22.7174C17.8812 22.1482 18.0108 21.312 17.6809 20.6076ZM13.9153 15.5632C14.754 15.5658 15.4742 16.1653 15.6359 16.9954C15.7977 17.8254 15.3559 18.6553 14.5806 18.9778C13.8053 19.3004 12.9121 19.026 12.4466 18.3222C11.9812 17.6185 12.073 16.6812 12.666 16.083C12.9974 15.7491 13.447 15.562 13.9153 15.5632ZM16.6332 22.2407C16.6626 22.2123 16.6912 22.1846 16.7173 22.1545C17.0227 21.8411 17.1012 21.3688 16.9146 20.9716C16.6314 20.3132 16.2191 19.7193 15.7025 19.2257C14.7053 20.1964 13.1252 20.1964 12.128 19.2257C11.6183 19.7174 11.2084 20.3046 10.9215 20.9546C10.7315 21.3465 10.7986 21.8157 11.0907 22.1375C12.5456 23.7042 14.9821 23.7906 16.5425 22.3308L16.5876 22.2853C16.6029 22.2699 16.6181 22.2552 16.6332 22.2407Z" fill="#121212"/>
<path d="M16.2094 18.5261L15.9624 18.3951L15.862 18.5844L16.0187 18.7305L16.2094 18.5261ZM17.6809 20.6076L17.4246 20.7194L17.4277 20.7261L17.6809 20.6076ZM16.3278 18.2702L16.5876 18.3736L16.5884 18.3714L16.3278 18.2702ZM16.4406 17.9063L16.7127 17.9701L16.7149 17.961L16.7164 17.9518L16.4406 17.9063ZM16.4575 17.8039L16.1828 17.7515L16.1816 17.7583L16.4575 17.8039ZM16.5026 17.3432L16.7821 17.3451V17.3432H16.5026ZM11.327 17.3603H11.0474L11.0474 17.3637L11.327 17.3603ZM11.3664 17.7755L11.091 17.8249L11.0934 17.8356L11.3664 17.7755ZM11.3833 17.855L11.1097 17.9122L11.1097 17.9122L11.3833 17.855ZM11.4002 17.9347L11.1271 17.9949L11.1289 18.0019L11.4002 17.9347ZM11.4792 18.202L11.2136 18.2897L11.2167 18.2982L11.4792 18.202ZM11.6201 18.5318L11.8111 18.736L11.9624 18.5945L11.8711 18.4086L11.6201 18.5318ZM10.1486 20.6076L10.402 20.726L10.4045 20.7203L10.1486 20.6076ZM10.47 22.7174L10.2638 22.9062L10.2651 22.9076L10.47 22.7174ZM17.1284 22.9506L17.3196 23.1545L17.3271 23.1475L17.3341 23.14L17.1284 22.9506ZM17.2411 22.8341L17.0426 22.6372V22.6372L17.2411 22.8341ZM17.3539 22.7174L17.1488 22.5275L17.1482 22.5281L17.3539 22.7174ZM15.6359 16.9954L15.9103 16.9419L15.6359 16.9954ZM13.9153 15.5632L13.9162 15.2836L13.916 15.2836L13.9153 15.5632ZM12.666 16.083L12.4676 15.886L12.4674 15.8862L12.666 16.083ZM16.7173 22.1545L16.5171 21.9594L16.5114 21.9652L16.5061 21.9713L16.7173 22.1545ZM16.6332 22.2407L16.8274 22.4418L16.8274 22.4418L16.6332 22.2407ZM16.9146 20.9716L16.6577 21.0821L16.6616 21.0905L16.9146 20.9716ZM15.7025 19.2257L15.8956 19.0236L15.7007 18.8373L15.5075 19.0254L15.7025 19.2257ZM12.128 19.2257L12.323 19.0254L12.1289 18.8364L11.9339 19.0245L12.128 19.2257ZM10.9215 20.9546L11.1732 21.0766L11.1773 21.0675L10.9215 20.9546ZM11.0907 22.1375L10.8836 22.3254L10.8858 22.3277L11.0907 22.1375ZM16.5425 22.3308L16.7337 22.5351L16.7411 22.5277L16.5425 22.3308ZM16.5876 22.2853L16.3891 22.0885L16.3891 22.0885L16.5876 22.2853ZM16.0187 18.7305C16.6174 19.2892 17.096 19.9661 17.4247 20.7194L17.9371 20.4958C17.578 19.6727 17.0549 18.9327 16.4001 18.3217L16.0187 18.7305ZM16.068 18.1668C16.037 18.2448 16.0018 18.321 15.9624 18.3951L16.4563 18.6572C16.5052 18.5651 16.549 18.4705 16.5875 18.3736L16.068 18.1668ZM16.1684 17.8424C16.1423 17.9535 16.1085 18.0627 16.0672 18.169L16.5884 18.3714C16.6392 18.2408 16.6807 18.1067 16.7127 17.9701L16.1684 17.8424ZM16.1816 17.7583L16.1647 17.8607L16.7164 17.9518L16.7333 17.8495L16.1816 17.7583ZM16.223 17.3413C16.2221 17.479 16.2086 17.6163 16.1828 17.7515L16.7321 17.8563C16.7642 17.6878 16.781 17.5167 16.7821 17.3451L16.223 17.3413ZM13.9148 15.0125C15.1873 15.0125 16.223 16.0537 16.223 17.3432H16.7821C16.7821 15.7495 15.5006 14.4533 13.9148 14.4533V15.0125ZM11.6065 17.3432C11.6065 16.0537 12.6422 15.0125 13.9148 15.0125V14.4533C12.3289 14.4533 11.0474 15.7495 11.0474 17.3432H11.6065ZM11.6065 17.3603V17.3432H11.0474V17.3603H11.6065ZM11.6416 17.7261C11.6197 17.6042 11.608 17.4808 11.6065 17.3569L11.0474 17.3637C11.0493 17.5183 11.0639 17.6726 11.0912 17.8248L11.6416 17.7261ZM11.657 17.7979C11.6514 17.7712 11.6455 17.7427 11.6394 17.7153L11.0934 17.8356C11.0986 17.8594 11.104 17.8848 11.1097 17.9122L11.657 17.7979ZM11.6733 17.8745C11.668 17.8507 11.6627 17.8252 11.657 17.7979L11.1097 17.9122C11.1152 17.9388 11.1212 17.9675 11.1272 17.9948L11.6733 17.8745ZM11.7446 18.1143C11.7174 18.0319 11.6917 17.9485 11.6716 17.8674L11.1289 18.0019C11.1539 18.1028 11.1846 18.2014 11.2137 18.2897L11.7446 18.1143ZM11.8711 18.4086C11.8227 18.31 11.7795 18.209 11.7417 18.1058L11.2167 18.2982C11.2612 18.4197 11.3121 18.5389 11.3692 18.655L11.8711 18.4086ZM10.4045 20.7203C10.7353 19.9694 11.2139 19.2944 11.8111 18.736L11.4292 18.3276C10.7767 18.9377 10.254 19.6751 9.89279 20.4948L10.4045 20.7203ZM10.6762 22.5287C10.2297 22.0408 10.1207 21.3275 10.4019 20.726L9.89536 20.4892C9.51868 21.295 9.66397 22.2509 10.2638 22.9062L10.6762 22.5287ZM16.9371 22.7467C15.1461 24.4264 12.3464 24.3285 10.6749 22.5273L10.2651 22.9076C12.1472 24.9358 15.3023 25.0465 17.3196 23.1545L16.9371 22.7467ZM17.0426 22.6372C17.0051 22.675 16.9634 22.717 16.9227 22.7613L17.3341 23.14C17.3666 23.1046 17.401 23.0699 17.4397 23.0309L17.0426 22.6372ZM17.1482 22.5281C17.1157 22.5635 17.0812 22.5982 17.0426 22.6372L17.4397 23.0309C17.4771 22.9931 17.5189 22.951 17.5596 22.9068L17.1482 22.5281ZM17.4277 20.7261C17.7095 21.3279 17.5985 22.0419 17.1488 22.5275L17.559 22.9074C18.1639 22.2544 18.312 21.2962 17.9341 20.489L17.4277 20.7261ZM15.9103 16.9419C15.7234 15.9824 14.89 15.2867 13.9162 15.2836L13.9145 15.8428C14.618 15.8449 15.225 16.3481 15.3615 17.0488L15.9103 16.9419ZM14.688 19.2359C15.5872 18.8618 16.0972 17.901 15.9103 16.9419L15.3615 17.0488C15.4981 17.7499 15.1247 18.4487 14.4732 18.7197L14.688 19.2359ZM12.2135 18.4765C12.7523 19.2912 13.7881 19.6103 14.688 19.2359L14.4732 18.7197C13.8226 18.9904 13.0718 18.7607 12.6798 18.168L12.2135 18.4765ZM12.4674 15.8862C11.781 16.5787 11.6751 17.6626 12.2135 18.4765L12.6798 18.168C12.2872 17.5745 12.365 16.7838 12.8645 16.2798L12.4674 15.8862ZM13.916 15.2836C13.3725 15.2823 12.8514 15.4994 12.4676 15.886L12.8644 16.2799C13.1434 15.9988 13.5214 15.8418 13.9147 15.8428L13.916 15.2836ZM16.5061 21.9713C16.4894 21.9906 16.4699 22.0097 16.4389 22.0396L16.8274 22.4418C16.8553 22.4148 16.8929 22.3787 16.9285 22.3377L16.5061 21.9713ZM16.6616 21.0905C16.7989 21.3828 16.7407 21.73 16.5171 21.9594L16.9175 22.3496C17.3047 21.9523 17.4034 21.3547 17.1677 20.8528L16.6616 21.0905ZM15.5094 19.4279C15.9987 19.8954 16.3894 20.458 16.6578 21.0821L17.1715 20.8612C16.8735 20.1683 16.4395 19.5432 15.8956 19.0236L15.5094 19.4279ZM11.933 19.4261C13.0387 20.5024 14.7918 20.5024 15.8975 19.4261L15.5075 19.0254C14.6188 19.8904 13.2117 19.8904 12.323 19.0254L11.933 19.4261ZM11.1773 21.0675C11.4496 20.4506 11.8385 19.8934 12.3221 19.427L11.9339 19.0245C11.398 19.5414 10.9673 20.1587 10.6658 20.8417L11.1773 21.0675ZM11.2977 21.9496C11.0825 21.7126 11.0327 21.366 11.1731 21.0766L10.67 20.8326C10.4303 21.3269 10.5146 21.9189 10.8836 22.3254L11.2977 21.9496ZM16.3515 22.1267C14.9043 23.4806 12.6452 23.4006 11.2955 21.9472L10.8858 22.3277C12.446 24.0078 15.0599 24.1006 16.7335 22.535L16.3515 22.1267ZM16.3891 22.0885L16.344 22.134L16.7411 22.5277L16.7862 22.4822L16.3891 22.0885ZM16.4389 22.0396C16.4242 22.0538 16.4068 22.0706 16.3891 22.0885L16.7862 22.4822C16.799 22.4693 16.8121 22.4566 16.8274 22.4418L16.4389 22.0396Z" fill="#121212"/>
</svg>
