<svg width="20" height="14" viewBox="0 0 20 14" fill="none" xmlns="http://www.w3.org/2000/svg">
<g clip-path="url(#clip0_5165_5833)">
<path d="M10 1.92968C11.6735 1.92546 13.3141 2.39428 14.7327 3.2821C16.1514 4.16991 17.2902 5.44057 18.0179 6.94757C17.2866 8.45186 16.1468 9.72009 14.7289 10.6074C13.311 11.4946 11.6721 11.9651 9.99947 11.9651C8.32684 11.9651 6.68793 11.4946 5.27002 10.6074C3.85211 9.72009 2.71238 8.45186 1.98105 6.94757C2.70886 5.44041 3.84784 4.16964 5.26665 3.28182C6.68546 2.39399 8.32631 1.92526 10 1.92968ZM10 0.105469C7.83859 0.108752 5.72833 0.763346 3.9445 1.98386C2.16066 3.20438 0.786063 4.93416 0 6.94757C0.783149 8.96301 2.15702 10.6948 3.94149 11.9158C5.72596 13.1369 7.83775 13.7902 10 13.7902C12.1622 13.7902 14.274 13.1369 16.0585 11.9158C17.843 10.6948 19.2169 8.96301 20 6.94757C19.2139 4.93416 17.8393 3.20438 16.0555 1.98386C14.2717 0.763346 12.1614 0.108752 10 0.105469ZM10 4.66652C10.4515 4.66486 10.8933 4.79722 11.2696 5.04685C11.6458 5.29648 11.9395 5.65214 12.1134 6.0688C12.2874 6.48546 12.3337 6.94437 12.2467 7.3874C12.1596 7.83044 11.943 8.23767 11.6243 8.55752C11.3057 8.87737 10.8992 9.09546 10.4565 9.18416C10.0138 9.27286 9.55476 9.22818 9.13746 9.05579C8.72016 8.88339 8.36341 8.59103 8.11239 8.21573C7.86137 7.84043 7.72737 7.39908 7.72737 6.94757C7.72681 6.64857 7.78516 6.35239 7.89907 6.07594C8.01298 5.79949 8.18023 5.54818 8.39126 5.33637C8.6023 5.12455 8.85298 4.95638 9.12901 4.84145C9.40504 4.72651 9.701 4.66707 10 4.66652ZM10 2.84231C9.18744 2.83939 8.39228 3.07768 7.71524 3.527C7.03819 3.97631 6.50972 4.61644 6.19674 5.36632C5.88376 6.1162 5.80036 6.94209 5.95709 7.7394C6.11383 8.53671 6.50365 9.26958 7.07719 9.84518C7.65073 10.4208 8.38219 10.8132 9.17893 10.9728C9.97567 11.1324 10.8019 11.052 11.5529 10.7417C12.3039 10.4315 12.9459 9.90528 13.3976 9.22986C13.8494 8.55444 14.0905 7.76015 14.0905 6.94757C14.0905 5.86134 13.66 4.81938 12.8933 4.04991C12.1266 3.28045 11.0862 2.84621 10 2.84231Z" fill="#121212"/>
</g>
<defs>
<clipPath id="clip0_5165_5833">
<rect width="20" height="13.6842" fill="white" transform="translate(0 0.105469)"/>
</clipPath>
</defs>
</svg>
