<svg width="37" height="37" viewBox="0 0 37 37" fill="none" xmlns="http://www.w3.org/2000/svg">
<g clip-path="url(#clip0_20962_6585)">
<path d="M22.179 20.5202C21.569 19.1342 20.6806 17.8884 19.569 16.8602C19.6472 16.7141 19.7173 16.5639 19.779 16.4102C19.8606 16.2018 19.9275 15.988 19.979 15.7702L20.009 15.5902C20.0604 15.3232 20.0871 15.0521 20.089 14.7802C20.089 13.5628 19.6054 12.3954 18.7446 11.5346C17.8838 10.6738 16.7163 10.1902 15.499 10.1902C14.2817 10.1902 13.1142 10.6738 12.2534 11.5346C11.3926 12.3954 10.909 13.5628 10.909 14.7802V14.8102C10.912 15.055 10.9354 15.2992 10.979 15.5402C10.999 15.6302 11.019 15.7302 11.039 15.8202C11.079 15.9802 11.129 16.1402 11.179 16.2902C11.252 16.4878 11.3355 16.6814 11.429 16.8702C10.3207 17.8975 9.43274 19.1393 8.819 20.5202C8.5338 21.125 8.43569 21.8013 8.53724 22.4623C8.63879 23.1232 8.93538 23.7388 9.389 24.2302C10.9027 25.8473 12.9956 26.7985 15.2093 26.8753C17.423 26.9522 19.5768 26.1484 21.199 24.6402C21.329 24.5002 21.469 24.3702 21.599 24.2302C22.0561 23.741 22.3557 23.1258 22.4591 22.4643C22.5625 21.8028 22.4649 21.1256 22.179 20.5202ZM15.5 11.6502C16.2214 11.6524 16.9197 11.9046 17.4762 12.3637C18.0326 12.8229 18.4127 13.4607 18.5518 14.1685C18.6909 14.8764 18.5804 15.6106 18.2392 16.2462C17.8979 16.8817 17.3469 17.3794 16.68 17.6545C16.0131 17.9295 15.2715 17.965 14.5814 17.7548C13.8913 17.5446 13.2953 17.1018 12.895 16.5017C12.4946 15.9016 12.3145 15.1813 12.3855 14.4634C12.4564 13.7455 12.7739 13.0743 13.284 12.5642C13.575 12.2735 13.9206 12.0431 14.3009 11.8863C14.6812 11.7294 15.0887 11.6492 15.5 11.6502ZM20.47 23.2402C20.4 23.3202 20.32 23.3902 20.24 23.4702L20.16 23.5502C18.8305 24.7832 17.0669 25.4396 15.2548 25.3759C13.4427 25.3122 11.7296 24.5335 10.49 23.2102C10.2369 22.9337 10.0729 22.5874 10.0194 22.2164C9.96584 21.8454 10.0253 21.4669 10.19 21.1302C10.6989 19.9874 11.4258 18.9548 12.33 18.0902C13.181 18.9114 14.3174 19.3703 15.5 19.3703C16.6826 19.3703 17.819 18.9114 18.67 18.0902C19.5864 18.9581 20.3177 20.0023 20.82 21.1602C20.9815 21.5011 21.0345 21.8834 20.9717 22.2554C20.9089 22.6274 20.7335 22.9711 20.469 23.2402H20.47Z" fill="#121212"/>
<path d="M28.2291 20.2402C27.706 19.0563 26.9472 17.9913 25.9991 17.1102L25.9891 17.1002C26.0591 16.9602 26.1291 16.8202 26.1891 16.6802C26.1891 16.6802 26.1991 16.6802 26.1891 16.6702C26.2395 16.5471 26.2797 16.42 26.3091 16.2902C26.3205 16.2614 26.3272 16.2311 26.3291 16.2002C26.3662 16.0692 26.393 15.9354 26.4091 15.8002V15.7702C26.429 15.6177 26.439 15.464 26.4391 15.3102C26.4397 14.7845 26.3342 14.2641 26.1291 13.7802C25.9796 13.4304 25.7809 13.1038 25.5391 12.8102C25.4576 12.7121 25.3708 12.6186 25.2791 12.5302C24.7015 11.9541 23.9594 11.5715 23.1551 11.4354C22.3508 11.2992 21.524 11.4162 20.7891 11.7702C21.0433 12.2057 21.2384 12.6731 21.3691 13.1602C21.7173 12.9751 22.1058 12.879 22.5001 12.8802C23.1454 12.8804 23.7643 13.1362 24.2216 13.5916C24.6788 14.047 24.9372 14.6649 24.9401 15.3102C24.9387 15.4038 24.932 15.4973 24.9201 15.5902C24.914 15.6851 24.8972 15.779 24.8701 15.8702C24.7487 16.4069 24.4475 16.886 24.0164 17.2279C23.5853 17.5699 23.0503 17.7542 22.5001 17.7502C22.4399 17.7518 22.3797 17.7485 22.3201 17.7402C22.651 18.1962 22.9452 18.6777 23.2001 19.1802C23.8909 19.0627 24.5352 18.7545 25.0601 18.2902C25.8291 19.0212 26.4444 19.8983 26.8701 20.8702C26.9902 21.1249 27.0287 21.4105 26.9804 21.6879C26.9321 21.9654 26.7992 22.2211 26.6001 22.4202C26.5401 22.4902 26.4801 22.5502 26.4201 22.6102L26.3401 22.6802C25.5514 23.4136 24.5695 23.9063 23.5101 24.1002C23.3013 24.5092 23.0353 24.8863 22.7201 25.2202C22.6001 25.3502 22.4801 25.4802 22.3501 25.6102L22.2801 25.6802C22.3531 25.6885 22.4266 25.6919 22.5001 25.6902C24.3131 25.6915 26.0584 25.0013 27.3801 23.7602C27.5041 23.6511 27.621 23.5342 27.7301 23.4102C28.1216 22.9928 28.3787 22.4674 28.4678 21.9021C28.557 21.3368 28.4741 20.7578 28.2301 20.2402H28.2291Z" fill="#121212"/>
</g>
<defs>
<clipPath id="clip0_20962_6585">
<rect width="24" height="24" fill="white" transform="translate(6.5 6.53027)"/>
</clipPath>
</defs>
</svg>
