<svg width="20" height="20" viewBox="0 0 20 20" fill="none" xmlns="http://www.w3.org/2000/svg">
<circle cx="10" cy="10" r="8" fill="#008859"/>
<path d="M9.24825 13.7999C9.50526 13.7999 9.70564 13.7085 9.84504 13.5176L13.9224 7.76051C14.027 7.61738 14.0662 7.49015 14.0662 7.3669C14.0662 7.0528 13.8135 6.82617 13.4607 6.82617C13.2167 6.82617 13.0686 6.90569 12.9205 7.12039L9.23082 12.4561L7.34024 10.2693C7.19649 10.1063 7.04838 10.0347 6.83492 10.0347C6.47772 10.0347 6.2207 10.2653 6.2207 10.5834C6.2207 10.7226 6.27298 10.8538 6.39931 10.9929L8.65581 13.5296C8.82134 13.7164 9.0043 13.7999 9.24825 13.7999Z" fill="white"/>
</svg>
