<svg version="1.2" xmlns="http://www.w3.org/2000/svg" viewBox="0 0 92 96" width="92" height="96">
	<title>icVisaCredit-svg</title>
	<style>
		.s0 { fill: #ff5f00 } 
		.s1 { fill: #eb001b } 
		.s2 { fill: #f79e1b } 
		.s3 { fill: #ffffff } 
	</style>
	<path id="Layer" class="s0" d="m58.8 36h-12.2v22h12.2z"/>
	<path id="Layer" class="s1" d="m47.3 47c0-2.1 0.5-4.2 1.5-6.1 0.9-1.9 2.2-3.6 3.9-4.9-2.1-1.6-4.6-2.6-7.2-2.9-2.6-0.3-5.2 0.2-7.6 1.3-2.4 1.2-4.4 2.9-5.8 5.2-1.4 2.2-2.1 4.8-2.1 7.4 0 2.6 0.7 5.2 2.1 7.4 1.4 2.3 3.4 4 5.8 5.2 2.4 1.1 5 1.6 7.6 1.3 2.6-0.3 5.1-1.3 7.2-2.9-1.7-1.3-3-3-3.9-4.9-1-1.9-1.5-4-1.5-6.1z"/>
	<path id="Layer" class="s2" d="m75.4 47c0 2.6-0.7 5.2-2.1 7.4-1.4 2.3-3.4 4-5.8 5.2-2.4 1.1-5 1.6-7.6 1.3-2.6-0.3-5.1-1.3-7.2-2.9 1.7-1.3 3-3 4-4.9 0.9-1.9 1.4-4 1.4-6.1 0-2.1-0.5-4.2-1.4-6.1-1-1.9-2.3-3.6-4-4.9 2.1-1.6 4.6-2.6 7.2-2.9 2.6-0.3 5.2 0.2 7.6 1.3 2.4 1.2 4.4 2.9 5.8 5.2 1.4 2.2 2.1 4.8 2.1 7.4z"/>
	<path id="Layer" fill-rule="evenodd" class="s3" d="m39.6 76.1q-1 0-1.8-0.3-0.8-0.3-1.4-0.9-0.6-0.6-0.9-1.4-0.3-0.8-0.3-1.7 0-0.9 0.3-1.7 0.3-0.8 0.9-1.4 0.6-0.6 1.4-0.9 0.8-0.3 1.8-0.3 0.6 0 1.2 0.1 0.7 0.2 1.2 0.5 0.6 0.4 0.9 0.8l-0.8 0.9q-0.5-0.6-1.1-0.9-0.7-0.3-1.4-0.3-0.7 0-1.3 0.3-0.5 0.2-1 0.6-0.4 0.5-0.6 1-0.3 0.6-0.3 1.3 0 0.7 0.3 1.2 0.2 0.6 0.6 1.1 0.5 0.4 1.1 0.6 0.5 0.3 1.2 0.3 0.7 0 1.4-0.3 0.6-0.3 1.1-0.9l0.8 0.9q-0.4 0.4-0.9 0.8-0.6 0.3-1.2 0.5-0.6 0.1-1.2 0.1zm4.4-0.1v-6.1h1.2v0.8q0.3-0.5 0.7-0.7 0.5-0.3 1-0.3 0.4 0.1 0.6 0.2v1q-0.2 0-0.3-0.1-0.2 0-0.4 0-0.5 0-0.9 0.3-0.4 0.3-0.7 0.8v4.1zm7 0.1q-0.9 0-1.6-0.4-0.7-0.4-1.1-1.2-0.5-0.7-0.5-1.6 0-0.8 0.4-1.5 0.5-0.8 1.2-1.2 0.6-0.4 1.5-0.4 0.9 0 1.5 0.4 0.7 0.4 1.1 1.2 0.4 0.7 0.4 1.6v0.3h-4.9q0.1 0.5 0.4 0.9 0.3 0.4 0.7 0.7 0.5 0.2 1 0.2 0.4 0 0.8-0.1 0.5-0.2 0.7-0.5l0.8 0.8q-0.5 0.4-1.1 0.6-0.6 0.2-1.3 0.2zm-1.9-3.7h3.6q-0.1-0.4-0.4-0.8-0.2-0.4-0.6-0.6-0.4-0.2-0.8-0.2-0.5 0-0.9 0.2-0.3 0.2-0.6 0.6-0.3 0.3-0.3 0.8zm0.9-3.6l1.1-1.5h1.5l-1.6 1.5zm7.8 7.3q-0.8 0-1.5-0.4-0.7-0.4-1.1-1.2-0.5-0.7-0.5-1.6 0-0.8 0.5-1.6 0.4-0.7 1.1-1.1 0.7-0.4 1.6-0.4 0.5 0 0.9 0.2 0.5 0.1 0.9 0.4v-2.8l1.2-0.2v8.6h-1.2v-0.6q-0.8 0.7-1.9 0.7zm0.2-1q0.5 0 0.9-0.2 0.5-0.2 0.8-0.6v-2.7q-0.3-0.4-0.8-0.6-0.4-0.2-0.9-0.2-0.6 0-1.1 0.3-0.4 0.3-0.7 0.8-0.3 0.4-0.3 1 0 0.6 0.3 1.1 0.3 0.5 0.7 0.8 0.5 0.3 1.1 0.3zm4.3 0.9v-6.1h1.2v6.1zm0.6-7.1q-0.3 0-0.5-0.2-0.2-0.2-0.2-0.5 0-0.3 0.2-0.6 0.2-0.2 0.5-0.2 0.3 0 0.5 0.2 0.3 0.3 0.3 0.6 0 0.3-0.3 0.5-0.2 0.2-0.5 0.2zm4.6 7.2q-0.8 0-1.3-0.4-0.5-0.4-0.5-1.2v-3.6h-1.3v-1h1.3v-1.6l1.2-0.3v1.9h1.8v1h-1.8v3.3q0 0.5 0.2 0.7 0.2 0.2 0.7 0.2 0.3 0 0.5-0.1 0.2 0 0.4-0.1v1q-0.3 0.1-0.6 0.2-0.3 0-0.6 0zm4.9 0q-0.9 0-1.6-0.4-0.7-0.4-1.2-1.1-0.4-0.8-0.4-1.6 0-0.9 0.4-1.7 0.5-0.7 1.2-1.1 0.7-0.4 1.6-0.4 0.9 0 1.6 0.4 0.7 0.4 1.2 1.1 0.4 0.8 0.4 1.7 0 0.8-0.4 1.6-0.5 0.7-1.2 1.1-0.7 0.4-1.6 0.4zm0-1q0.6 0 1-0.3 0.5-0.3 0.7-0.8 0.3-0.5 0.3-1.1 0-0.5-0.3-1-0.2-0.5-0.7-0.8-0.4-0.3-1-0.3-0.6 0-1 0.3-0.5 0.3-0.7 0.8-0.3 0.5-0.3 1 0 0.6 0.3 1.1 0.2 0.5 0.7 0.8 0.4 0.3 1 0.3z"/>
</svg>