<svg xmlns="http://www.w3.org/2000/svg" width="36" height="36" viewBox="0 0 36 36" fill="none">
<path fill-rule="evenodd" clip-rule="evenodd" d="M13.9126 18.2036C14.2775 17.8428 14.866 17.844 15.2285 18.206L17.1535 20.13V7.92592C17.1535 7.41486 17.5704 7 18.084 7C18.5976 7 19.0157 7.41486 19.0157 7.92592V22.3726C19.0157 22.7478 18.7885 23.0857 18.4393 23.2288C18.0913 23.3719 17.6901 23.2913 17.4242 23.0268L13.9102 19.5131C13.7301 19.3327 13.6395 19.0958 13.6395 18.8589C13.6395 18.6221 13.7301 18.384 13.9126 18.2036ZM20.0662 20.4028C19.8813 20.2224 19.7894 19.9843 19.7894 19.745C19.7894 19.5105 19.8789 19.2749 20.0589 19.0933L20.9374 18.2082C21.2987 17.8451 21.8872 17.8415 22.2534 18.201C22.6195 18.5594 22.622 19.145 22.2606 19.5105L21.3809 20.3968C21.0208 20.7599 20.4311 20.7635 20.0662 20.4028ZM12.3043 28.9922C12.3043 28.4584 11.8874 28.025 11.3738 28.025C9.43672 28.025 7.86095 26.3869 7.86095 24.3732V18.2504C7.86095 16.2455 9.43188 14.6124 11.3617 14.6124H12.4988C13.0124 14.6124 13.4293 14.179 13.4293 13.6451C13.4293 13.1112 13.0124 12.6778 12.4988 12.6778H11.3617C8.40473 12.6778 6 15.1777 6 18.2504V24.3732C6 27.4534 8.41078 29.9595 11.3738 29.9595C11.8874 29.9595 12.3043 29.5261 12.3043 28.9922ZM30.1684 18.2634V24.3862C30.1684 27.4589 27.7637 29.96 24.8067 29.96H15.6059C15.0923 29.96 14.6766 29.5253 14.6766 28.9927C14.6766 28.4576 15.0923 28.0242 15.6059 28.0242H24.8067C26.7365 28.0242 28.3075 26.3924 28.3075 24.3862V18.2634C28.3075 16.2497 26.7317 14.6116 24.7946 14.6116H23.6696C23.156 14.6116 22.7403 14.1795 22.7403 13.6443C22.7403 13.1105 23.156 12.6771 23.6696 12.6771H24.7946C27.7576 12.6771 30.1684 15.1832 30.1684 18.2634Z" fill="#ffffff"/>
</svg>