<svg width="13" height="19" viewBox="0 0 13 19" fill="none" xmlns="http://www.w3.org/2000/svg">
<path d="M11.7211 6.06623L6.88979 1.2119C6.65896 0.993007 6.35371 0.871094 6.03647 0.871094C5.71923 0.871094 5.41398 0.993007 5.18316 1.2119L0.351868 6.06623C0.148081 6.2982 0.0399113 6.59959 0.049404 6.90899C0.0588967 7.21839 0.185338 7.5125 0.402956 7.73138C0.620575 7.95027 0.91299 8.07744 1.2206 8.08699C1.52822 8.09654 1.82787 7.98774 2.05849 7.78277L4.82989 5.00028V13.4128C4.81929 13.5787 4.84264 13.7451 4.89848 13.9016C4.95432 14.0581 5.04147 14.2014 5.15455 14.3227C5.26763 14.4439 5.40424 14.5406 5.55592 14.6067C5.70761 14.6728 5.87117 14.7069 6.03647 14.7069C6.20178 14.7069 6.36533 14.6728 6.51702 14.6067C6.66871 14.5406 6.80531 14.4439 6.91839 14.3227C7.03147 14.2014 7.11863 14.0581 7.17447 13.9016C7.23031 13.7451 7.25365 13.5787 7.24305 13.4128V5.00028L10.0095 7.78277C10.238 7.99993 10.5417 8.11901 10.8561 8.11474C11.1705 8.11047 11.4708 7.9832 11.6935 7.75992C11.9161 7.53663 12.0435 7.2349 12.0487 6.91871C12.0538 6.60252 11.9363 6.29674 11.7211 6.06623Z" fill="white"/>
<path d="M7.14977 17.0914C7.11823 17.0205 7.08165 16.9519 7.04031 16.8862C6.99715 16.818 6.9453 16.7558 6.88606 16.7011C6.83235 16.6427 6.77227 16.5907 6.70694 16.5459C6.63939 16.5053 6.56962 16.4686 6.49797 16.4358C6.42416 16.405 6.34749 16.3815 6.26909 16.3658C6.11294 16.3358 5.95256 16.3358 5.79641 16.3658C5.71982 16.3822 5.64487 16.4057 5.57251 16.4358C5.49986 16.4665 5.42995 16.5033 5.36353 16.5459C5.29662 16.5906 5.23488 16.6426 5.17944 16.7011C5.12317 16.7572 5.07312 16.8193 5.03017 16.8862C4.98694 16.9508 4.95027 17.0195 4.92071 17.0914C4.89001 17.1657 4.86668 17.2428 4.85105 17.3216C4.83547 17.3974 4.82714 17.4745 4.82617 17.5518C4.8267 17.7117 4.85883 17.87 4.92071 18.0173C4.94919 18.0912 4.98591 18.1618 5.03017 18.2274C5.11684 18.3614 5.23039 18.4756 5.36353 18.5627C5.42884 18.6073 5.49894 18.6442 5.57251 18.6728C5.71896 18.7351 5.87625 18.7674 6.03524 18.7679C6.11301 18.7756 6.19133 18.7756 6.26909 18.7679C6.34749 18.7522 6.42416 18.7287 6.49797 18.6979C6.56946 18.6681 6.63781 18.6312 6.70197 18.5878C6.76855 18.5446 6.83028 18.4942 6.88606 18.4376C6.94416 18.3819 6.9959 18.3198 7.04031 18.2525C7.08268 18.1857 7.1193 18.1153 7.14977 18.0423C7.21302 17.8956 7.24359 17.7367 7.23933 17.5769C7.24692 17.4986 7.24692 17.4199 7.23933 17.3416C7.21862 17.2552 7.18859 17.1713 7.14977 17.0914Z" fill="white"/>
</svg>
