<svg width="27" height="28" viewBox="0 0 27 28" fill="none" xmlns="http://www.w3.org/2000/svg">
<path d="M25.0641 14.2587C24.883 13.9804 24.883 13.621 25.0641 13.3427L26.0716 11.794C26.9894 10.3834 26.371 8.48826 24.8024 7.88781L23.077 7.22717C22.767 7.1084 22.5556 6.81758 22.5386 6.48602L22.4434 4.64097C22.3568 2.9606 20.7426 1.79031 19.1205 2.22678L17.3364 2.70647C17.0159 2.79258 16.6738 2.68152 16.4652 2.42336L15.3037 0.986493C14.2459 -0.322069 12.2524 -0.319968 11.1963 0.986493L10.0348 2.42341C9.82614 2.68163 9.48423 2.79258 9.16361 2.70653L7.3794 2.22684C5.75404 1.78971 4.14286 2.96389 4.05643 4.64103L3.96132 6.48608C3.94418 6.81758 3.73289 7.10846 3.42289 7.22717L1.69757 7.88781C0.125672 8.4895 -0.487764 10.3862 0.428241 11.7941L1.43585 13.3427C1.61685 13.6209 1.61685 13.9805 1.43585 14.2587L0.428402 15.8073C-0.489488 17.2181 0.129121 19.1133 1.69763 19.7136L3.42305 20.3742C3.73306 20.493 3.9444 20.7838 3.96148 21.1154L4.05659 22.9604C4.14323 24.6411 5.75765 25.8109 7.37956 25.3746L9.16367 24.8949C9.48434 24.8089 9.82619 24.9199 10.0349 25.178L11.1964 26.6148C12.2544 27.9238 14.2478 27.9211 15.3037 26.6148L16.4652 25.178C16.6739 24.9199 17.016 24.809 17.3364 24.8949L19.1206 25.3746C20.7456 25.8119 22.3571 24.6378 22.4436 22.9604L22.5387 21.1154C22.5558 20.7839 22.7671 20.493 23.0771 20.3743L24.8025 19.7136C26.3743 19.1119 26.9877 17.2153 26.0718 15.8073L25.0641 14.2587ZM24.1585 18.0318L22.433 18.6924C21.4583 19.0656 20.7938 19.9803 20.7401 21.0226L20.6449 22.8676C20.6174 23.4022 20.1042 23.774 19.5881 23.6354L17.8039 23.1558C16.796 22.8846 15.7207 23.2342 15.0646 24.0458L13.9032 25.4827C13.5667 25.8989 12.9328 25.8981 12.5969 25.4827L11.4355 24.0458C10.9269 23.4167 10.1665 23.0652 9.38072 23.0652C9.15283 23.0652 8.92274 23.0948 8.69605 23.1558L6.91183 23.6354C6.39474 23.7743 5.88261 23.4012 5.85502 22.8676L5.75992 21.0226C5.70619 19.9803 5.04162 19.0656 4.06693 18.6924L2.34151 18.0317C1.84161 17.8403 1.6466 17.2372 1.93791 16.7895L2.94546 15.2408C3.51466 14.366 3.51466 13.2353 2.94546 12.3605L1.93791 10.8119C1.64595 10.3633 1.84263 9.76066 2.34156 9.56964L4.06699 8.909C5.04173 8.53578 5.70625 7.62113 5.75997 6.57881L5.85508 4.73377C5.88261 4.19916 6.39588 3.82735 6.91189 3.96595L8.6961 4.44564C9.70403 4.71674 10.7793 4.36723 11.4354 3.55555L12.5969 2.11869C12.9335 1.70247 13.5674 1.70334 13.9032 2.11869L15.0647 3.55561C15.7209 4.36729 16.796 4.71679 17.804 4.44564L19.5882 3.96595C20.1053 3.82708 20.6175 4.20024 20.6451 4.73377L20.7401 6.57881C20.7938 7.62113 21.4584 8.53584 22.433 8.909L24.1585 9.56969C24.6584 9.76099 24.8534 10.3642 24.5621 10.8119L23.5546 12.3605C22.9853 13.2353 22.9853 14.366 23.5546 15.2408L24.5621 16.7894C24.854 17.2382 24.6574 17.8407 24.1585 18.0318Z" fill="#121212"/>
<path d="M17.7486 9.21195C17.397 8.86034 16.8268 8.86034 16.4752 9.21195L8.07083 17.6163C7.71922 17.9679 7.71922 18.5381 8.07088 18.8897C8.24671 19.0656 8.47718 19.1535 8.70759 19.1535C8.93801 19.1535 9.16853 19.0656 9.34431 18.8897L17.7487 10.4853C18.1003 10.1338 18.1003 9.5636 17.7486 9.21195Z" fill="#121212"/>
<path d="M9.30713 8.94824C8.48 8.94824 7.80713 9.62116 7.80713 10.4482C7.80713 11.2754 8.48009 11.9482 9.30713 11.9482C10.1343 11.9482 10.8071 11.2753 10.8071 10.4482C10.8072 9.62116 10.1343 8.94824 9.30713 8.94824Z" fill="#121212"/>
<path d="M15.9106 16.5508C15.0835 16.5508 14.4106 17.2237 14.4106 18.0508C14.4106 18.8779 15.0836 19.5508 15.9106 19.5508C16.7377 19.5508 17.4106 18.8779 17.4106 18.0508C17.4107 17.2237 16.7378 16.5508 15.9106 16.5508Z" fill="#121212"/>
</svg>
