<svg width="36" height="36" viewBox="0 0 36 36" fill="none" xmlns="http://www.w3.org/2000/svg">
<path fill-rule="evenodd" clip-rule="evenodd" d="M7 18.5C7 12.1487 12.1487 7 18.5 7C21.55 7 24.4751 8.2116 26.6317 10.3683C28.7884 12.5249 30 15.45 30 18.5C30 24.8513 24.8513 30 18.5 30C12.1487 30 7 24.8513 7 18.5ZM8.72525 18.501C8.72525 23.8996 13.1017 28.276 18.5002 28.276C21.0927 28.276 23.579 27.2461 25.4122 25.413C27.2454 23.5798 28.2752 21.0935 28.2752 18.501C28.2752 13.1024 23.8988 8.726 18.5002 8.726C13.1017 8.726 8.72525 13.1024 8.72525 18.501Z" fill="#121212"/>
<path fill-rule="evenodd" clip-rule="evenodd" d="M15.9198 14.5478L22.2356 18.0208H22.2344C22.4131 18.1145 22.5251 18.2997 22.5251 18.5015C22.5251 18.7033 22.4131 18.8885 22.2344 18.9822L15.9186 22.4517C15.8317 22.4999 15.7339 22.5252 15.6346 22.5253C15.323 22.5305 15.0659 22.2826 15.0596 21.971V15.0285C15.0659 14.7169 15.323 14.4691 15.6346 14.4742C15.7343 14.4742 15.8325 14.4995 15.9198 14.5478ZM16.7842 16.9926V20.0091L19.527 18.5003L16.7842 16.9926Z" fill="#121212"/>
</svg>
