<svg version="1.2" xmlns="http://www.w3.org/2000/svg" viewBox="0 0 92 96" width="92" height="96">
	<title>icVisaCredit-svg</title>
	<style>
		.s0 { fill: #ffffff } 
	</style>
	<path id="Layer" fill-rule="evenodd" class="s0" d="m40.7 35.4l-4.6 21.3h-5.5l4.6-21.3zm28.6 18.1h-7.1l-1.1 3.2h-5.8l8.2-19.7c0.4-1 1.3-1.6 2.4-1.6h4.7l4.4 21.3h-5.1zm-0.9-4.4l-1.6-8-2.9 8zm-22.4 7.9c-2.4-0.1-4.8-0.6-6.1-1.2l1-4.6c1.3 0.6 2.9 1.4 5.7 1.3 1.5 0 3.2-0.6 3.2-2.1 0.1-0.9-0.7-1.6-2.8-2.6-2.1-1-4.8-2.7-4.8-5.8 0-4.1 3.8-7 9.3-7 2.1 0 3.8 0.4 5.1 0.9l-1 4.5c-2.4-1.1-4.6-1-5.4-0.9-1.6 0.2-2.3 1-2.3 1.8-0.1 2.5 7.7 2.8 7.7 8.4 0 4.4-3.8 7.3-9.6 7.3zm-13.2-21.6l-8.9 21.2h-5.8l-4.4-16.9c-0.2-1.1-0.5-1.5-1.3-1.9-1.3-0.7-3.5-1.4-5.4-1.8l0.1-0.6h9.4c1.2 0 2.3 0.8 2.5 2.1l2.3 12.3 5.8-14.4z"/>
	<path id="Débito" fill-rule="evenodd" class="s0" d="m35.7 75.4v-8.9h2.5q2.6 0 3.8 1.1 1.2 1.1 1.2 3.4 0 2.3-1.2 3.4-1.3 1.1-3.8 1.1zm2.7-8h-1.5v7h1.4q1.9 0 2.7-0.9 0.9-0.8 0.9-2.6 0-1.8-0.8-2.6-0.9-0.9-2.7-0.9zm12.4 4.4v0.5h-5.1q0.1 1.1 0.7 1.7 0.6 0.6 1.7 0.6 0.7 0 1.3-0.1 0.5-0.2 1.1-0.5v1.1q-0.6 0.2-1.2 0.3-0.6 0.2-1.2 0.2-1.6 0-2.6-1-0.9-0.9-0.9-2.5 0-1.7 0.9-2.6 0.9-1 2.4-1 1.3 0 2.1 0.9 0.8 0.9 0.8 2.4zm-5-0.4h3.9q0-0.9-0.5-1.4-0.5-0.5-1.3-0.5-0.9 0-1.5 0.5-0.5 0.5-0.6 1.4zm1.2-3.6l1.7-2.2h1.1l-1.9 2.2zm6.7-1.7v3.6q0.3-0.6 0.9-0.9 0.5-0.3 1.2-0.3 1.3 0.1 2 1 0.8 1 0.8 2.6 0 1.6-0.8 2.5-0.8 1-2 1-0.7 0-1.2-0.3-0.6-0.3-0.9-0.9v1h-1.1v-9.3zm3.7 6q0-1.2-0.5-1.9-0.5-0.7-1.3-0.7-0.9 0-1.4 0.7-0.5 0.6-0.5 1.9 0 1.2 0.5 1.9 0.5 0.7 1.3 0.7 0.9 0 1.4-0.7 0.5-0.7 0.5-1.9zm3 3.3v-6.7h1.1v6.7zm0-7.9v-1.4h1.1v1.4zm3.4-0.7h1.1v1.9h2.3v0.9h-2.3v3.6q0 0.9 0.2 1.1 0.2 0.2 0.9 0.2h1.2v0.9h-1.2q-1.2 0-1.7-0.4-0.5-0.5-0.5-1.8v-3.6h-0.8v-0.9h0.8zm7.4 1.8q1.5 0 2.3 0.9 0.8 1 0.8 2.6 0 1.7-0.8 2.6-0.9 0.9-2.3 0.9-1.4 0-2.3-0.9-0.8-0.9-0.8-2.6 0-1.6 0.9-2.6 0.8-0.9 2.2-0.9zm0 0.9q-0.9 0-1.4 0.7-0.5 0.7-0.5 1.9 0 1.2 0.5 1.9 0.5 0.7 1.4 0.7 0.9 0 1.4-0.7 0.5-0.7 0.5-1.9 0-1.2-0.5-1.9-0.5-0.7-1.4-0.7z"/>
</svg>