<svg width="26" height="25" viewBox="0 0 26 25" fill="none" xmlns="http://www.w3.org/2000/svg">
<path d="M14.8706 18.3857H11.33C11.075 18.4028 10.836 18.5161 10.6614 18.7027C10.4868 18.8893 10.3896 19.1353 10.3896 19.3909C10.3896 19.6465 10.4868 19.8925 10.6614 20.0792C10.836 20.2658 11.075 20.3791 11.33 20.3961H14.8706C15.1257 20.3791 15.3647 20.2658 15.5393 20.0792C15.7139 19.8925 15.811 19.6465 15.811 19.3909C15.811 19.1353 15.7139 18.8893 15.5393 18.7027C15.3647 18.5161 15.1257 18.4028 14.8706 18.3857Z" fill="#008859"/>
<path fill-rule="evenodd" clip-rule="evenodd" d="M9.46323 1.20807C11.5797 -0.424352 14.5398 -0.39117 16.6191 1.28828L18.731 2.99407V1.57292C18.731 1.02007 19.1792 0.571897 19.732 0.571897C20.2849 0.571897 20.7331 1.02007 20.7331 1.57292V4.767C20.7331 5.73801 19.6077 6.27567 18.8523 5.66554L15.3611 2.84576C14.0026 1.74852 12.0687 1.72684 10.686 2.79336L4.22051 7.78016C3.20609 8.56259 2.61192 9.77125 2.61192 11.0524V21.3624C2.61192 22.2555 3.33589 22.9795 4.22896 22.9795H21.9908C22.8838 22.9795 23.6078 22.2555 23.6078 21.3624V12.0059C23.6078 11.453 24.056 11.0048 24.6088 11.0048C25.1617 11.0048 25.6099 11.453 25.6099 12.0059V21.3624C25.6099 23.3612 23.9895 24.9815 21.9908 24.9815H4.22896C2.23019 24.9815 0.609863 23.3612 0.609863 21.3624V11.0524C0.609863 9.15059 1.4919 7.35636 2.99778 6.19488L9.46323 1.20807Z" fill="#008859"/>
<path d="M22.6187 9.24314C22.7874 9.24647 22.9549 9.21415 23.1102 9.14829C23.269 9.08202 23.4128 8.98424 23.5328 8.86086C23.6539 8.74101 23.7499 8.59816 23.815 8.44071C23.8802 8.28325 23.9132 8.11436 23.9122 7.94396C23.9133 7.85989 23.9046 7.77597 23.8863 7.6939C23.8685 7.61014 23.8455 7.52758 23.8173 7.44671C23.7803 7.36882 23.739 7.29301 23.6937 7.21964C23.6448 7.15256 23.591 7.08916 23.5328 7.02994C23.2895 6.78941 22.9608 6.65506 22.6187 6.65628C22.2772 6.65385 21.9482 6.78483 21.7018 7.02132C21.642 7.08582 21.5863 7.15398 21.5351 7.22539C21.4912 7.29321 21.4546 7.36547 21.4258 7.44096C21.3896 7.51974 21.3635 7.6028 21.3482 7.68815C21.33 7.77023 21.3213 7.85414 21.3224 7.93822C21.322 8.10852 21.3553 8.27722 21.4204 8.43459C21.4855 8.59195 21.5812 8.73488 21.7018 8.85511C21.8208 8.97793 21.9633 9.07557 22.1208 9.14223C22.2784 9.20889 22.4477 9.24321 22.6187 9.24314Z" fill="#008859"/>
</svg>
