<svg width="20" height="18" viewBox="0 0 20 18" fill="none" xmlns="http://www.w3.org/2000/svg">
<g clip-path="url(#clip0_5165_11495)">
<path d="M10 3.92968C11.6735 3.92546 13.3141 4.39428 14.7327 5.2821C16.1514 6.16991 17.2902 7.44057 18.0179 8.94757C17.2866 10.4519 16.1468 11.7201 14.7289 12.6074C13.311 13.4946 11.6721 13.9651 9.99947 13.9651C8.32684 13.9651 6.68793 13.4946 5.27002 12.6074C3.85211 11.7201 2.71238 10.4519 1.98105 8.94757C2.70886 7.44041 3.84784 6.16964 5.26665 5.28182C6.68546 4.39399 8.32631 3.92526 10 3.92968ZM10 2.10547C7.83859 2.10875 5.72833 2.76335 3.9445 3.98386C2.16066 5.20438 0.786063 6.93416 0 8.94757C0.783149 10.963 2.15702 12.6948 3.94149 13.9158C5.72596 15.1369 7.83775 15.7902 10 15.7902C12.1622 15.7902 14.274 15.1369 16.0585 13.9158C17.843 12.6948 19.2169 10.963 20 8.94757C19.2139 6.93416 17.8393 5.20438 16.0555 3.98386C14.2717 2.76335 12.1614 2.10875 10 2.10547ZM10 6.66652C10.4515 6.66486 10.8933 6.79722 11.2696 7.04685C11.6458 7.29648 11.9395 7.65214 12.1134 8.0688C12.2874 8.48546 12.3337 8.94437 12.2467 9.3874C12.1596 9.83044 11.943 10.2377 11.6243 10.5575C11.3057 10.8774 10.8992 11.0955 10.4565 11.1842C10.0138 11.2729 9.55476 11.2282 9.13746 11.0558C8.72016 10.8834 8.36341 10.591 8.11239 10.2157C7.86137 9.84043 7.72737 9.39908 7.72737 8.94757C7.72681 8.64857 7.78516 8.35239 7.89907 8.07594C8.01298 7.79949 8.18023 7.54818 8.39126 7.33637C8.6023 7.12455 8.85298 6.95638 9.12901 6.84145C9.40504 6.72651 9.701 6.66707 10 6.66652ZM10 4.84231C9.18744 4.83939 8.39228 5.07768 7.71524 5.527C7.03819 5.97631 6.50972 6.61644 6.19674 7.36632C5.88376 8.1162 5.80036 8.94209 5.95709 9.7394C6.11383 10.5367 6.50365 11.2696 7.07719 11.8452C7.65073 12.4208 8.38219 12.8132 9.17893 12.9728C9.97567 13.1324 10.8019 13.052 11.5529 12.7417C12.3039 12.4315 12.9459 11.9053 13.3976 11.2299C13.8494 10.5544 14.0905 9.76015 14.0905 8.94757C14.0905 7.86134 13.66 6.81938 12.8933 6.04991C12.1266 5.28045 11.0862 4.84621 10 4.84231Z" fill="#121212"/>
</g>
<rect x="17.4297" width="2.10526" height="23.1579" rx="1.05263" transform="rotate(45 17.4297 0)" fill="#121212"/>
<defs>
<clipPath id="clip0_5165_11495">
<rect width="20" height="13.6842" fill="white" transform="translate(0 2.10547)"/>
</clipPath>
</defs>
</svg>
