<svg version="1.2" xmlns="http://www.w3.org/2000/svg" viewBox="0 0 26 26" width="26" height="26">
	<title>face-id-svg</title>
	<style>
		.s0 { fill: #0669fd } 
	</style>
	<path id="Layer" class="s0" d="m2.9 9.1c0.6 0 0.9-0.3 0.9-0.9v-2.6c0-1.2 0.6-1.8 1.8-1.8h2.7c0.6 0 0.9-0.3 0.9-0.9 0-0.6-0.3-0.9-0.9-0.9h-2.8q-3.5 0-3.5 3.5v2.7c0 0.6 0.3 0.9 0.9 0.9zm20.2 0c0.6 0 0.9-0.3 0.9-0.9v-2.7q0-3.5-3.5-3.5h-2.8c-0.6 0-0.9 0.3-0.9 0.9 0 0.6 0.3 0.9 0.9 0.9h2.7c1.2 0 1.8 0.6 1.8 1.8v2.6c0 0.6 0.3 0.9 0.9 0.9zm-11 5.8h0.1c1.1 0 1.7-0.6 1.7-1.8v-3.5c0-0.4-0.2-0.7-0.7-0.7-0.4 0-0.7 0.3-0.7 0.7v3.6q0 0.2-0.2 0.2h-0.4c-0.4 0-0.7 0.3-0.7 0.7 0 0.5 0.3 0.8 0.9 0.8zm-3.4-2.7c0.5 0 0.9-0.3 0.9-0.9v-1.5c0-0.5-0.4-0.9-0.9-0.9-0.5 0-0.9 0.4-0.9 0.9v1.5c0 0.6 0.4 0.9 0.9 0.9zm8.5 0c0.6 0 0.9-0.3 0.9-0.9v-1.5c0-0.5-0.3-0.9-0.9-0.9-0.5 0-0.9 0.4-0.9 0.9v1.5c0 0.6 0.4 0.9 0.9 0.9zm-4.3 6.5c1.4 0 2.8-0.6 3.7-1.6q0.2-0.2 0.2-0.5c0-0.5-0.3-0.8-0.7-0.8-0.2 0-0.4 0.1-0.6 0.3-0.6 0.7-1.6 1.1-2.6 1.1-0.9 0-1.9-0.4-2.6-1.1-0.1-0.1-0.3-0.3-0.5-0.3-0.5 0-0.8 0.3-0.8 0.8q0 0.3 0.2 0.5c0.9 1 2.4 1.6 3.7 1.6zm-7.4 5.3h2.8c0.6 0 0.9-0.3 0.9-0.9 0-0.6-0.3-0.9-0.9-0.9h-2.7c-1.2 0-1.8-0.6-1.8-1.8v-2.6c0-0.6-0.3-1-0.9-1-0.6 0-0.9 0.4-0.9 1v2.7q0 3.5 3.5 3.5zm12.2 0h2.8q3.5 0 3.5-3.5v-2.7c0-0.6-0.3-1-0.9-1-0.6 0-0.9 0.4-0.9 1v2.6c0 1.2-0.6 1.8-1.8 1.8h-2.7c-0.6 0-0.9 0.3-0.9 0.9 0 0.6 0.3 0.9 0.9 0.9z"/>
</svg>