<svg width="36" height="36" viewBox="0 0 36 36" fill="none" xmlns="http://www.w3.org/2000/svg">
<g clip-path="url(#clip0_424_1717)">
<path d="M18.0004 30C20.7767 30.0001 23.4671 29.0376 25.6133 27.2765C27.7594 25.5153 29.2285 23.0645 29.7703 20.3416C30.312 17.6187 29.8929 14.7922 28.5842 12.3437C27.2756 9.89517 25.1585 7.97617 22.5936 6.91363C20.0287 5.85109 17.1747 5.71078 14.518 6.51658C11.8612 7.32239 9.56606 9.02447 8.02356 11.3328C6.48107 13.6411 5.78667 16.4129 6.0587 19.1758C6.33073 21.9387 7.55234 24.5218 9.51539 26.485C11.7657 28.7355 14.8179 29.9999 18.0004 30V30ZM18.0004 7.8C20.3602 7.79977 22.6471 8.6178 24.4715 10.1147C26.2958 11.6116 27.5446 13.6947 28.0052 16.0092C28.4658 18.3236 28.1096 20.7262 26.9974 22.8075C25.8851 24.8888 24.0856 26.52 21.9055 27.4233C19.7254 28.3265 17.2995 28.4459 15.0412 27.761C12.783 27.0762 10.832 25.6295 9.52081 23.6675C8.2096 21.7054 7.61928 19.3494 7.85042 17.001C8.08155 14.6525 9.11985 12.4568 10.7884 10.788C12.7011 8.87507 15.2953 7.80026 18.0004 7.8V7.8Z" fill="#121212"/>
<path d="M16.9116 19.8698C16.9116 20.3193 17.276 20.6838 17.7256 20.6838L17.9349 20.6838C18.2688 20.6838 18.5395 20.413 18.5395 20.0791V20.0791C18.5395 19.1024 18.8744 18.5814 20.0558 17.8838C21.2465 17.1675 22 16.1349 22 14.6838L22 14.6651C22 12.7582 20.4 11.307 18.0558 11.307C15.4419 11.307 14.1023 12.907 14 14.907V14.907C14 14.9173 14.0083 14.9256 14.0186 14.9255L15.5754 14.9163C15.5793 14.9163 15.5832 14.9154 15.5868 14.9136V14.9136C15.595 14.9095 15.6004 14.9013 15.6011 14.8921C15.6997 13.5799 16.5913 12.7582 17.9907 12.7582C19.3767 12.7582 20.2698 13.6047 20.2698 14.7489L20.2698 14.7675C20.2698 15.7535 19.8512 16.3396 18.7721 17C17.4977 17.7628 16.9023 18.6 16.9116 19.8279L16.9116 19.8698ZM17.8512 25C18.6046 25 19.1349 24.4605 19.1349 23.707C19.1349 22.9442 18.6046 22.4047 17.8512 22.4047C17.0977 22.4047 16.5581 22.9442 16.5581 23.707C16.5581 24.4605 17.0977 25 17.8512 25Z" fill="#121212"/>
</g>
<defs>
<clipPath id="clip0_424_1717">
<rect width="24" height="24" fill="white" transform="translate(30 30) rotate(180)"/>
</clipPath>
</defs>
</svg>
