<svg width="148" height="46" viewBox="0 0 148 46" fill="none" xmlns="http://www.w3.org/2000/svg">
<path fill-rule="evenodd" clip-rule="evenodd" d="M12.2528 9.31192V11.5927H11.121V11.4684C11.121 10.9182 10.9807 10.5138 10.701 10.2594C10.4209 10.0031 9.97698 9.87592 9.3688 9.87592C8.48293 9.87592 7.79751 10.1722 7.31498 10.7672C6.83245 11.3621 6.59093 12.2062 6.59093 13.2999C6.59093 14.3841 6.83929 15.2354 7.33649 15.8494C7.83369 16.4653 8.51667 16.773 9.38347 16.773C10.0058 16.773 10.4527 16.632 10.7255 16.35C11.0007 16.068 11.1356 15.6022 11.1356 14.9553H12.2532V17.3799C11.7296 17.5347 11.2056 17.6524 10.6844 17.73C10.1608 17.8077 9.63475 17.8477 9.10578 17.8477C7.6264 17.8477 6.49462 17.4552 5.70996 16.672C4.92529 15.8889 4.53223 14.76 4.53223 13.2857C4.53223 11.8723 4.94485 10.7696 5.77058 9.98167C6.59338 9.19379 7.75205 8.80127 9.2412 8.80127C9.67582 8.80127 10.1417 8.84367 10.6409 8.92846C11.1405 9.01325 11.6788 9.14281 12.2528 9.31192ZM16.4958 10.0412V12.9079H17.1592C17.8134 12.9079 18.2837 12.7998 18.5687 12.5811C18.8537 12.3625 18.996 12.0052 18.996 11.5089C18.996 10.9892 18.8586 10.6157 18.5858 10.3875C18.313 10.157 17.8618 10.0417 17.2316 10.0417H16.4958V10.0412V10.0412ZM13.4549 9.00134H17.1328C18.4504 9.00134 19.4018 9.18474 19.9806 9.54915C20.5599 9.91356 20.8494 10.5066 20.8494 11.3226C20.8494 11.8514 20.7169 12.2844 20.4485 12.6254C20.183 12.9665 19.7948 13.1942 19.2854 13.3142C19.6355 13.3638 19.8985 13.4786 20.075 13.6601C20.251 13.8387 20.4128 14.1941 20.5599 14.7276C20.5961 14.8595 20.6445 15.0477 20.6998 15.2849C20.8714 15.9647 21.0205 16.381 21.1535 16.5339C21.262 16.6563 21.3896 16.7478 21.5421 16.8088C21.6942 16.8678 21.8726 16.8983 22.0804 16.8983H22.1503V17.6481H19.4907C19.2781 17.1846 19.0996 16.6063 18.95 15.9127C18.8029 15.2187 18.6963 14.7862 18.6362 14.6171C18.5369 14.3417 18.3731 14.1398 18.1414 14.015C17.9121 13.8878 17.5934 13.8244 17.1881 13.8244H16.4953V15.7879C16.4953 16.2114 16.5628 16.5006 16.7002 16.6606C16.838 16.8183 17.0771 16.8983 17.4223 16.8983H17.6056V17.6481C17.3641 17.6386 17.1015 17.6319 16.8141 17.6271C16.5271 17.6224 16.1023 17.6195 15.54 17.6195C14.9656 17.6195 14.5359 17.6224 14.2513 17.6271C13.9643 17.6319 13.7013 17.6386 13.4549 17.6481V16.8983H13.6236C13.9692 16.8983 14.2078 16.8183 14.3452 16.6606C14.4831 16.5006 14.5505 16.2114 14.5505 15.7879V10.8472C14.5505 10.4285 14.4831 10.1417 14.3452 9.98215C14.2078 9.82448 13.9687 9.74445 13.6236 9.74445H13.4549V9.00134ZM22.5898 9.02992H29.7818V11.4145H28.9615V11.0287C28.9615 10.6619 28.853 10.4056 28.6354 10.2599C28.4183 10.1165 28.0101 10.0431 27.4117 10.0431H25.6302V12.7359H26.1323C26.6368 12.7359 26.9649 12.6631 27.1145 12.5149C27.2665 12.3692 27.3438 12.0681 27.3486 11.6118L28.1328 11.6046V14.7414H27.356C27.3315 14.2898 27.2474 13.9935 27.1047 13.8525C26.96 13.7091 26.6583 13.6386 26.1949 13.6386H25.6297V16.6349H27.2494C28.0218 16.6349 28.5117 16.5291 28.717 16.3172C28.9219 16.108 29.0309 15.6469 29.0451 14.9415H29.8586V17.6481H22.5893V16.8983H22.7585C23.1036 16.8983 23.3427 16.8207 23.4806 16.6678C23.6179 16.5125 23.6854 16.2209 23.6854 15.7884V10.8501C23.6854 10.4318 23.6179 10.1422 23.4806 9.98501C23.3427 9.82734 23.1036 9.74731 22.7585 9.74731H22.5893V9.02992H22.5899H22.5898ZM33.9599 10.015V16.6349H34.8868C36.021 16.6349 36.8536 16.3553 37.3821 15.7956C37.9106 15.2335 38.1736 14.3513 38.1736 13.1499C38.1736 12.0705 37.8935 11.2778 37.3313 10.7724C36.771 10.2665 35.8881 10.015 34.6815 10.015H33.9599ZM30.919 9.00134H34.8868C36.7138 9.00134 38.0651 9.34479 38.9368 10.0336C39.808 10.7229 40.2445 11.7904 40.2445 13.2318C40.2445 14.7109 39.8344 15.816 39.0135 16.5501C38.1956 17.2813 36.9621 17.6481 35.3161 17.6481H30.9185V16.8983H31.0877C31.4328 16.8983 31.6714 16.8183 31.8093 16.6606C31.9466 16.5006 32.0141 16.2114 32.0141 15.7879V10.8472C32.0141 10.4285 31.9466 10.1417 31.8093 9.98215C31.6714 9.82448 31.4328 9.74445 31.0877 9.74445H30.9185V9.00134H30.919H30.919ZM41.478 9.00134C42.0476 9.01135 42.4768 9.01802 42.7643 9.02278C43.0513 9.02753 43.3192 9.02992 43.5626 9.02992C43.7993 9.02992 44.0623 9.02808 44.3497 9.02278C44.6367 9.01802 45.0664 9.01135 45.636 9.00134V9.74493H45.4448C45.1002 9.74493 44.8611 9.82495 44.7233 9.98262C44.5859 10.1422 44.5179 10.4294 44.5179 10.8477V15.7884C44.5179 16.2119 44.5883 16.501 44.7257 16.6611C44.8655 16.8188 45.1046 16.8988 45.4448 16.8988H45.636V17.6486C45.3901 17.639 45.1266 17.6324 44.8396 17.6276C44.5546 17.6228 44.1297 17.62 43.5626 17.62C42.9887 17.62 42.5589 17.6228 42.2739 17.6276C41.9869 17.6324 41.7239 17.639 41.4775 17.6486V16.8988H41.6467C41.9918 16.8988 42.2304 16.8188 42.3683 16.6611C42.5057 16.501 42.5731 16.2119 42.5731 15.7884V10.8472C42.5731 10.4285 42.5052 10.1417 42.3683 9.98215C42.2304 9.82448 41.9913 9.74445 41.6467 9.74445H41.4775V9.00134H41.4781H41.478ZM54.479 9.31192V11.5927H53.3472V11.4684C53.3472 10.9182 53.2074 10.5138 52.9278 10.2594C52.6476 10.0031 52.2037 9.87592 51.5951 9.87592C50.7092 9.87592 50.0238 10.1722 49.5412 10.7672C49.0587 11.3621 48.8177 12.2062 48.8177 13.2999C48.8177 14.3841 49.066 15.2354 49.5632 15.8494C50.0604 16.4653 50.7434 16.773 51.6102 16.773C52.2326 16.773 52.6794 16.632 52.9517 16.35C53.227 16.068 53.3624 15.6022 53.3624 14.9553H54.4795V17.3799C53.9559 17.5347 53.4318 17.6524 52.9107 17.73C52.3871 17.8077 51.861 17.8477 51.332 17.8477C49.8527 17.8477 48.7209 17.4552 47.9362 16.672C47.152 15.8889 46.759 14.76 46.759 13.2857C46.759 11.8723 47.1716 10.7696 47.9968 9.98167C48.8201 9.19379 49.9783 8.80127 51.4675 8.80127C51.9021 8.80127 52.368 8.84367 52.8671 8.92846C53.3668 9.01325 53.9051 9.14281 54.479 9.31192ZM60.3007 9.86211C59.5312 9.86211 58.9421 10.156 58.5343 10.7443C58.1261 11.3321 57.9237 12.1834 57.9237 13.3004C57.9237 14.4084 58.1286 15.2568 58.5392 15.8475C58.9494 16.4377 59.5356 16.7316 60.3012 16.7316C61.0687 16.7316 61.6574 16.4377 62.0651 15.8518C62.4733 15.2663 62.6757 14.4175 62.6757 13.3004C62.6757 12.1786 62.4733 11.3274 62.068 10.7419C61.6618 10.156 61.0731 9.86211 60.3007 9.86211ZM60.3007 8.80175C61.7077 8.80175 62.8058 9.19426 63.588 9.98215C64.3702 10.77 64.7608 11.8823 64.7608 13.3142C64.7608 14.7485 64.3697 15.8608 63.588 16.6559C62.8063 17.4509 61.7077 17.8482 60.3007 17.8482C58.8912 17.8482 57.7932 17.4509 57.011 16.6559C56.2287 15.8608 55.8381 14.7485 55.8381 13.3142C55.8381 11.8823 56.2292 10.77 57.009 9.98215C57.7878 9.19426 58.8863 8.80175 60.3007 8.80175ZM70.5243 9.86211C69.7543 9.86211 69.1657 10.156 68.7575 10.7443C68.3498 11.3321 68.1469 12.1834 68.1469 13.3004C68.1469 14.4084 68.3522 15.2568 68.7624 15.8475C69.173 16.4377 69.7592 16.7316 70.5243 16.7316C71.2914 16.7316 71.8805 16.4377 72.2882 15.8518C72.6965 15.2663 72.8989 14.4175 72.8989 13.3004C72.8989 12.1786 72.6965 11.3274 72.2907 10.7419C71.8854 10.156 71.2963 9.86211 70.5243 9.86211ZM70.5243 8.80175C71.9314 8.80175 73.0294 9.19426 73.8116 9.98215C74.5938 10.77 74.9845 11.8823 74.9845 13.3142C74.9845 14.7485 74.5934 15.8608 73.8116 16.6559C73.0299 17.4509 71.9314 17.8482 70.5243 17.8482C69.1149 17.8482 68.0163 17.4509 67.2346 16.6559C66.4524 15.8608 66.0618 14.7485 66.0618 13.3142C66.0618 11.8823 66.4529 10.77 67.2326 9.98215C68.0114 9.19426 69.1095 8.80175 70.5243 8.80175ZM79.1136 10.0012V13.0889H79.8763C80.4341 13.0889 80.8487 12.9546 81.1269 12.6869C81.4045 12.4163 81.5444 12.0119 81.5444 11.4688C81.5444 10.9958 81.3972 10.6338 81.1029 10.3799C80.8086 10.1284 80.3911 10.0017 79.8504 10.0017H79.1136V10.0012V10.0012ZM76.0507 9.00134H79.7506C81.0682 9.00134 82.0166 9.19903 82.5916 9.59392C83.166 9.9893 83.4535 10.6314 83.4535 11.5222C83.4535 12.3873 83.1973 13.0222 82.6859 13.4295C82.1741 13.8363 81.3777 14.0383 80.2938 14.0383H79.1136V15.7879C79.1136 16.2114 79.1811 16.5025 79.3189 16.6606C79.4563 16.8183 79.6954 16.8983 80.0405 16.8983H80.2097V17.6481C79.9633 17.6386 79.7003 17.6319 79.4133 17.6271C79.1283 17.6224 78.7039 17.6195 78.1368 17.6195C77.5673 17.6195 77.1375 17.6224 76.8505 17.6271C76.5631 17.6319 76.2976 17.6386 76.0512 17.6481V16.8983H76.2424C76.5821 16.8983 76.8217 16.8183 76.9615 16.6606C77.0989 16.5029 77.1693 16.2114 77.1693 15.7879V10.8472C77.1693 10.4285 77.1013 10.1417 76.964 9.98215C76.8266 9.82448 76.587 9.74445 76.2424 9.74445H76.0512V9.00134H76.0507H76.0507Z" fill="white"/>
<path fill-rule="evenodd" clip-rule="evenodd" d="M31.5263 2.88717V4.65539H32.1383C32.4811 4.65539 32.7475 4.58108 32.9362 4.43389C33.1249 4.28479 33.2183 4.07758 33.2183 3.80796C33.2183 3.50596 33.1249 3.27731 32.9362 3.12154C32.7475 2.96577 32.4693 2.88717 32.1036 2.88717H31.5263ZM31.5263 0.739776V2.34794H32.0797C32.395 2.34794 32.6326 2.27792 32.7954 2.13882C32.9567 1.9983 33.0374 1.79109 33.0374 1.51718C33.0374 1.25614 32.9582 1.06274 32.7983 0.933175C32.6399 0.804084 32.4009 0.739776 32.0797 0.739776H31.5263ZM29.7286 0.119565H32.2694C32.9044 0.119565 33.3787 0.227696 33.6911 0.443483C34.0035 0.661178 34.1594 0.989384 34.1594 1.43144C34.1594 1.72773 34.0802 1.97019 33.9233 2.15835C33.7663 2.34747 33.5283 2.48799 33.2105 2.57802C33.5938 2.6409 33.8803 2.77714 34.0719 2.98483C34.2635 3.19394 34.3584 3.47594 34.3584 3.83273C34.3584 4.31957 34.1956 4.68302 33.869 4.92168C33.5434 5.16033 33.0462 5.27942 32.3799 5.27942H29.7296V4.83164H29.8308C30.0366 4.83164 30.1794 4.78544 30.2615 4.69398C30.3431 4.60156 30.3837 4.42722 30.3837 4.16904V1.22042C30.3837 0.970806 30.3431 0.79932 30.2615 0.70405C30.1794 0.610208 30.0366 0.562095 29.8308 0.562095H29.7296V0.119565H29.7285H29.7286ZM37.6608 0.748351L36.8727 2.89527H38.3663L37.6608 0.748351ZM37.0106 0.119565H38.4294L39.9562 4.01803C40.0916 4.35482 40.207 4.57108 40.3047 4.66778C40.401 4.76353 40.5282 4.81783 40.6822 4.83212V5.27989C40.5409 5.27419 40.3854 5.26988 40.2153 5.26752C40.0451 5.26515 39.7919 5.26323 39.4531 5.26323C39.1162 5.26323 38.8625 5.26455 38.6943 5.26752C38.5257 5.27038 38.3687 5.27466 38.2221 5.27989V4.83641C38.4699 4.82545 38.641 4.79163 38.7344 4.73542C38.8278 4.67921 38.8757 4.58537 38.8757 4.45342C38.8757 4.41579 38.8689 4.36387 38.8542 4.29765C38.8415 4.23144 38.8195 4.15427 38.7926 4.06757L38.6024 3.52025H36.6566L36.4332 4.17856C36.4102 4.24144 36.3941 4.29527 36.3838 4.33814C36.3741 4.38292 36.3697 4.42389 36.3697 4.46152C36.3697 4.59347 36.4083 4.68493 36.4845 4.73542C36.5623 4.78591 36.7354 4.81974 37.0018 4.83641V5.27989C36.859 5.27419 36.705 5.26988 36.5413 5.26752C36.3755 5.26465 36.1321 5.26323 35.8079 5.26323C35.4941 5.26323 35.2589 5.26455 35.1078 5.26752C34.9553 5.27038 34.8155 5.27466 34.6859 5.27989V4.83641C34.837 4.82784 34.9666 4.76781 35.0722 4.65539C35.1778 4.54297 35.2912 4.33814 35.4119 4.04233L37.0106 0.119565H37.0106ZM40.8479 0.119565H42.9838L45.0132 4.34672L44.9868 1.22137C44.9868 0.966043 44.9467 0.793603 44.8646 0.700716C44.7825 0.60973 44.6397 0.563048 44.4339 0.563048H44.3288V0.119565H44.3547C44.8333 0.130521 45.1946 0.136721 45.4395 0.136721C45.6874 0.136721 46.056 0.130994 46.5439 0.119565H46.5703V0.563048H46.4652C46.2589 0.563048 46.1166 0.611159 46.0345 0.705001C45.9524 0.800271 45.9118 0.97176 45.9118 1.22137V5.27989H44.4427L42.4133 1.06846L42.4309 4.16999C42.4309 4.42532 42.471 4.59918 42.5531 4.69207C42.6353 4.78591 42.7775 4.83212 42.9839 4.83212H43.089V5.27989C42.9565 5.27419 42.8137 5.26988 42.6612 5.26752C42.5072 5.26465 42.2764 5.26323 41.9694 5.26323C41.6639 5.26323 41.4341 5.26455 41.2796 5.26752C41.1271 5.27038 40.9833 5.27466 40.8474 5.27989V4.83212H40.9525C41.1583 4.83212 41.3026 4.78449 41.3876 4.68779C41.4727 4.59251 41.5143 4.4196 41.5143 4.16999V1.22137C41.5143 0.97414 41.4727 0.80313 41.3876 0.707859C41.3026 0.611159 41.1588 0.563048 40.9525 0.563048H40.8474V0.119565H40.848H40.8479ZM51.7638 0.304865V1.6658H51.0886V1.59149C51.0886 1.26329 51.0045 1.02178 50.8378 0.870297C50.6706 0.717386 50.4052 0.641646 50.0424 0.641646C49.5139 0.641646 49.1047 0.818373 48.8168 1.17326C48.5288 1.52814 48.3846 2.03212 48.3846 2.68472C48.3846 3.33161 48.5332 3.83988 48.8295 4.20619C49.1257 4.57346 49.5335 4.75781 50.0507 4.75781C50.4228 4.75781 50.6892 4.6735 50.852 4.50487C51.0163 4.33624 51.0969 4.05852 51.0969 3.67268H51.7633V5.11984C51.4504 5.21225 51.1385 5.28275 50.8271 5.32896C50.5147 5.37516 50.2008 5.39898 49.885 5.39898C49.0021 5.39898 48.3264 5.16461 47.8585 4.69731C47.3902 4.23001 47.1555 3.55645 47.1555 2.67663C47.1555 1.833 47.4019 1.17516 47.8942 0.705001C48.3856 0.234843 49.0769 0.000475558 49.9657 0.000475558C50.2243 0.000475558 50.5029 0.0257238 50.8007 0.0762176C51.0999 0.126709 51.4211 0.20388 51.7638 0.304865ZM55.2378 0.633074C54.7783 0.633074 54.4268 0.808371 54.1833 1.15944C53.9403 1.51004 53.8191 2.0183 53.8191 2.68472C53.8191 3.34542 53.9418 3.85226 54.1862 4.20429C54.4312 4.55679 54.7817 4.73209 55.2378 4.73209C55.6959 4.73209 56.0469 4.55679 56.2904 4.20715C56.5339 3.85798 56.6546 3.35114 56.6546 2.68472C56.6546 2.01545 56.5339 1.50718 56.2919 1.15801C56.0499 0.808371 55.6988 0.633074 55.2378 0.633074ZM55.2378 0C56.0772 0 56.7328 0.234364 57.1992 0.704525C57.6661 1.17469 57.8998 1.83824 57.8998 2.69282C57.8998 3.54883 57.6661 4.21239 57.1992 4.68731C56.7328 5.16176 56.0772 5.39898 55.2378 5.39898C54.3964 5.39898 53.7408 5.16176 53.2744 4.68731C52.8076 4.21286 52.5744 3.5493 52.5744 2.69282C52.5744 1.83824 52.8076 1.17421 53.273 0.704525C53.7384 0.234843 54.394 0 55.2378 0Z" fill="white"/>
<path fill-rule="evenodd" clip-rule="evenodd" d="M23.7605 22.4105V23.0021H23.4667V22.9697C23.4667 22.8268 23.4305 22.722 23.3577 22.6563C23.2849 22.5896 23.17 22.5572 23.0121 22.5572C22.7823 22.5572 22.6043 22.6339 22.4792 22.7877C22.354 22.9426 22.2914 23.1612 22.2914 23.4456C22.2914 23.7266 22.356 23.9477 22.485 24.1072C22.6141 24.2668 22.7911 24.3468 23.016 24.3468C23.1778 24.3468 23.2937 24.3102 23.3641 24.2373C23.4354 24.1644 23.4706 24.0434 23.4706 23.8753H23.7605V24.504C23.6246 24.5445 23.4887 24.575 23.3533 24.595C23.2174 24.615 23.0805 24.6255 22.9436 24.6255C22.5593 24.6255 22.266 24.5236 22.0626 24.3202C21.8588 24.1168 21.7566 23.8238 21.7566 23.4413C21.7566 23.074 21.8637 22.7882 22.0783 22.5834C22.2919 22.379 22.5926 22.2771 22.9788 22.2771C23.0913 22.2771 23.2125 22.2881 23.3421 22.31C23.4721 22.3328 23.6119 22.3667 23.7605 22.4105ZM25.2712 22.5529C25.0717 22.5529 24.9187 22.6291 24.8126 22.782C24.707 22.934 24.6542 23.155 24.6542 23.4456C24.6542 23.7328 24.7075 23.9529 24.8141 24.1063C24.9207 24.2597 25.0727 24.3359 25.2712 24.3359C25.4707 24.3359 25.6232 24.2592 25.7293 24.1077C25.8354 23.9558 25.8877 23.7352 25.8877 23.4456C25.8877 23.1541 25.8354 22.9335 25.7298 22.7811C25.6242 22.6286 25.4717 22.5529 25.2712 22.5529ZM25.2712 22.278C25.6364 22.278 25.9214 22.38 26.1243 22.5843C26.3272 22.7892 26.4289 23.0774 26.4289 23.4489C26.4289 23.8214 26.3272 24.1101 26.1243 24.3159C25.9214 24.5226 25.6364 24.6255 25.2712 24.6255C24.9055 24.6255 24.6205 24.5221 24.4176 24.3159C24.2147 24.1096 24.113 23.8214 24.113 23.4489C24.113 23.0774 24.2147 22.7887 24.4171 22.5843C24.6195 22.38 24.9045 22.278 25.2712 22.278ZM27.9244 22.5529C27.7249 22.5529 27.5719 22.6291 27.4658 22.782C27.3602 22.934 27.3074 23.155 27.3074 23.4456C27.3074 23.7328 27.3607 23.9529 27.4673 24.1063C27.5739 24.2592 27.7259 24.3359 27.9244 24.3359C28.1239 24.3359 28.2764 24.2592 28.3825 24.1077C28.4881 23.9558 28.5409 23.7352 28.5409 23.4456C28.5409 23.1541 28.4886 22.9335 28.3835 22.7811C28.2779 22.6291 28.1248 22.5529 27.9244 22.5529ZM27.9244 22.278C28.2896 22.278 28.5746 22.38 28.7775 22.5843C28.9809 22.7892 29.0821 23.0774 29.0821 23.4489C29.0821 23.8214 28.9809 24.1101 28.7775 24.3159C28.5746 24.5226 28.2896 24.6255 27.9244 24.6255C27.5587 24.6255 27.2737 24.5221 27.0708 24.3159C26.8679 24.1096 26.7662 23.8214 26.7662 23.4489C26.7662 23.0774 26.8679 22.7887 27.0703 22.5843C27.2727 22.38 27.5577 22.278 27.9244 22.278ZM30.1537 22.5891V23.3903H30.3517C30.4964 23.3903 30.604 23.356 30.6759 23.286C30.7477 23.216 30.7844 23.1107 30.7844 22.9697C30.7844 22.8473 30.7463 22.7534 30.6695 22.6872C30.5932 22.622 30.4847 22.5891 30.3444 22.5891H30.1537ZM29.3588 22.33H30.319C30.6612 22.33 30.9071 22.3809 31.0562 22.4834C31.2053 22.5858 31.2796 22.7525 31.2796 22.984C31.2796 23.2084 31.2132 23.3732 31.0807 23.4785C30.9477 23.5842 30.7414 23.6366 30.4598 23.6366H30.1537V24.0906C30.1537 24.2001 30.1713 24.2763 30.207 24.3173C30.2427 24.3583 30.3048 24.3792 30.3943 24.3792H30.4383V24.5736C30.3742 24.5712 30.3058 24.5693 30.2315 24.5679C30.1576 24.5668 30.0476 24.566 29.9 24.566C29.7524 24.566 29.6404 24.5671 29.5661 24.5679C29.4913 24.5692 29.4228 24.5712 29.3588 24.5736V24.3792H29.4082C29.4967 24.3792 29.5588 24.3583 29.5949 24.3173C29.6306 24.2763 29.6487 24.2006 29.6487 24.0906V22.8087C29.6487 22.7001 29.6311 22.6258 29.5954 22.5839C29.5597 22.5429 29.4976 22.5224 29.4082 22.5224H29.3588V22.33ZM31.5407 22.3371H33.4068V22.9559H33.1936V22.8559C33.1936 22.7606 33.1653 22.6944 33.1091 22.6563C33.0528 22.6191 32.9468 22.6001 32.7918 22.6001H32.3293V23.2993H32.4598C32.5908 23.2993 32.6759 23.2803 32.7145 23.2417C32.7541 23.2041 32.7742 23.126 32.7756 23.0078L32.979 23.006V23.8201H32.7776C32.7712 23.7029 32.7492 23.6257 32.7121 23.5895C32.6749 23.5524 32.5962 23.5338 32.476 23.5338H32.3293V24.3117H32.7497C32.9502 24.3117 33.0773 24.284 33.1306 24.2288C33.1834 24.175 33.2117 24.0554 33.2156 23.872H33.4268V24.5746H31.5402V24.3803H31.5837C31.6737 24.3803 31.7353 24.3598 31.771 24.3202C31.8067 24.2797 31.8243 24.2045 31.8243 24.0921V22.8107C31.8243 22.7021 31.8067 22.6273 31.771 22.5863C31.7353 22.5454 31.6732 22.5244 31.5837 22.5244H31.5402V22.3372H31.5408L31.5407 22.3371ZM34.4911 22.5996V23.3436H34.6632C34.8329 23.3436 34.9551 23.3155 35.0289 23.2589C35.1027 23.2022 35.1399 23.1098 35.1399 22.9807C35.1399 22.8459 35.1037 22.7487 35.0333 22.6896C34.9624 22.6296 34.8456 22.6001 34.6818 22.6001H34.4911V22.5995V22.5996ZM33.7016 22.33H34.6564C34.9981 22.33 35.245 22.3776 35.3956 22.4719C35.5457 22.5662 35.621 22.7201 35.621 22.9321C35.621 23.0693 35.5863 23.1817 35.5168 23.2703C35.4479 23.3589 35.3472 23.418 35.2152 23.4489C35.3061 23.4618 35.3741 23.4918 35.42 23.5385C35.4655 23.5852 35.5076 23.6771 35.5457 23.8157C35.555 23.8495 35.5677 23.8986 35.5819 23.9605C35.6264 24.1368 35.6655 24.2449 35.6997 24.2844C35.7275 24.3159 35.7608 24.3402 35.8004 24.3559C35.84 24.3711 35.8859 24.3792 35.9402 24.3792H35.9583V24.5736H35.268C35.2128 24.4535 35.1663 24.3035 35.1277 24.1234C35.0891 23.9434 35.0617 23.8309 35.046 23.7871C35.0206 23.7161 34.9776 23.6633 34.9175 23.6309C34.8578 23.598 34.7752 23.5813 34.6701 23.5813H34.4907V24.0906C34.4907 24.2001 34.5083 24.2759 34.5435 24.3173C34.5792 24.3583 34.6412 24.3792 34.7307 24.3792H34.7786V24.5736C34.716 24.5712 34.6476 24.5693 34.5733 24.5679C34.4985 24.5668 34.3885 24.566 34.2423 24.566C34.0932 24.566 33.9817 24.5671 33.9079 24.5679C33.8336 24.5692 33.7652 24.5712 33.7011 24.5736V24.3792H33.7451C33.8346 24.3792 33.8967 24.3583 33.9324 24.3173C33.968 24.2759 33.9852 24.2006 33.9852 24.0906V22.8087C33.9852 22.7001 33.9676 22.6258 33.9324 22.5839C33.8962 22.5429 33.8346 22.5224 33.7451 22.5224H33.7011V22.33H33.7017L33.7016 22.33ZM37.1033 22.6034L36.7606 23.5371H37.4098L37.1033 22.6034ZM36.8212 22.33H37.4377L38.1016 24.0253C38.1607 24.1716 38.2106 24.2659 38.2531 24.3078C38.2952 24.3492 38.3504 24.3735 38.4174 24.3792V24.5736C38.3563 24.5712 38.2883 24.5693 38.2145 24.5679C38.1407 24.5668 38.0302 24.566 37.8831 24.566C37.7364 24.566 37.6264 24.5671 37.5531 24.5679C37.4797 24.5692 37.4113 24.5712 37.3477 24.5736V24.3811C37.4553 24.3759 37.5301 24.3616 37.5707 24.3368C37.6112 24.3125 37.6318 24.2716 37.6318 24.2144C37.6318 24.1978 37.6288 24.1749 37.622 24.1463C37.6166 24.1172 37.6073 24.0839 37.5951 24.0463L37.5125 23.8081H36.6667L36.5694 24.0944C36.5591 24.122 36.5523 24.1449 36.5484 24.1639C36.544 24.1835 36.542 24.2011 36.542 24.2173C36.542 24.2744 36.5591 24.3145 36.5924 24.3364C36.6261 24.3583 36.7014 24.373 36.8173 24.3807V24.5731C36.7552 24.5708 36.6882 24.5688 36.6168 24.5674C36.5449 24.5663 36.4389 24.5655 36.2981 24.5655C36.1612 24.5655 36.0595 24.5666 35.9935 24.5674C35.927 24.5687 35.8664 24.5707 35.8101 24.5731V24.3807C35.8757 24.3769 35.9324 24.3507 35.9778 24.3016C36.0233 24.2525 36.0727 24.1639 36.1255 24.0348L36.8212 22.33H36.8212ZM38.2839 22.33C38.4663 22.33 38.6614 22.3313 38.8711 22.3352C38.9312 22.3365 38.9684 22.337 38.9831 22.337H39.6181C39.6338 22.337 39.6734 22.3365 39.7355 22.3352C39.952 22.3314 40.153 22.33 40.3392 22.33V23.0054H40.0914V22.9478C40.0914 22.8101 40.0674 22.7172 40.0205 22.6701C39.9731 22.6234 39.8777 22.5996 39.732 22.5996H39.5648V24.091C39.5648 24.2006 39.5829 24.2764 39.6186 24.3178C39.6553 24.3588 39.7179 24.3797 39.8073 24.3797H39.886V24.5741C39.8181 24.5717 39.7438 24.5698 39.6655 24.5684C39.5873 24.5673 39.4705 24.5665 39.3131 24.5665C39.1551 24.5665 39.0368 24.5676 38.9576 24.5684C38.8789 24.5697 38.8056 24.5717 38.7386 24.5741V24.3797H38.8178C38.9063 24.3797 38.9684 24.3588 39.0041 24.3178C39.0398 24.2764 39.0583 24.2011 39.0583 24.091V22.5996H38.8545C38.7249 22.5996 38.6359 22.6224 38.5885 22.6672C38.5411 22.7115 38.5171 22.793 38.5171 22.9111C38.5171 22.9349 38.5177 22.9535 38.5182 22.9669C38.5188 22.9792 38.5193 22.9931 38.5206 23.0059H38.284V22.33H38.2839ZM40.569 22.33C40.7167 22.3323 40.8281 22.3343 40.9029 22.3352C40.9772 22.3365 41.0466 22.337 41.1102 22.337C41.1713 22.337 41.2398 22.3365 41.3141 22.3352C41.3884 22.3341 41.4999 22.3323 41.648 22.33V22.5224H41.5986C41.5091 22.5224 41.4471 22.5429 41.4114 22.5839C41.3757 22.6258 41.3586 22.7001 41.3586 22.8087V24.0906C41.3586 24.2001 41.3767 24.2759 41.4123 24.3173C41.449 24.3583 41.5106 24.3792 41.5991 24.3792H41.6485V24.5736C41.5849 24.5712 41.5165 24.5693 41.4422 24.5679C41.3683 24.5668 41.2579 24.566 41.1107 24.566C40.9616 24.566 40.8501 24.5671 40.7758 24.5679C40.7015 24.5692 40.6331 24.5712 40.5695 24.5736V24.3792H40.613C40.703 24.3792 40.7646 24.3583 40.8003 24.3173C40.8359 24.2759 40.8535 24.2006 40.8535 24.0906V22.8087C40.8535 22.7001 40.8359 22.6258 40.8003 22.5839C40.7646 22.5429 40.7025 22.5224 40.613 22.5224H40.5695V22.33H40.569H40.569ZM41.7883 22.33C41.8719 22.3323 41.9462 22.3343 42.0122 22.3352C42.0787 22.3365 42.1432 22.337 42.2068 22.337C42.3036 22.337 42.4693 22.3347 42.7045 22.3299C42.7299 22.3299 42.7495 22.3299 42.7636 22.3299V22.5223C42.6458 22.5276 42.571 22.5376 42.5397 22.5543C42.5075 22.5709 42.4918 22.6009 42.4918 22.6438C42.4918 22.6557 42.4937 22.67 42.4972 22.6872C42.5011 22.7038 42.507 22.7219 42.5153 22.7419L43.0222 24.1748L43.5067 22.7496C43.5116 22.7343 43.5155 22.7186 43.5175 22.7019C43.5204 22.6862 43.5214 22.67 43.5214 22.6548C43.5214 22.6081 43.5004 22.5743 43.4583 22.5533C43.4153 22.5323 43.3464 22.5223 43.2515 22.5223V22.3299C43.2618 22.3299 43.275 22.3299 43.2931 22.3299C43.5053 22.3347 43.6583 22.337 43.7541 22.337C43.8118 22.337 43.8724 22.3365 43.9379 22.3352C44.0025 22.3341 44.087 22.3323 44.1912 22.33V22.5224C44.1281 22.5343 44.0792 22.5572 44.0445 22.5915C44.0088 22.6248 43.977 22.681 43.9506 22.7573L43.2735 24.6098H42.7284L42.0293 22.7716C41.9951 22.6801 41.9604 22.6167 41.9266 22.5824C41.8924 22.5477 41.8465 22.5286 41.7888 22.5234V22.33H41.7882H41.7883ZM45.4667 22.5529C45.2672 22.5529 45.1142 22.6291 45.0081 22.782C44.902 22.934 44.8497 23.155 44.8497 23.4456C44.8497 23.7328 44.9025 23.9529 45.0091 24.1063C45.1162 24.2592 45.2677 24.3359 45.4667 24.3359C45.6657 24.3359 45.8187 24.2592 45.9248 24.1077C46.0309 23.9558 46.0832 23.7352 46.0832 23.4456C46.0832 23.1541 46.0309 22.9335 45.9253 22.7811C45.8202 22.6291 45.6671 22.5529 45.4667 22.5529ZM45.4667 22.278C45.8319 22.278 46.1169 22.38 46.3198 22.5843C46.5227 22.7892 46.6244 23.0774 46.6244 23.4489C46.6244 23.8214 46.5227 24.1101 46.3198 24.3159C46.1169 24.5226 45.8319 24.6255 45.4667 24.6255C45.101 24.6255 44.816 24.5221 44.6131 24.3159C44.4102 24.1096 44.3085 23.8214 44.3085 23.4489C44.3085 23.0774 44.4102 22.7887 44.6121 22.5843C44.8145 22.38 45.1 22.278 45.4667 22.278ZM47.9928 22.33C48.1492 22.3323 48.267 22.3343 48.3462 22.3352C48.425 22.3365 48.4978 22.337 48.5633 22.337C48.6298 22.337 48.7022 22.3365 48.7818 22.3352C48.8615 22.3341 48.9754 22.3323 49.1231 22.33V22.5224H49.0224C48.9324 22.5224 48.8703 22.5429 48.8346 22.5839C48.7994 22.6258 48.7818 22.7001 48.7818 22.8087V24.3021H49.105C49.3015 24.3021 49.4272 24.2744 49.4819 24.2197C49.5367 24.1649 49.565 24.0491 49.5675 23.8714H49.7806V24.5741H47.9933V24.3797H48.0373C48.1267 24.3797 48.1888 24.3588 48.2245 24.3178C48.2602 24.2768 48.2773 24.2011 48.2773 24.091V22.8092C48.2773 22.7006 48.2602 22.6263 48.2245 22.5843C48.1888 22.5434 48.1267 22.5229 48.0373 22.5229H47.9933V22.33H47.9927H47.9928ZM49.9733 22.33C50.1214 22.3323 50.2324 22.3343 50.3072 22.3352C50.3815 22.3365 50.4514 22.337 50.5145 22.337C50.5761 22.337 50.6445 22.3365 50.7188 22.3352C50.7931 22.3341 50.9051 22.3323 51.0527 22.33V22.5224H51.0033C50.9134 22.5224 50.8513 22.5429 50.8156 22.5839C50.7804 22.6258 50.7628 22.7001 50.7628 22.8087V24.0906C50.7628 24.2001 50.7809 24.2759 50.8166 24.3173C50.8528 24.3583 50.9149 24.3792 51.0033 24.3792H51.0527V24.5736C50.9892 24.5712 50.9207 24.5693 50.8459 24.5679C50.7726 24.5668 50.6621 24.566 50.5145 24.566C50.3654 24.566 50.2544 24.5671 50.1801 24.5679C50.1058 24.5692 50.0373 24.5712 49.9733 24.5736V24.3792H50.0173C50.1067 24.3792 50.1688 24.3583 50.2045 24.3173C50.2402 24.2759 50.2573 24.2006 50.2573 24.0906V22.8087C50.2573 22.7001 50.2402 22.6258 50.2045 22.5839C50.1688 22.5429 50.1067 22.5224 50.0173 22.5224H49.9733V22.33ZM51.3211 22.33C51.4595 22.3323 51.5641 22.3343 51.635 22.3352C51.7064 22.3365 51.7714 22.337 51.831 22.337C51.8912 22.337 51.9562 22.3365 52.0256 22.3352C52.095 22.3341 52.1997 22.3323 52.3395 22.33L52.8054 23.8262C52.8201 23.8743 52.8337 23.9253 52.8469 23.9796C52.8592 24.0334 52.8709 24.0906 52.8807 24.152C52.887 24.102 52.8953 24.0496 52.9081 23.9972C52.9208 23.9439 52.9364 23.8872 52.956 23.8262L53.437 22.33C53.549 22.3323 53.6404 22.3343 53.7103 22.3352C53.7797 22.3365 53.8453 22.337 53.9069 22.337C54.0095 22.337 54.1723 22.3347 54.3943 22.3299H54.4295V22.5223H54.3796C54.2901 22.5223 54.2276 22.5409 54.1924 22.5795C54.1567 22.6171 54.1391 22.6872 54.1391 22.7872V22.8086L54.1611 24.0891C54.164 24.2053 54.1826 24.282 54.2168 24.321C54.2515 24.3596 54.3131 24.3792 54.4016 24.3792H54.4476V24.5735C54.386 24.5712 54.3209 24.5692 54.251 24.5678C54.1811 24.5667 54.078 24.5659 53.9386 24.5659C53.8052 24.5659 53.7045 24.567 53.637 24.5678C53.5705 24.5691 53.5084 24.5711 53.4512 24.5735V24.3792H53.5006C53.5891 24.3792 53.6512 24.3582 53.6873 24.3172C53.723 24.2758 53.7411 24.2005 53.7411 24.0905V22.5476L53.0899 24.5735H52.6299L52.0022 22.56V24.0905C52.0022 24.2001 52.0198 24.2758 52.0554 24.3172C52.0906 24.3582 52.1527 24.3792 52.2427 24.3792H52.2867V24.5735C52.2329 24.5712 52.1733 24.5692 52.1073 24.5678C52.0422 24.5667 51.9415 24.5659 51.8066 24.5659C51.6707 24.5659 51.568 24.567 51.4976 24.5678C51.4277 24.5691 51.3637 24.5711 51.3035 24.5735V24.3792H51.3475C51.436 24.3792 51.4971 24.3596 51.5323 24.3196C51.5666 24.2806 51.5851 24.2043 51.5881 24.091L51.612 22.8091V22.7915C51.612 22.6919 51.5929 22.6229 51.5563 22.5828C51.5186 22.5433 51.4556 22.5233 51.3656 22.5233H51.3216V22.3299H51.3211L51.3211 22.33ZM54.7184 22.33C54.8661 22.3323 54.9775 22.3343 55.0523 22.3352C55.1266 22.3365 55.1965 22.337 55.2596 22.337C55.3212 22.337 55.3897 22.3365 55.464 22.3352C55.5383 22.3341 55.6497 22.3323 55.7979 22.33V22.5224H55.748C55.6585 22.5224 55.5965 22.5429 55.5608 22.5839C55.5256 22.6258 55.5075 22.7001 55.5075 22.8087V24.0906C55.5075 24.2001 55.5261 24.2759 55.5613 24.3173C55.5974 24.3583 55.6595 24.3792 55.748 24.3792H55.7979V24.5736C55.7338 24.5712 55.6654 24.5693 55.5911 24.5679C55.5173 24.5668 55.4068 24.566 55.2596 24.566C55.1105 24.566 54.999 24.5671 54.9252 24.5679C54.8509 24.5692 54.7825 24.5712 54.7184 24.5736V24.3792H54.7624C54.8519 24.3792 54.914 24.3583 54.9497 24.3173C54.9853 24.2759 55.0025 24.2006 55.0025 24.0906V22.8087C55.0025 22.7001 54.9853 22.6258 54.9497 22.5839C54.914 22.5429 54.8519 22.5224 54.7624 22.5224H54.7184V22.33ZM56.0061 22.33C56.1885 22.33 56.3836 22.3313 56.5928 22.3352C56.6529 22.3365 56.6901 22.337 56.7048 22.337H57.3398C57.3555 22.337 57.3951 22.3365 57.4567 22.3352C57.6732 22.3314 57.8747 22.33 58.0604 22.33V23.0054H57.8126V22.9478C57.8126 22.8101 57.7886 22.7172 57.7417 22.6701C57.6943 22.6234 57.5985 22.5996 57.4533 22.5996H57.2861V24.091C57.2861 24.2006 57.3041 24.2764 57.3393 24.3178C57.376 24.3588 57.4386 24.3797 57.528 24.3797H57.6073V24.5741C57.5388 24.5717 57.465 24.5698 57.3868 24.5684C57.3085 24.5673 57.1917 24.5665 57.0338 24.5665C56.8759 24.5665 56.7581 24.5676 56.6784 24.5684C56.5997 24.5697 56.5263 24.5717 56.4593 24.5741V24.3797H56.5385C56.627 24.3797 56.6891 24.3588 56.7248 24.3178C56.7605 24.2764 56.7786 24.2011 56.7786 24.091V22.5996H56.5752C56.4452 22.5996 56.3567 22.6224 56.3088 22.6672C56.2613 22.7115 56.2374 22.793 56.2374 22.9111C56.2374 22.9349 56.2379 22.9535 56.2387 22.9669C56.2393 22.9792 56.2398 22.9931 56.2412 23.0059H56.0045V22.33H56.0059H56.0061ZM59.2352 22.6034L58.8925 23.5371H59.5423L59.2352 22.6034ZM58.9527 22.33H59.5696L60.2336 24.0253C60.2922 24.1716 60.3426 24.2659 60.3856 24.3078C60.4276 24.3492 60.4824 24.3735 60.5494 24.3792V24.5736C60.4883 24.5712 60.4203 24.5693 60.3465 24.5679C60.2732 24.5668 60.1622 24.566 60.015 24.566C59.8684 24.566 59.7584 24.5671 59.685 24.5679C59.6117 24.5692 59.5432 24.5712 59.4792 24.5736V24.3811C59.5872 24.3759 59.6616 24.3616 59.7026 24.3368C59.7432 24.3125 59.7637 24.2716 59.7637 24.2144C59.7637 24.1978 59.7608 24.1749 59.754 24.1463C59.7486 24.1172 59.7393 24.0839 59.7271 24.0463L59.6444 23.8081H58.7987L58.7014 24.0944C58.6911 24.122 58.6847 24.1449 58.6803 24.1639C58.6755 24.1835 58.674 24.2011 58.674 24.2173C58.674 24.2744 58.6906 24.3145 58.7239 24.3364C58.7576 24.3583 58.8334 24.373 58.9492 24.3807V24.5731C58.8867 24.5708 58.8197 24.5688 58.7483 24.5674C58.6769 24.5663 58.5708 24.5655 58.43 24.5655C58.2936 24.5655 58.1915 24.5666 58.1255 24.5674C58.059 24.5687 57.9983 24.5707 57.9421 24.5731V24.3807C58.0076 24.3769 58.0643 24.3507 58.1098 24.3016C58.1558 24.2525 58.2051 24.1639 58.2579 24.0348L58.9527 22.33H58.9527ZM61.4524 22.5929V24.3106H61.6924C61.9872 24.3106 62.2033 24.2378 62.3402 24.0925C62.4771 23.9467 62.5455 23.7181 62.5455 23.4065C62.5455 23.126 62.4732 22.9202 62.3275 22.7892C62.1818 22.6582 61.9525 22.5929 61.6396 22.5929H61.4524ZM60.6633 22.33H61.6924C62.1671 22.33 62.5176 22.4191 62.7435 22.5977C62.9699 22.7768 63.0828 23.0536 63.0828 23.4275C63.0828 23.8114 62.9762 24.0982 62.7636 24.2887C62.5509 24.4783 62.2312 24.5741 61.8039 24.5741H60.6628V24.3797H60.7068C60.7963 24.3797 60.8584 24.3588 60.894 24.3178C60.9297 24.2764 60.9473 24.2011 60.9473 24.091V22.8092C60.9473 22.7006 60.9297 22.6263 60.894 22.5843C60.8584 22.5434 60.7963 22.5229 60.7068 22.5229H60.6628V22.33H60.6633H60.6633ZM64.5871 22.5529C64.3871 22.5529 64.2341 22.6291 64.1285 22.782C64.0224 22.934 63.9696 23.155 63.9696 23.4456C63.9696 23.7328 64.0229 23.9529 64.1295 24.1063C64.2361 24.2597 64.3881 24.3359 64.5871 24.3359C64.7861 24.3359 64.9391 24.2592 65.0452 24.1077C65.1508 23.9558 65.2036 23.7352 65.2036 23.4456C65.2036 23.1541 65.1508 22.9335 65.0457 22.7811C64.9406 22.6286 64.7876 22.5529 64.5871 22.5529ZM64.5871 22.278C64.9523 22.278 65.2368 22.38 65.4402 22.5843C65.6431 22.7892 65.7443 23.0774 65.7443 23.4489C65.7443 23.8214 65.6431 24.1101 65.4402 24.3159C65.2368 24.5226 64.9523 24.6255 64.5871 24.6255C64.2214 24.6255 63.9364 24.5221 63.7335 24.3159C63.5306 24.1096 63.4289 23.8214 63.4289 23.4489C63.4289 23.0774 63.5306 22.7887 63.7325 22.5843C63.9349 22.38 64.22 22.278 64.5871 22.278Z" fill="white"/>
<path fill-rule="evenodd" clip-rule="evenodd" d="M0 28.3879V36.9999H12.2745V28.3879H0Z" fill="#ED1C24"/>
<path fill-rule="evenodd" clip-rule="evenodd" d="M24.5487 28.3879V36.9999H12.2747V28.3879H24.5487Z" fill="#F58220"/>
<path fill-rule="evenodd" clip-rule="evenodd" d="M24.5488 28.3879V36.9999H36.8233V28.3879H24.5488Z" fill="#FFCB05"/>
<path fill-rule="evenodd" clip-rule="evenodd" d="M49.0985 28.3879V36.9999H36.8235V28.3879H49.0985Z" fill="#00A651"/>
<path fill-rule="evenodd" clip-rule="evenodd" d="M49.0977 28.3879V36.9999H61.3717V28.3879H49.0977Z" fill="#00AEEF"/>
<path fill-rule="evenodd" clip-rule="evenodd" d="M73.6473 28.3879V36.9999H61.3723V28.3879H73.6473Z" fill="#9E76B4"/>
<path fill-rule="evenodd" clip-rule="evenodd" d="M73.6465 28.3879V36.9999H85.9205V28.3879H73.6465Z" fill="#A54686"/>
</svg>
