<svg xmlns="http://www.w3.org/2000/svg" width="36" height="36" viewBox="0 0 36 36" fill="none">
<ellipse cx="23.5204" cy="26.0878" rx="0.916884" ry="0.916883" fill="#ffffff"/>
<path d="M18.0923 14.2363C17.2002 14.2353 16.3352 14.5437 15.6449 15.1089C14.9546 15.6741 14.4816 16.4612 14.3066 17.3361C14.1316 18.2109 14.2654 19.1194 14.6851 19.9067C15.1049 20.694 15.7847 21.3114 16.6086 21.6536C17.4325 21.9959 18.3497 22.0418 19.2037 21.7836C20.0577 21.5255 20.7958 20.9791 21.2921 20.2378C21.7885 19.4964 22.0124 18.6058 21.9258 17.7178C21.8391 16.8299 21.4472 15.9994 20.8168 15.368C20.0946 14.6446 19.1146 14.2375 18.0923 14.2363ZM19.7375 19.7272C19.4137 20.0511 19.001 20.2717 18.5518 20.3611C18.1026 20.4505 17.6369 20.4047 17.2137 20.2294C16.7905 20.0542 16.4288 19.7573 16.1743 19.3765C15.9198 18.9957 15.784 18.5479 15.784 18.0899C15.784 17.6318 15.9198 17.1841 16.1743 16.8032C16.4288 16.4224 16.7905 16.1256 17.2137 15.9503C17.6369 15.775 18.1026 15.7292 18.5518 15.8186C19.001 15.908 19.4137 16.1286 19.7375 16.4526C20.1697 16.8857 20.4125 17.4727 20.4125 18.0846C20.4125 18.6966 20.1697 19.2835 19.7375 19.7167" fill="#ffffff"/>
<path d="M29.4932 15.2684L26.5644 15.0012C26.4753 14.7706 26.381 14.5349 26.2762 14.3043L28.1571 12.0462C28.2808 11.8969 28.3445 11.7069 28.3358 11.5132C28.3271 11.3195 28.2466 11.1359 28.11 10.9983L25.2021 8.0905C25.067 7.94944 24.8828 7.86583 24.6877 7.85705C24.4925 7.84827 24.3015 7.91499 24.1543 8.04334L21.8857 9.92426C21.659 9.81525 21.4263 9.71904 21.1888 9.6361L20.9216 6.70207C20.9034 6.51029 20.8144 6.33215 20.672 6.20236C20.5297 6.07258 20.3441 6.00044 20.1514 6H16.0386C15.8467 5.99945 15.6617 6.07153 15.5208 6.20177C15.3798 6.332 15.2934 6.51074 15.2789 6.70207L15.0116 9.63086C14.7759 9.71993 14.5401 9.81424 14.3148 9.92426L12.0514 8.0381C11.9031 7.91214 11.7126 7.84698 11.5182 7.85573C11.3238 7.86447 11.14 7.94648 11.0036 8.08526L8.08526 10.9878C7.94867 11.1255 7.86818 11.309 7.85946 11.5027C7.85074 11.6964 7.91442 11.8864 8.03809 12.0357L9.92425 14.2991C9.81947 14.5296 9.72517 14.7602 9.6361 14.9959L6.70207 15.2631C6.51117 15.2813 6.33376 15.3695 6.2041 15.5108C6.07444 15.652 6.00173 15.8363 6 16.0281V20.1567C6.00173 20.3484 6.07444 20.5327 6.2041 20.674C6.33376 20.8153 6.51117 20.9035 6.70207 20.9216L9.6361 21.1888C9.72517 21.4246 9.81947 21.6604 9.92425 21.8909L8.03809 24.149C7.91553 24.2989 7.85258 24.4886 7.86128 24.682C7.86998 24.8754 7.94974 25.0587 8.08526 25.1969L10.9983 28.1047C11.1347 28.2435 11.3186 28.3255 11.513 28.3343C11.7074 28.343 11.8979 28.2779 12.0462 28.1519L14.3096 26.2657C14.5349 26.3779 14.7677 26.4742 15.0064 26.5539L15.2841 29.4879C15.3022 29.6788 15.3904 29.8562 15.5317 29.9859C15.673 30.1156 15.8573 30.1883 16.049 30.19H20.1672C20.3589 30.1883 20.5432 30.1156 20.6845 29.9859C20.8257 29.8562 20.914 29.6788 20.9321 29.4879L21.2465 26.0509C21.2554 25.9501 21.2444 25.8486 21.2141 25.752C21.1838 25.6555 21.1347 25.5658 21.0698 25.4882C21.0048 25.4106 20.9253 25.3466 20.8356 25.2997C20.7458 25.2529 20.6478 25.2242 20.547 25.2153C20.4462 25.2063 20.3446 25.2173 20.2481 25.2476C20.1515 25.2779 20.0619 25.327 19.9843 25.3919C19.9067 25.4569 19.8427 25.5365 19.7958 25.6262C19.749 25.7159 19.7203 25.8139 19.7113 25.9147L19.4598 28.6444H16.7563L16.4996 25.9095C16.4849 25.7563 16.4246 25.611 16.3266 25.4924C16.2285 25.3738 16.0972 25.2873 15.9495 25.2441C15.471 25.0969 15.0078 24.9039 14.5663 24.6677C14.4325 24.5959 14.2803 24.5655 14.1291 24.5804C13.978 24.5953 13.8347 24.6549 13.7175 24.7516L11.6218 26.512L9.70421 24.5944L11.4646 22.4987C11.5613 22.3815 11.6209 22.2382 11.6358 22.087C11.6507 21.9359 11.6203 21.7837 11.5484 21.6499C11.3118 21.2093 11.1205 20.7459 10.9774 20.2667C10.9307 20.1224 10.8418 19.9954 10.7223 19.902C10.6028 19.8086 10.458 19.7532 10.3067 19.7428L7.5718 19.4913V16.7459L10.3067 16.4996C10.4568 16.4853 10.5997 16.4283 10.7185 16.3355C10.8373 16.2427 10.9271 16.1178 10.9774 15.9757C11.1015 15.487 11.2771 15.0128 11.5013 14.5611C11.5723 14.4261 11.6021 14.2733 11.5872 14.1215C11.5723 13.9697 11.5133 13.8257 11.4175 13.7071L9.65706 11.6113L11.5746 9.69373L13.6704 11.4489C13.7878 11.5469 13.9317 11.6076 14.0838 11.6235C14.2359 11.6394 14.3893 11.6096 14.5244 11.538C14.9633 11.2966 15.4271 11.1033 15.9076 10.9617C16.0508 10.9131 16.1767 10.8238 16.2698 10.7046C16.3629 10.5855 16.4191 10.4417 16.4315 10.291L16.683 7.56132H19.3865L19.638 10.291C19.6491 10.4421 19.7048 10.5865 19.7981 10.7059C19.8914 10.8253 20.018 10.9143 20.1619 10.9617C20.6421 11.1043 21.1057 11.2975 21.5451 11.538C21.6798 11.6078 21.832 11.6365 21.9828 11.6207C22.1337 11.6049 22.2766 11.5451 22.3939 11.4489L24.4896 9.69373L26.4072 11.6113L24.6468 13.7071C24.5497 13.825 24.4898 13.9692 24.4749 14.1213C24.46 14.2734 24.4906 14.4265 24.5629 14.5611C24.7983 15.0023 24.9896 15.4656 25.134 15.9443C25.1826 16.0875 25.2719 16.2134 25.3911 16.3064C25.5102 16.3995 25.654 16.4558 25.8047 16.4682L28.5448 16.7144V19.4232L25.8099 19.6642C25.6563 19.6793 25.5105 19.7396 25.3912 19.8375C25.2718 19.9355 25.1841 20.0666 25.1393 20.2143C24.9962 20.6935 24.8048 21.1569 24.5682 21.5975C24.4977 21.7317 24.468 21.8836 24.4829 22.0344C24.4978 22.1853 24.5566 22.3285 24.652 22.4463L26.8735 25.0974C27.0051 25.2512 27.1919 25.3471 27.3937 25.3642C27.5954 25.3814 27.7957 25.3184 27.9514 25.1889C28.107 25.0594 28.2054 24.8739 28.2253 24.6724C28.2452 24.471 28.1849 24.2698 28.0576 24.1124L26.2605 21.8961C26.3686 21.669 26.4648 21.4364 26.5487 21.1993L29.4774 20.9321C29.6688 20.9164 29.8475 20.8298 29.9783 20.6893C30.1091 20.5488 30.1828 20.3644 30.1848 20.1724V16.0386C30.1846 15.8475 30.1139 15.6633 29.9863 15.5212C29.8587 15.3791 29.6831 15.289 29.4932 15.2684Z" fill="#ffffff"/>
</svg>