<svg width="148" height="46" viewBox="0 0 148 46" fill="none" xmlns="http://www.w3.org/2000/svg">
<path d="M13.5954 12.1914C13.8408 12.2761 14.1264 12.402 14.4522 12.5691C15.0235 12.9056 15.5136 13.3666 15.9226 13.952C16.4135 14.7899 16.6582 15.795 16.6568 16.9672C16.6568 20.9898 14.2886 23.0007 9.55232 23H0.368129C0.12271 23 0 22.8741 0 22.6223V3.26711C0 3.01529 0.12271 2.88938 0.368129 2.88938H10.0453C11.7611 2.88938 13.149 3.37131 14.2089 4.33516C15.2689 5.29901 15.7999 6.57691 15.8021 8.16885C15.8021 9.09146 15.5982 9.90842 15.1906 10.6197C14.7802 11.3339 14.2484 11.8578 13.5954 12.1914ZM9.43173 20.1084C10.8196 20.1084 11.8401 19.8783 12.4931 19.4181C13.1448 18.9579 13.4713 18.1619 13.4727 17.0302C13.4727 15.8992 13.1462 15.1032 12.4931 14.6423C11.8394 14.1821 10.8189 13.952 9.43173 13.952H3.67495C3.34701 13.952 3.18411 14.0779 3.18411 14.3297V19.7351C3.18411 19.9869 3.34701 20.1128 3.67495 20.1128H9.43173V20.1084ZM3.67495 5.78093C3.42953 5.78093 3.30682 5.90684 3.30682 6.15866V10.6827C3.30682 10.9345 3.42953 11.0604 3.67495 11.0604H9.30902C11.431 11.0604 12.4924 10.1805 12.4931 8.42067C12.4931 6.66012 11.4318 5.78021 9.30902 5.78093H3.67495ZM33.4405 12.1914C33.7005 12.2833 33.9474 12.4104 34.1747 12.5691C34.8263 12.9056 35.3164 13.3666 35.6451 13.952C36.2163 14.7899 36.5019 15.795 36.5019 16.9672C36.5019 20.9898 34.1338 23.0007 29.3974 23H20.2111C19.9657 23 19.843 22.8741 19.843 22.6223V3.26711C19.843 3.01529 19.9657 2.88938 20.2111 2.88938H29.8883C31.5216 2.88938 32.8897 3.37131 33.9927 4.33516C35.095 5.29901 35.6465 6.57691 35.6472 8.16885C35.6472 9.09146 35.4434 9.90842 35.0358 10.6197C34.6232 11.3339 34.0915 11.8578 33.4405 12.1914ZM23.3953 5.78093C23.1498 5.78093 23.0271 5.90684 23.0271 6.15866V10.6827C23.0271 10.9345 23.1498 11.0604 23.3953 11.0604H29.152C31.2741 11.0604 32.3354 10.1805 32.3361 8.42067C32.3361 6.66012 31.2748 5.78021 29.152 5.78093H23.3953V5.78093ZM29.2747 20.1084C30.6626 20.1084 31.6831 19.8783 32.3361 19.4181C32.9878 18.9579 33.3143 18.1619 33.3157 17.0302C33.3157 15.8992 32.9892 15.1032 32.3361 14.6423C31.6824 14.1821 30.6619 13.952 29.2747 13.952H23.3953C23.1498 13.952 23.0271 14.0779 23.0271 14.3297V19.7351C23.0271 19.9869 23.1498 20.1128 23.3953 20.1128H29.2747V20.1084ZM54.0177 3.1412C54.0981 2.97404 54.1806 2.88938 54.2631 2.88938H57.4472C57.5276 2.88938 57.6101 2.9328 57.6926 3.01529C57.773 3.09995 57.773 3.18462 57.6926 3.26711L47.5268 22.8741C47.444 22.9549 47.3342 23 47.22 23C47.1058 23 46.9959 22.9549 46.9132 22.8741L36.7473 3.26711C36.6648 3.18462 36.6437 3.09995 36.686 3.01529C36.7262 2.9328 36.8277 2.88938 36.9928 2.88938H40.0542C40.2171 2.88938 40.3398 2.97404 40.4223 3.1412L46.9132 15.7103C46.9132 15.795 46.9936 15.8362 47.1586 15.8362C47.3215 15.8362 47.4442 15.795 47.5268 15.7103L54.0177 3.1412ZM57.6926 19.8588C57.6101 20.0281 57.4874 20.1106 57.3245 20.1106H54.1404C54.0579 20.1106 53.9965 20.0694 53.9563 19.9847C53.916 19.9072 53.8949 19.8207 53.895 19.7329L64.063 0.125908C64.1434 0.0434167 64.2661 0 64.4311 0C64.594 0 64.7167 0.0434167 64.7992 0.125908L74.963 19.7329C74.962 19.8206 74.941 19.9068 74.9016 19.9847C74.8593 20.0694 74.7979 20.1106 74.7176 20.1106H71.5334C71.3684 20.1106 71.2457 20.0281 71.1653 19.8588L64.795 7.28966C64.7125 7.12251 64.5898 7.03785 64.4269 7.03785C64.2618 7.03785 64.1391 7.12251 64.0587 7.28966L57.6926 19.8588Z" fill="white"/>
</svg>
