<svg width="100" height="100" viewBox="0 0 100 100" fill="none" xmlns="http://www.w3.org/2000/svg">
<path d="M60.4073 61.6693C60.0083 61.6689 59.6258 61.5079 59.3438 61.2216L39.3422 40.9412C39.0601 40.6545 38.9019 40.2659 38.9023 39.861C38.9028 39.456 39.0619 39.0679 39.3447 38.7819C39.6274 38.4959 40.0106 38.3355 40.41 38.3359C40.8094 38.3364 41.1922 38.4977 41.4743 38.7844L61.4759 59.0649C61.6864 59.2786 61.8296 59.5509 61.8874 59.8472C61.9452 60.1435 61.915 60.4505 61.8006 60.7294C61.6862 61.0083 61.4927 61.2465 61.2447 61.4138C60.9966 61.5811 60.7052 61.67 60.4073 61.6693Z" fill="#E2034D"/>
<path d="M40.4111 61.6693C40.1132 61.67 39.8217 61.5811 39.5737 61.4138C39.3257 61.2465 39.1322 61.0083 39.0178 60.7294C38.9034 60.4505 38.8731 60.1435 38.9309 59.8472C38.9888 59.5509 39.132 59.2786 39.3425 59.0649L59.3442 38.7844C59.6262 38.4977 60.0091 38.3364 60.4085 38.3359C60.8078 38.3355 61.191 38.4959 61.4738 38.7819C61.7565 39.0679 61.9156 39.456 61.916 39.861C61.9165 40.2659 61.7584 40.6545 61.4763 40.9412L41.4746 61.2216C41.1927 61.5079 40.8101 61.6689 40.4111 61.6693Z" fill="#E2034D"/>
<path d="M50.0052 80C44.0713 80.001 38.2704 78.2423 33.3361 74.9462C28.4018 71.6502 24.5559 66.9649 22.2846 61.4829C20.0134 56.0009 19.4188 49.9685 20.5762 44.1486C21.7336 38.3287 24.5909 32.9827 28.7868 28.7868C32.9827 24.5909 38.3287 21.7336 44.1486 20.5762C49.9685 19.4188 56.0009 20.0133 61.4829 22.2846C66.9649 24.5559 71.6502 28.4019 74.9462 33.3361C78.2423 38.2704 80.001 44.0713 80 50.0052C80 50.4159 79.8368 50.8099 79.5464 51.1003C79.2559 51.3908 78.862 51.554 78.4512 51.554C78.0405 51.554 77.6465 51.3908 77.356 51.1003C77.0656 50.8099 76.9024 50.4159 76.9024 50.0052C76.8941 43.3937 74.4464 37.0178 70.0283 32.0993C65.6102 27.1808 59.5325 24.0656 52.9598 23.3506C46.3871 22.6357 39.7817 24.3713 34.4094 28.2249C29.0371 32.0785 25.2758 37.779 23.8463 44.234C22.4167 50.6891 23.4194 57.4447 26.6622 63.2062C29.905 68.9678 35.16 73.3301 41.4199 75.4572C47.6799 77.5842 54.5046 77.3265 60.5863 74.7333C66.668 72.1402 71.5789 67.394 74.3779 61.4042C74.5572 61.0403 74.8722 60.7612 75.2551 60.627C75.6381 60.4929 76.0584 60.5143 76.4256 60.6868C76.7929 60.8593 77.0778 61.169 77.2191 61.5493C77.3604 61.9297 77.3468 62.3503 77.1812 62.7207C74.75 67.8768 70.906 72.2373 66.0955 75.2959C61.2851 78.3545 55.7056 79.9857 50.0052 80Z" fill="#E2034D"/>
<path d="M77.5344 57.4974C77.2092 57.4971 76.8914 57.3985 76.6211 57.2141C76.3508 57.0296 76.1402 56.7676 76.0158 56.4611C75.8914 56.1546 75.8588 55.8174 75.9222 55.492C75.9855 55.1666 76.142 54.8677 76.3718 54.633C76.6869 54.3317 77.1026 54.1641 77.5344 54.1641C77.9663 54.1641 78.3821 54.3317 78.6972 54.633C78.927 54.8677 79.0834 55.1666 79.1468 55.492C79.2101 55.8174 79.1775 56.1546 79.0531 56.4611C78.9287 56.7676 78.7181 57.0296 78.4478 57.2141C78.1775 57.3985 77.8596 57.4971 77.5344 57.4974Z" fill="#E2034D"/>
</svg>
