<svg width="36" height="36" viewBox="0 0 36 36" fill="none" xmlns="http://www.w3.org/2000/svg">
<rect opacity="0.01" x="5" y="5" width="26" height="26" fill="white"/>
<path fill-rule="evenodd" clip-rule="evenodd" d="M25.583 14.6848C24.5143 14.3895 23.4291 14.158 22.333 13.9915V11.4998C22.333 9.95169 21.507 8.52114 20.1663 7.74706C18.8256 6.97299 17.1737 6.97299 15.833 7.74706C14.4922 8.52114 13.6663 9.95169 13.6663 11.4998V13.9915C12.5702 14.158 11.4849 14.3895 10.4163 14.6848C9.85007 14.8461 9.37304 15.2293 9.09356 15.7475C8.81407 16.2657 8.75585 16.8748 8.93213 17.4365L10.9363 23.6765C11.9196 26.7478 14.7748 28.8316 17.9996 28.8316C21.2244 28.8316 24.0797 26.7478 25.063 23.6765L27.0671 17.4365C27.2434 16.8748 27.1852 16.2657 26.9057 15.7475C26.6262 15.2293 26.1492 14.8461 25.583 14.6848ZM15.2913 11.5C15.2913 10.0042 16.5039 8.79167 17.9996 8.79167C19.4954 8.79167 20.708 10.0042 20.708 11.5V13.7858C19.8088 13.6992 18.8988 13.6558 17.9996 13.6558C17.1005 13.6558 16.1905 13.6992 15.2913 13.7858V11.5ZM23.5246 23.1785L25.5179 16.9385C25.5594 16.7974 25.5438 16.6457 25.4746 16.516C25.4041 16.3904 25.2876 16.2972 25.1496 16.256C24.2233 15.9964 23.2829 15.7902 22.3329 15.6385C21.8021 15.541 21.2496 15.476 20.7079 15.4218C18.9073 15.234 17.0919 15.234 15.2913 15.4218C14.7496 15.476 14.1971 15.541 13.6663 15.6385C12.7163 15.7902 11.7759 15.9964 10.8496 16.256C10.7116 16.2972 10.5951 16.3904 10.5246 16.516C10.4554 16.6457 10.4398 16.7974 10.4813 16.9385L12.4746 23.1785C13.2449 25.5797 15.4779 27.2084 17.9996 27.2084C20.5213 27.2084 22.7543 25.5797 23.5246 23.1785Z" fill="#121212"/>
<path d="M17.9993 19.6252C17.401 19.6252 16.916 20.1103 16.916 20.7086C16.916 21.3069 17.401 21.7919 17.9993 21.7919C18.5977 21.7919 19.0827 21.3069 19.0827 20.7086C19.0827 20.1103 18.5977 19.6252 17.9993 19.6252Z" fill="#121212"/>
</svg>
