<svg width="36" height="36" viewBox="0 0 36 36" fill="none" xmlns="http://www.w3.org/2000/svg">
<path d="M10.2453 9.94474C8.40714 11.7725 7.26801 14.1868 7.02613 16.7675L5.57285 15.3873L4.41482 16.6037L7.29763 19.3436C7.45638 19.4945 7.66781 19.5774 7.88682 19.5745C8.10583 19.5717 8.31508 19.4835 8.4699 19.3286L8.48494 19.3135L11.2237 16.4359L10.0071 15.2781L8.73745 16.6124C9.0014 14.5368 9.94979 12.6083 11.4327 11.1319C13.1398 9.42206 15.4335 8.42566 17.8485 8.34489C20.2635 8.26411 22.6187 9.10499 24.4363 10.6969C26.2539 12.2888 27.3977 14.5125 27.6355 16.9167C27.8733 19.3209 27.1874 21.7255 25.7169 23.6426C25.6092 23.7819 25.4976 23.9204 25.3805 24.0549L26.658 25.1518C26.7926 24.9935 26.924 24.8336 27.0506 24.669C28.7909 22.4146 29.6061 19.5816 29.3304 16.7472C29.0546 13.9128 27.7086 11.2901 25.5665 9.41317C23.4243 7.53628 20.6472 6.54642 17.8006 6.64519C14.9541 6.74395 12.2522 7.92391 10.2453 9.94474Z" fill="#E2034D"/>
<path d="M10.699 23.7477L9.38258 24.79C10.3897 26.0588 11.6584 27.0957 13.1024 27.8301L13.8615 26.3318C12.6338 25.7077 11.5552 24.8263 10.699 23.7477Z" fill="#E2034D"/>
<path d="M17.8115 27.3484L17.7498 29.0279C19.3682 29.0864 20.9801 28.7939 22.4749 28.1708L21.8289 26.6211C20.557 27.1511 19.1854 27.3998 17.8083 27.35L17.8115 27.3484Z" fill="#E2034D"/>
<path d="M21.3134 17.2828H18.9769V15.5704H21.0784V14.1692H18.9769V13.313H17.5766V14.1692H15.2402C15.1481 14.1692 15.057 14.1873 14.972 14.2226C14.887 14.2579 14.8097 14.3095 14.7447 14.3746C14.6797 14.4398 14.6281 14.5171 14.593 14.6021C14.5579 14.6872 14.5399 14.7784 14.54 14.8704V17.984C14.54 18.1697 14.6138 18.3477 14.7451 18.479C14.8764 18.6103 15.0545 18.684 15.2402 18.684H17.5755V20.3964H15.4739V21.7976H17.5755V22.6538H18.9769V21.7976H21.3122C21.4979 21.7976 21.676 21.7239 21.8073 21.5926C21.9386 21.4613 22.0123 21.2833 22.0123 21.0976V17.9828C22.0123 17.7974 21.9387 17.6195 21.8077 17.4883C21.6766 17.357 21.4988 17.2831 21.3134 17.2828ZM17.5766 17.2828H15.9415V15.5704H17.5766V17.2828ZM20.6132 20.3964H18.9769V18.684H20.6121L20.6132 20.3964Z" fill="#E2034D"/>
</svg>
