<svg width="36" height="36" viewBox="0 0 36 36" fill="none" xmlns="http://www.w3.org/2000/svg">
<g clip-path="url(#clip0_32225_13206)">
<path d="M24.1012 8H11.8989C11.549 8 11.2654 8.28366 11.2654 8.63352V27.3657C11.2654 27.8962 11.8815 28.1922 12.2955 27.8597L13.5865 26.8232L14.5846 27.8151C14.8261 28.0551 15.2142 28.0612 15.4633 27.8289L16.5203 26.8429L17.5659 27.827C17.8154 28.0618 18.2063 28.0557 18.4484 27.8132L19.3896 26.8705L20.3352 27.8141C20.5767 28.0552 20.9659 28.0615 21.2153 27.8284L22.313 26.8024L23.7179 27.87C24.1341 28.1863 24.7347 27.8889 24.7347 27.3656V8.63352C24.7347 8.28366 24.4511 8 24.1012 8V8ZM23.4677 26.0886L22.6541 25.4703C22.4083 25.2835 22.0636 25.3011 21.8382 25.5119L20.797 26.485L19.8363 25.5263C19.5886 25.2791 19.1876 25.2795 18.9404 25.5271L17.9863 26.4828L16.9563 25.5134C16.7132 25.2846 16.3342 25.2837 16.09 25.5115L15.0449 26.4864L14.0778 25.5253C13.8498 25.2988 13.4869 25.2782 13.2346 25.4808L12.5324 26.0446V9.26705H23.4677V26.0886Z" fill="#121212"/>
<path d="M14.5442 12.8051H21.2692C21.619 12.8051 21.9027 12.5215 21.9027 12.1716C21.9027 11.8217 21.619 11.5381 21.2692 11.5381H14.5442C14.1943 11.5381 13.9106 11.8217 13.9106 12.1716C13.9106 12.5215 14.1943 12.8051 14.5442 12.8051Z" fill="#121212"/>
<path d="M14.5442 15.7876H17.2828C17.6327 15.7876 17.9164 15.5039 17.9164 15.154C17.9164 14.8042 17.6327 14.5205 17.2828 14.5205H14.5442C14.1943 14.5205 13.9106 14.8042 13.9106 15.154C13.9106 15.5039 14.1943 15.7876 14.5442 15.7876Z" fill="#121212"/>
<path d="M14.5442 18.7695H18.9869C19.3368 18.7695 19.6204 18.4858 19.6204 18.136C19.6204 17.7861 19.3368 17.5024 18.9869 17.5024H14.5442C14.1943 17.5024 13.9106 17.7861 13.9106 18.136C13.9106 18.4858 14.1943 18.7695 14.5442 18.7695Z" fill="#121212"/>
<path d="M14.5442 21.7514H20.4476C20.7974 21.7514 21.0811 21.4678 21.0811 21.1179C21.0811 20.768 20.7974 20.4844 20.4476 20.4844H14.5442C14.1943 20.4844 13.9106 20.768 13.9106 21.1179C13.9106 21.4678 14.1943 21.7514 14.5442 21.7514Z" fill="#121212"/>
</g>
<defs>
<clipPath id="clip0_32225_13206">
<rect width="20" height="20" fill="white" transform="translate(8 8)"/>
</clipPath>
</defs>
</svg>
