<svg xmlns="http://www.w3.org/2000/svg" width="24" height="16" viewBox="0 0 24 16" fill="none">
<path d="M23.0009 10.4587L23.0008 10.4582C22.9459 9.19386 22.7261 7.79389 22.3969 6.4771L22.3967 6.47611C22.0679 5.2157 21.6556 4.03222 21.1584 3.12058L21.1584 3.12057L21.1575 3.119C20.192 1.42256 19.1738 0.687209 18.0676 0.471614C16.9724 0.258172 15.8088 0.559706 14.5715 0.886C14.5012 0.902973 14.4306 0.920138 14.3596 0.937383C13.6298 1.11467 12.8649 1.30048 12.078 1.3747H11.8142C11.0273 1.30048 10.2624 1.11467 9.53263 0.937383C9.46147 0.920097 9.39064 0.902891 9.32016 0.885878C9.31999 0.885837 9.31982 0.885796 9.31965 0.885755L9.26657 0.872331C8.05001 0.564742 6.90384 0.274951 5.82465 0.485273C4.71823 0.700901 3.69999 1.43643 2.73456 3.14662L2.73455 3.14662L2.73385 3.1479C2.23715 4.05851 1.79729 5.24162 1.49515 6.50492C1.16603 7.82156 0.946341 9.22134 0.891375 10.4855L0.891358 10.486C0.836477 11.8854 0.97283 12.9133 1.28165 13.6432L1.28161 13.6432L1.28284 13.6459C1.59273 14.322 2.04994 14.7561 2.65757 14.9297L2.65757 14.9297L2.6596 14.9303C3.20375 15.0735 3.82753 15.0146 4.47237 14.7345C5.55467 14.2902 6.79433 13.3515 7.99842 12.2295L7.99843 12.2295L7.99979 12.2282C8.81899 11.4354 10.3715 11.027 11.9461 11.027C13.5207 11.027 15.0732 11.4354 15.8924 12.2282L15.8938 12.2295C17.0982 13.3518 18.3383 14.2907 19.4208 14.7349L19.4223 14.7355C20.0622 14.9858 20.6859 15.0742 21.2326 14.9303L21.2326 14.9303L21.2359 14.9294C21.8126 14.7563 22.299 14.3519 22.6103 13.6165C22.9197 12.9129 23.0557 11.8843 23.0009 10.4587ZM7.15213 11.3453L7.15198 11.3454C6.03239 12.3831 4.92471 13.2449 4.0156 13.5927C3.57895 13.7564 3.22809 13.8244 2.96509 13.7288L2.96514 13.7286L2.95965 13.727C2.72427 13.6564 2.52404 13.4663 2.36732 13.1007C2.15764 12.6026 2.04754 11.7739 2.10197 10.5217C2.15631 9.3537 2.34655 8.02205 2.67253 6.77246L2.67265 6.77201C2.97216 5.60118 3.35198 4.51806 3.81016 3.7095L3.81057 3.70877C4.55187 2.37444 5.34266 1.83262 6.18946 1.67895C7.04794 1.52317 7.98132 1.76121 9.02487 2.03583L9.02533 2.03595C9.87199 2.25444 10.7536 2.47506 11.719 2.55781L11.719 2.55818H11.7276H11.7277H11.7279H11.728H11.7282H11.7283H11.7285H11.7287H11.7288H11.729H11.7291H11.7293H11.7294H11.7296H11.7297H11.7299H11.73H11.7302H11.7303H11.7305H11.7306H11.7308H11.7309H11.7311H11.7312H11.7314H11.7315H11.7317H11.7318H11.7319H11.7321H11.7322H11.7324H11.7325H11.7327H11.7328H11.7329H11.7331H11.7332H11.7333H11.7335H11.7336H11.7338H11.7339H11.734H11.7342H11.7343H11.7344H11.7346H11.7347H11.7348H11.735H11.7351H11.7352H11.7354H11.7355H11.7356H11.7357H11.7359H11.736H11.7361H11.7362H11.7364H11.7365H11.7366H11.7368H11.7369H11.737H11.7371H11.7372H11.7374H11.7375H11.7376H11.7377H11.7379H11.738H11.7381H11.7382H11.7383H11.7385H11.7386H11.7387H11.7388H11.7389H11.739H11.7392H11.7393H11.7394H11.7395H11.7396H11.7397H11.7398H11.74H11.7401H11.7402H11.7403H11.7404H11.7405H11.7406H11.7407H11.7408H11.741H11.7411H11.7412H11.7413H11.7414H11.7415H11.7416H11.7417H11.7418H11.7419H11.742H11.7421H11.7422H11.7423H11.7424H11.7426H11.7427H11.7428H11.7429H11.743H11.7431H11.7432H11.7433H11.7434H11.7435H11.7436H11.7437H11.7438H11.7439H11.744H11.7441H11.7442H11.7443H11.7444H11.7445H11.7446H11.7447H11.7448H11.7449H11.745H11.7451H11.7451H11.7452H11.7453H11.7454H11.7455H11.7456H11.7457H11.7458H11.7459H11.746H11.7461H11.7462H11.7463H11.7464H11.7465H11.7466H11.7466H11.7467H11.7468H11.7469H11.747H11.7471H11.7472H11.7473H11.7474H11.7475H11.7476H11.7476H11.7477H11.7478H11.7479H11.748H11.7481H11.7482H11.7483H11.7484H11.7484H11.7485H11.7486H11.7487H11.7488H11.7489H11.749H11.749H11.7491H11.7492H11.7493H11.7494H11.7495H11.7496H11.7496H11.7497H11.7498H11.7499H11.75H11.7501H11.7502H11.7502H11.7503H11.7504H11.7505H11.7506H11.7507H11.7507H11.7508H11.7509H11.751H11.7511H11.7512H11.7512H11.7513H11.7514H11.7515H11.7516H11.7516H11.7517H11.7518H11.7519H11.752H11.7521H11.7521H11.7522H11.7523H11.7524H11.7525H11.7525H11.7526H11.7527H11.7528H11.7529H11.7529H11.753H11.7531H11.7532H11.7533H11.7534H11.7534H11.7535H11.7536H11.7537H11.7538H11.7538H11.7539H11.754H11.7541H11.7542H11.7542H11.7543H11.7544H11.7545H11.7546H11.7546H11.7547H11.7548H11.7549H11.755H11.755H11.7551H11.7552H11.7553H11.7554H11.7554H11.7555H11.7556H11.7557H11.7558H11.7558H11.7559H11.756H11.7561H11.7562H11.7562H11.7563H11.7564H11.7565H11.7566H11.7566H11.7567H11.7568H11.7569H11.757H11.757H11.7571H11.7572H11.7573H11.7574H11.7574H11.7575H11.7576H11.7577H11.7578H11.7579H11.7579H11.758H11.7581H11.7582H11.7583H11.7583H11.7584H11.7585H11.7586H11.7587H11.7588H11.7588H11.7589H11.759H11.7591H11.7592H11.7593H11.7593H11.7594H11.7595H11.7596H11.7597H11.7598H11.7598H11.7599H11.76H11.7601H11.7602H11.7603H11.7604H11.7604H11.7605H11.7606H11.7607H11.7608H11.7609H11.761H11.761H11.7611H11.7612H11.7613H11.7614H11.7615H11.7616H11.7617H11.7618H11.7618H11.7619H11.762H11.7621H11.7622H11.7623H11.7624H11.7625H11.7626H11.7626H11.7627H11.7628H11.7629H11.763H11.7631H11.7632H11.7633H11.7634H11.7635H11.7636H11.7637H11.7637H11.7638H11.7639H11.764H11.7641H11.7642H11.7643H11.7644H11.7645H11.7646H11.7647H11.7648H11.7649H11.765H11.7651H11.7652H11.7653H11.7654H11.7655H11.7656H11.7657H11.7658H11.7659H11.766H11.7661H11.7662H11.7663H11.7664H11.7665H11.7666H11.7667H11.7668H11.7669H11.767H11.7671H11.7672H11.7673H11.7674H11.7675H11.7676H11.7677H11.7678H11.7679H11.768H11.7681H11.7683H11.7684H11.7685H11.7686H11.7687H11.7688H11.7689H11.769H11.7691H11.7692H11.7693H11.7695H11.7696H11.7697H11.7698H11.7699H11.77H11.7701H11.7703H11.7704H11.7705H11.7706H11.7707H11.7708H11.7709H11.7711H11.7712H11.7713H11.7714H11.7715H11.7717H11.7718H11.7719H11.772H11.7721H11.7723H11.7724H11.7725H11.7726H11.7727H11.7729H11.773H11.7731H11.7732H11.7734H11.7735H11.7736H11.7738H11.7739H11.774H11.7741H11.7743H11.7744H11.7745H11.7747H11.7748H11.7749H11.7751H11.7752H11.7753H11.7755H11.7756H11.7757H11.7759H11.776H11.7761H11.7763H11.7764H11.7765H11.7767H11.7768H11.777H11.7771H11.7772H11.7774H11.7775H11.7777H11.7778H11.7779H11.7781H11.7782H11.7784H11.7785H11.7787H11.7788H11.779H11.7791H11.7793H11.7794H11.7796H11.7797H11.7799H11.78H11.7802H11.7803H11.7805H11.7806H11.7808H11.7809H11.7811H11.7812H11.7814H11.7816H11.7817H11.7819H11.782H11.7822H12.0827H12.0829H12.083H12.0832H12.0833H12.0835H12.0836H12.0838H12.084H12.0841H12.0843H12.0844H12.0846H12.0847H12.0849H12.085H12.0852H12.0853H12.0855H12.0856H12.0858H12.0859H12.0861H12.0862H12.0864H12.0865H12.0867H12.0868H12.0869H12.0871H12.0872H12.0874H12.0875H12.0877H12.0878H12.0879H12.0881H12.0882H12.0884H12.0885H12.0886H12.0888H12.0889H12.089H12.0892H12.0893H12.0894H12.0896H12.0897H12.0898H12.09H12.0901H12.0902H12.0904H12.0905H12.0906H12.0908H12.0909H12.091H12.0911H12.0913H12.0914H12.0915H12.0916H12.0918H12.0919H12.092H12.0921H12.0923H12.0924H12.0925H12.0926H12.0928H12.0929H12.093H12.0931H12.0932H12.0934H12.0935H12.0936H12.0937H12.0938H12.0939H12.0941H12.0942H12.0943H12.0944H12.0945H12.0946H12.0948H12.0949H12.095H12.0951H12.0952H12.0953H12.0954H12.0955H12.0957H12.0958H12.0959H12.096H12.0961H12.0962H12.0963H12.0964H12.0965H12.0966H12.0967H12.0969H12.097H12.0971H12.0972H12.0973H12.0974H12.0975H12.0976H12.0977H12.0978H12.0979H12.098H12.0981H12.0982H12.0983H12.0984H12.0985H12.0986H12.0987H12.0988H12.0989H12.099H12.0991H12.0992H12.0993H12.0994H12.0995H12.0996H12.0997H12.0998H12.0999H12.1H12.1001H12.1002H12.1003H12.1004H12.1005H12.1006H12.1007H12.1008H12.1009H12.101H12.101H12.1011H12.1012H12.1013H12.1014H12.1015H12.1016H12.1017H12.1018H12.1019H12.102H12.1021H12.1022H12.1022H12.1023H12.1024H12.1025H12.1026H12.1027H12.1028H12.1029H12.103H12.1031H12.1031H12.1032H12.1033H12.1034H12.1035H12.1036H12.1037H12.1038H12.1038H12.1039H12.104H12.1041H12.1042H12.1043H12.1044H12.1044H12.1045H12.1046H12.1047H12.1048H12.1049H12.105H12.105H12.1051H12.1052H12.1053H12.1054H12.1055H12.1055H12.1056H12.1057H12.1058H12.1059H12.106H12.106H12.1061H12.1062H12.1063H12.1064H12.1065H12.1065H12.1066H12.1067H12.1068H12.1069H12.107H12.107H12.1071H12.1072H12.1073H12.1074H12.1074H12.1075H12.1076H12.1077H12.1078H12.1078H12.1079H12.108H12.1081H12.1082H12.1083H12.1083H12.1084H12.1085H12.1086H12.1087H12.1087H12.1088H12.1089H12.109H12.1091H12.1091H12.1092H12.1093H12.1094H12.1095H12.1095H12.1096H12.1097H12.1098H12.1099H12.1099H12.11H12.1101H12.1102H12.1103H12.1103H12.1104H12.1105H12.1106H12.1107H12.1107H12.1108H12.1109H12.111H12.1111H12.1111H12.1112H12.1113H12.1114H12.1115H12.1115H12.1116H12.1117H12.1118H12.1119H12.1119H12.112H12.1121H12.1122H12.1123H12.1123H12.1124H12.1125H12.1126H12.1127H12.1128H12.1128H12.1129H12.113H12.1131H12.1132H12.1132H12.1133H12.1134H12.1135H12.1136H12.1137H12.1137H12.1138H12.1139H12.114H12.1141H12.1142H12.1142H12.1143H12.1144H12.1145H12.1146H12.1147H12.1147H12.1148H12.1149H12.115H12.1151H12.1152H12.1152H12.1153H12.1154H12.1155H12.1156H12.1157H12.1158H12.1158H12.1159H12.116H12.1161H12.1162H12.1163H12.1164H12.1165H12.1165H12.1166H12.1167H12.1168H12.1169H12.117H12.1171H12.1172H12.1172H12.1173H12.1174H12.1175H12.1176H12.1177H12.1178H12.1179H12.118H12.1181H12.1182H12.1182H12.1183H12.1184H12.1185H12.1186H12.1187H12.1188H12.1189H12.119H12.1191H12.1192H12.1193H12.1194H12.1195H12.1196H12.1196H12.1197H12.1198H12.1199H12.12H12.1201H12.1202H12.1203H12.1204H12.1205H12.1206H12.1207H12.1208H12.1209H12.121H12.1211H12.1212H12.1213H12.1214H12.1215H12.1216H12.1217H12.1218H12.1219H12.122H12.1221H12.1222H12.1223H12.1224H12.1225H12.1227H12.1228H12.1229H12.123H12.1231H12.1232H12.1233H12.1234H12.1235H12.1236H12.1237H12.1238H12.1239H12.124H12.1242H12.1243H12.1244H12.1245H12.1246H12.1247H12.1248H12.1249H12.1251H12.1252H12.1253H12.1254H12.1255H12.1256H12.1257H12.1259H12.126H12.1261H12.1262H12.1263H12.1264H12.1266H12.1267H12.1268H12.1269H12.127H12.1272H12.1273H12.1274H12.1275H12.1276H12.1278H12.1279H12.128H12.1281H12.1283H12.1284H12.1285H12.1286H12.1288H12.1289H12.129H12.1292H12.1293H12.1294H12.1295H12.1297H12.1298H12.1299H12.1301H12.1302H12.1303H12.1305H12.1306H12.1307H12.1309H12.131H12.1311H12.1313H12.1314H12.1315H12.1317H12.1318H12.132H12.1321H12.1322H12.1324H12.1325H12.1327H12.1328H12.1329H12.1331H12.1332H12.1334H12.1335H12.1337H12.1338H12.134H12.1341H12.1343H12.1344H12.1346H12.1347H12.1349H12.135H12.1352H12.1353H12.1355H12.1356H12.1358H12.1359H12.1361H12.1362H12.1364H12.1365H12.1367H12.1369H12.137H12.1372H12.1373V2.55852L12.1456 2.55783C13.1383 2.47511 14.0198 2.25454 14.8665 2.03604C14.8666 2.03601 14.8668 2.03598 14.8669 2.03595L14.9075 2.0258C15.9354 1.76877 16.8554 1.5387 17.7031 1.68927C18.5499 1.83966 19.3405 2.37474 20.0816 3.70877L20.0821 3.7095C20.5403 4.51821 20.92 5.57398 21.2193 6.77093C21.5188 8.02336 21.736 9.32798 21.7902 10.5218C21.8446 11.7734 21.7347 12.6022 21.4977 13.1551C21.3412 13.5202 21.1414 13.7103 20.9065 13.7813C20.6361 13.8546 20.2782 13.808 19.8501 13.6476C18.9123 13.2722 17.8042 12.4366 16.7147 11.4017C15.65 10.3377 13.789 9.8162 11.9461 9.8162C10.1021 9.8162 8.24304 10.3383 7.15213 11.3453Z" fill="#ffffff" stroke="#ffffff" stroke-width="0.2"/>
<path d="M9.43235 5.13497C9.15917 4.8891 8.83134 4.69787 8.44888 4.67055C8.42156 4.31541 8.25765 3.96026 8.01178 3.71439L7.98446 3.68708C7.68395 3.38657 7.30149 3.22266 6.86439 3.22266C6.42729 3.22266 6.01751 3.41389 5.74432 3.68708C5.49845 3.93294 5.30722 4.28809 5.2799 4.67055C4.89744 4.69787 4.56961 4.86178 4.29643 5.10765L4.26911 5.13497C3.9686 5.43548 3.80469 5.81794 3.80469 6.25504C3.80469 6.69214 3.99592 7.10192 4.26911 7.37511C4.54229 7.6483 4.87012 7.81221 5.2799 7.83953C5.30722 8.22199 5.47113 8.57714 5.74432 8.823C6.04483 9.12351 6.42729 9.28742 6.86439 9.28742C7.30149 9.28742 7.71127 9.09619 7.98446 8.823C8.23033 8.54982 8.42156 8.22199 8.44888 7.83953C8.83134 7.81221 9.18648 7.6483 9.43235 7.37511C9.73286 7.0746 9.89677 6.69214 9.89677 6.25504C9.89677 5.81794 9.70554 5.40816 9.43235 5.13497ZM8.74938 6.66482C8.64011 6.7741 8.50351 6.82873 8.3396 6.82873H7.95714C7.68395 6.82873 7.43808 7.04728 7.43808 7.34779V7.70293C7.43808 7.86685 7.38345 8.00344 7.27417 8.11272C7.1649 8.22199 7.0283 8.27663 6.86439 8.27663C6.70048 8.27663 6.56388 8.22199 6.45461 8.11272C6.34533 8.00344 6.2907 7.86685 6.2907 7.70293V7.32047C6.2907 7.04728 6.07214 6.80141 5.77164 6.80141H5.38918C5.22526 6.80141 5.08867 6.74678 4.97939 6.6375C4.89744 6.55555 4.81548 6.41895 4.81548 6.25504C4.81548 6.09113 4.87012 5.95453 4.97939 5.84526C4.97939 5.84526 4.97939 5.84526 5.00671 5.81794C5.11599 5.73598 5.25258 5.68135 5.38918 5.68135H5.77164C6.04483 5.68135 6.2907 5.4628 6.2907 5.16229V4.77983C6.2907 4.61591 6.34533 4.47932 6.45461 4.37004C6.56388 4.26077 6.70048 4.20613 6.86439 4.20613C7.0283 4.20613 7.1649 4.26077 7.27417 4.37004C7.27417 4.37004 7.27417 4.37004 7.30149 4.39736C7.38345 4.50664 7.43808 4.64323 7.43808 4.77983V5.16229C7.43808 5.43548 7.65663 5.68135 7.95714 5.68135H8.3396C8.50351 5.68135 8.64011 5.73598 8.74938 5.84526C8.85866 5.95453 8.9133 6.09113 8.9133 6.25504C8.9133 6.41895 8.85866 6.55555 8.74938 6.66482Z" fill="#ffffff"/>
<path d="M16.6993 5.272C17.2274 5.272 17.6555 4.84384 17.6555 4.31569C17.6555 3.78753 17.2274 3.35938 16.6993 3.35938C16.1713 3.35938 15.7432 3.78753 15.7432 4.31569C15.7432 4.84384 16.1713 5.272 16.6993 5.272Z" fill="#ffffff"/>
<path d="M16.6993 9.15091C17.2274 9.15091 17.6555 8.72275 17.6555 8.19459C17.6555 7.66644 17.2274 7.23828 16.6993 7.23828C16.1713 7.23828 15.7432 7.66644 15.7432 8.19459C15.7432 8.72275 16.1713 9.15091 16.6993 9.15091Z" fill="#ffffff"/>
<path d="M14.7599 7.21243C15.2879 7.21243 15.716 6.78427 15.716 6.25612C15.716 5.72796 15.2879 5.2998 14.7599 5.2998C14.2318 5.2998 13.8037 5.72796 13.8037 6.25612C13.8037 6.78427 14.2318 7.21243 14.7599 7.21243Z" fill="#ffffff"/>
<path d="M18.6388 7.21243C19.1668 7.21243 19.5949 6.78427 19.5949 6.25612C19.5949 5.72796 19.1668 5.2998 18.6388 5.2998C18.1107 5.2998 17.6826 5.72796 17.6826 6.25612C17.6826 6.78427 18.1107 7.21243 18.6388 7.21243Z" fill="#ffffff"/>
</svg>