<svg width="30" height="30" viewBox="0 0 30 30" fill="none" xmlns="http://www.w3.org/2000/svg">
<path d="M19.7698 6.16205C18.328 5.40184 16.7052 5 15.0762 5H15.0647C9.51538 5 5.00001 9.51601 5.00001 15.0672C4.99823 16.6834 5.39284 18.2952 6.13683 19.7198L6.33103 20.0968C6.38867 20.206 6.40108 20.3364 6.38069 20.4082C6.0987 21.1454 5.86548 21.9064 5.68636 22.6693C5.67483 22.7181 5.66862 22.7687 5.66685 22.8175C5.65355 23.245 5.76705 23.5848 6.00559 23.8269C6.16077 23.9848 6.44276 24.172 6.90565 24.172C6.96329 24.1738 7.02625 24.1658 7.08477 24.1534C7.77467 23.999 8.79622 23.6273 9.54287 23.3568L9.74505 23.2832C10.1361 23.1421 10.3392 22.7092 10.1973 22.318C10.0554 21.926 9.62001 21.7211 9.2325 21.8656L9.02766 21.9393C8.52842 22.1211 7.83763 22.3722 7.27188 22.5425C7.41731 22.0014 7.59377 21.4576 7.80571 20.8987C7.95912 20.4002 7.9068 19.8494 7.67003 19.4058L7.47672 19.0279C6.84092 17.8118 6.50572 16.4431 6.50749 15.0681C6.50749 10.3481 10.3472 6.508 15.0656 6.508H15.0753C16.4614 6.508 17.8411 6.84952 19.0666 7.49618C23.2406 9.69786 24.8456 14.8863 22.6447 19.0608C20.8508 22.4635 16.9792 24.2634 13.2291 23.4295C12.8203 23.3417 12.4186 23.5963 12.3291 24.0026C12.2395 24.4088 12.4958 24.8116 12.9019 24.902C13.6228 25.0617 14.3473 25.1389 15.0647 25.1389C18.7368 25.1389 22.2129 23.1128 23.9784 19.7642C26.5668 14.8534 24.6789 8.75226 19.7698 6.16205Z" fill="#121212"/>
<path d="M19.0741 16.5605C19.0235 16.4791 18.8915 16.4296 18.6935 16.3312C18.4955 16.2327 17.5193 15.7565 17.3384 15.6921C17.1575 15.6278 17.0233 15.5926 16.8913 15.79C16.7593 15.9875 16.3798 16.4302 16.2632 16.56C16.1466 16.6898 16.0322 16.7085 15.8337 16.6111C15.2499 16.3795 14.7104 16.0491 14.2388 15.6344C13.8055 15.2372 13.4336 14.7777 13.1356 14.271C13.019 14.0742 13.1235 13.968 13.222 13.8701C13.3105 13.7816 13.4205 13.6402 13.52 13.5242C13.6021 13.4246 13.669 13.3134 13.7186 13.1942C13.7445 13.1397 13.7566 13.0795 13.7537 13.0192C13.7508 12.9588 13.7331 12.9001 13.7021 12.8483C13.6526 12.7493 13.2566 11.7819 13.0905 11.3876C12.9244 10.9933 12.7605 11.0576 12.6445 11.0576C12.5285 11.0576 12.3965 11.0417 12.2645 11.0417C12.1642 11.0439 12.0655 11.0668 11.9745 11.109C11.8836 11.1512 11.8023 11.2118 11.736 11.287C11.5123 11.4972 11.335 11.7518 11.2155 12.0345C11.096 12.3172 11.0369 12.6217 11.0419 12.9286C11.1066 13.6715 11.3881 14.3791 11.8515 14.9634C11.9516 15.0943 13.2264 17.1473 15.2409 17.9332C17.2553 18.7191 17.2587 18.4579 17.6216 18.4243C17.8979 18.3713 18.16 18.2607 18.3906 18.0996C18.6213 17.9385 18.8153 17.7306 18.9602 17.4894C19.0876 17.1974 19.1276 16.8746 19.0741 16.5605Z" fill="#121212"/>
</svg>
