<svg width="148" height="46" viewBox="0 0 148 46" fill="none" xmlns="http://www.w3.org/2000/svg">
<path d="M13.2265 5.49244C13.1988 5.47828 13.1669 5.46234 13.1527 5.45467C13.1409 5.44935 13.1067 5.45408 13.0777 5.46706L9.35005 7.28457C9.32407 7.29756 9.32407 7.3076 9.35418 7.3076L16.8964 7.31055C16.9265 7.31055 16.9312 7.29992 16.9046 7.28753L13.2265 5.49244Z" fill="white"/>
<path d="M13.1222 -8.04032e-05C5.8929 -0.00303187 0.00295164 5.88042 1.77643e-07 13.1133C-0.00118041 20.345 5.88227 26.2331 13.1134 26.2361C20.3462 26.239 26.2332 20.3532 26.2362 13.1227C26.2373 5.88927 20.3574 0.00287106 13.1222 -8.04032e-05ZM20.5068 20.7399C20.508 20.7611 20.4908 20.7788 20.469 20.7794L5.76657 20.7747C5.74355 20.7747 5.72643 20.7564 5.7282 20.734L5.72643 19.2547C5.72643 19.2334 5.74355 19.2163 5.76421 19.2163L20.472 19.2216C20.4891 19.2216 20.508 19.2399 20.508 19.26L20.5068 20.7399ZM10.6058 16.867L10.6087 9.41627H12.2982L12.297 16.8693L13.9433 16.8699L13.9474 9.41804L15.6345 9.41923L15.6316 16.8717L17.3151 16.8723L17.318 9.41923L19.0033 9.41982L18.9974 16.8729H19.7435L19.7447 18.3905C19.7435 18.4123 19.7288 18.4283 19.7058 18.4283L6.53159 18.4236C6.5127 18.4236 6.49263 18.407 6.49086 18.3846L6.49263 16.8681H7.23935L7.24231 9.41568L8.92228 9.41627V16.8664L10.6058 16.867ZM21.0068 7.84786L20.5387 8.66601C20.5269 8.69139 20.4879 8.71323 20.459 8.71323L5.79432 8.70792C5.76421 8.70792 5.7282 8.68726 5.71345 8.66188L5.24652 7.84373C5.23354 7.81658 5.24239 7.7847 5.26955 7.77231L13.0803 3.619C13.1063 3.60484 13.1482 3.60484 13.1759 3.619L20.9849 7.77585C21.0127 7.78943 21.0209 7.82307 21.0068 7.84786Z" fill="white"/>
<path d="M32.8303 17.9678C32.962 17.9324 33.1668 17.8964 33.4478 17.8604C33.7264 17.825 33.9956 17.8067 34.2453 17.8079L34.25 8.67779C33.9967 8.6772 33.7305 8.65949 33.4531 8.62289C33.1686 8.58747 32.9649 8.55206 32.8345 8.51428L32.8333 7.28115L37.9352 7.28293C38.4847 7.28411 39.0048 7.33428 39.4947 7.43581C39.9817 7.53557 40.4097 7.70321 40.781 7.93697C41.154 8.16896 41.4386 8.47119 41.6499 8.84779C41.8577 9.22263 41.9633 9.68601 41.9622 10.232C41.9622 10.9835 41.7626 11.5785 41.3636 12.0183C40.9693 12.4598 40.4427 12.7638 39.7899 12.9291V12.9657C40.1464 13.0247 40.4923 13.131 40.8217 13.2797C41.1511 13.4296 41.4374 13.6244 41.6829 13.8606C41.9285 14.102 42.1209 14.3853 42.2656 14.7165C42.4102 15.0429 42.4793 15.4225 42.4793 15.854C42.4793 16.4531 42.3653 16.962 42.1381 17.3858C41.9114 17.8102 41.5979 18.1579 41.196 18.4259C40.794 18.6951 40.3117 18.8922 39.7521 19.0162C39.1872 19.1431 38.5686 19.2057 37.8862 19.2051L32.8303 19.2039V17.9678ZM36.2328 12.3317L37.6837 12.3323C38.4718 12.3317 39.0437 12.1782 39.4009 11.8677C39.7592 11.5596 39.9398 11.1039 39.9398 10.4959C39.9416 9.33419 39.2073 8.75098 37.7386 8.75098L36.2357 8.74862L36.2328 12.3317ZM36.231 17.7187L37.8142 17.7193C38.7026 17.7193 39.3548 17.5646 39.7751 17.253C40.193 16.9454 40.4038 16.4484 40.4038 15.769C40.4056 15.1238 40.209 14.6226 39.8188 14.2649C39.4286 13.9078 38.7911 13.7277 37.9063 13.7277H36.2328L36.231 17.7187Z" fill="white"/>
<path d="M45.887 19.4236C45.5169 19.4242 45.1775 19.3705 44.8682 19.2624C44.5559 19.1556 44.2897 18.9962 44.0612 18.7867C43.8334 18.5789 43.6569 18.328 43.5253 18.0352C43.3936 17.7418 43.3287 17.406 43.3316 17.024C43.3305 16.4627 43.4633 15.991 43.7319 15.6103C44.001 15.2278 44.3552 14.9196 44.7885 14.6888C45.2265 14.4563 45.7194 14.2898 46.276 14.1895C46.8309 14.0873 47.3929 14.036 47.9672 14.0354L48.2877 14.036L48.2895 13.3093C48.2919 12.7881 48.1691 12.4109 47.9324 12.1819C47.6921 11.9487 47.2949 11.8342 46.7311 11.8336C46.289 11.8342 45.8799 11.9174 45.5057 12.0839C45.1285 12.2509 44.7814 12.4717 44.4573 12.7474L43.6191 11.5603C43.9981 11.2114 44.4632 10.9192 45.0157 10.6831C45.5618 10.4464 46.2022 10.3295 46.9307 10.3307C48.0133 10.3313 48.8296 10.571 49.3733 11.0479C49.9169 11.5249 50.1885 12.3064 50.1867 13.392L50.1855 17.027C50.1855 17.1929 50.1885 17.3452 50.1944 17.4833C50.1973 17.6208 50.2086 17.7542 50.2215 17.8865C50.4701 17.9095 50.7044 17.9278 50.9187 17.9402C51.1335 17.9514 51.3189 17.9573 51.4736 17.9579V19.2105C51.2103 19.2335 50.816 19.2571 50.2835 19.2813C49.7534 19.3067 49.1696 19.3179 48.538 19.3167C48.5032 19.1981 48.4701 19.0405 48.4483 18.8433C48.4235 18.6468 48.4135 18.4283 48.4135 18.1899L48.3775 18.1893C48.139 18.511 47.8078 18.7973 47.3816 19.0493C46.9608 19.3008 46.4608 19.4242 45.887 19.4236ZM46.3711 17.9903C46.812 17.9909 47.1922 17.9018 47.5086 17.7241C47.8267 17.5447 48.0853 17.318 48.2877 17.0429V15.2355H47.9672C47.1561 15.2355 46.4956 15.3565 45.9885 15.6008C45.4821 15.8464 45.2265 16.2785 45.2253 16.9001C45.2265 17.292 45.3493 17.5748 45.6025 17.7407C45.8522 17.9077 46.1096 17.9903 46.3711 17.9903Z" fill="white"/>
<path d="M52.3411 17.9745C52.4739 17.9409 52.6704 17.9037 52.9319 17.8689C53.194 17.8335 53.4467 17.8157 53.6869 17.814V11.8904C53.4107 11.8674 53.1551 11.8479 52.9148 11.8361C52.6793 11.8231 52.4886 11.8172 52.344 11.8172V10.5841C52.6185 10.5469 53.0553 10.5138 53.6521 10.4849C54.2489 10.456 54.9035 10.4394 55.6207 10.4394L55.5511 11.8007L55.5859 11.8001C55.9082 11.3715 56.2895 11.0197 56.7323 10.7458C57.1726 10.4719 57.7092 10.3338 58.3408 10.3344C58.806 10.3338 59.205 10.4046 59.5314 10.5492C59.8596 10.6921 60.1258 10.8892 60.3295 11.1407C60.532 11.391 60.6807 11.6826 60.7746 12.0173C60.8684 12.352 60.9163 12.7091 60.9163 13.0916V17.8181C61.1559 17.8175 61.4021 17.8394 61.6594 17.8807C61.9138 17.9238 62.1045 17.9562 62.2214 17.9787V19.2153L57.7481 19.2124V17.9769C57.865 17.9527 58.0457 17.9255 58.2859 17.8884C58.5244 17.8523 58.7688 17.8293 59.0185 17.8175L59.0202 13.4145C59.0202 12.9258 58.9205 12.548 58.7192 12.2865C58.5126 12.022 58.1655 11.8916 57.6773 11.891C57.2281 11.8916 56.8261 12.0273 56.479 12.3024C56.1307 12.5775 55.8403 12.8744 55.6018 13.1967L55.6001 17.8163C55.8391 17.8287 56.0818 17.8512 56.3244 17.8878C56.5699 17.9238 56.7523 17.9527 56.871 17.9769V19.2124L52.3428 19.2118L52.3411 17.9745Z" fill="white"/>
<path d="M68.0635 12.8802C68.0505 12.732 68.0375 12.5667 68.0304 12.4038C68.0157 12.2444 68.0086 12.0916 68.0103 11.9481C67.7211 11.8301 67.3711 11.7716 66.952 11.7704C66.5588 11.771 66.2123 11.8501 65.916 12.0101C65.6179 12.1718 65.3694 12.3914 65.1716 12.6718C64.978 12.9522 64.8245 13.281 64.7248 13.6564C64.6209 14.0336 64.5701 14.4421 64.5689 14.8825C64.5701 15.3122 64.6238 15.7159 64.7307 16.0926C64.8375 16.4674 64.9963 16.7938 65.2059 17.0665C65.4142 17.3422 65.6704 17.5594 65.975 17.72C66.2814 17.8811 66.6356 17.9626 67.0417 17.9638C67.3032 17.9626 67.5458 17.939 67.7689 17.8918C67.9885 17.8451 68.1833 17.7843 68.3568 17.7129C68.5292 17.6427 68.6762 17.5689 68.8049 17.498C68.9324 17.426 69.0274 17.3676 69.1012 17.3186L69.724 18.609C69.6272 18.6792 69.4991 18.7607 69.3338 18.8504C69.1632 18.939 68.9554 19.0293 68.714 19.1178C68.4684 19.2081 68.1892 19.2819 67.8728 19.3433C67.5564 19.4011 67.2005 19.4307 66.8061 19.4307C66.1279 19.4301 65.5223 19.3209 64.9963 19.0989C64.4721 18.8787 64.0294 18.5712 63.667 18.1769C63.3028 17.782 63.0277 17.3174 62.8358 16.7797C62.6405 16.2437 62.5466 15.6575 62.5484 15.0259C62.5484 14.2857 62.6593 13.6234 62.8819 13.0384C63.1062 12.4528 63.4137 11.9617 63.814 11.5626C64.2118 11.1618 64.6758 10.8572 65.2088 10.6501C65.7395 10.4423 66.3233 10.3372 66.952 10.3378C67.5735 10.3384 68.1054 10.408 68.5463 10.5527C68.9885 10.6955 69.3125 10.846 69.5132 11.0013V12.8808L68.0635 12.8802Z" fill="white"/>
<path d="M74.4901 19.4343C73.7487 19.432 73.1142 19.3045 72.5864 19.0477C72.0564 18.7915 71.6243 18.4515 71.2913 18.0347C70.9578 17.6174 70.7146 17.1422 70.5576 16.6039C70.4053 16.0661 70.3274 15.5171 70.3274 14.9564C70.3292 14.4204 70.4083 13.8767 70.5688 13.3277C70.7276 12.7794 70.9767 12.2829 71.3132 11.8426C71.6473 11.4004 72.0723 11.0398 72.5982 10.76C73.1212 10.479 73.7517 10.3397 74.4919 10.3403C75.2315 10.3385 75.8679 10.4666 76.4039 10.724C76.9387 10.9813 77.3779 11.3202 77.7232 11.7387C78.0691 12.1554 78.3259 12.6324 78.4923 13.1719C78.66 13.7061 78.7426 14.2557 78.7408 14.8171C78.7408 15.3406 78.6588 15.8778 78.4911 16.4268C78.3259 16.9763 78.0673 17.4746 77.719 17.9226C77.3749 18.3688 76.9369 18.7325 76.3997 19.0134C75.8649 19.2927 75.2245 19.4343 74.4901 19.4343ZM74.5232 17.9999C74.9163 17.9999 75.2475 17.9226 75.5208 17.7585C75.7953 17.5997 76.0225 17.3807 76.2002 17.1068C76.3791 16.8317 76.5107 16.5053 76.5945 16.1222C76.6772 15.7403 76.7203 15.3347 76.7203 14.9056C76.7203 14.4753 76.6754 14.0697 76.5857 13.6866C76.4965 13.3071 76.3631 12.9753 76.1843 12.692C76.0078 12.4128 75.7752 12.1903 75.4978 12.0226C75.2186 11.855 74.8833 11.7723 74.4901 11.7723C74.1118 11.7723 73.7847 11.8526 73.5085 12.0138C73.2369 12.1743 73.0103 12.3927 72.8397 12.6666C72.6691 12.9393 72.5434 13.2664 72.4666 13.6424C72.3899 14.0178 72.348 14.4204 72.3509 14.8495C72.3497 15.2798 72.3928 15.6866 72.4755 16.0679C72.5593 16.4498 72.685 16.7821 72.8568 17.069C73.0292 17.3565 73.2547 17.5838 73.525 17.7502C73.7977 17.9167 74.1318 17.9981 74.5232 17.9999Z" fill="white"/>
<path d="M83.2707 17.987C83.4006 17.9516 83.6078 17.9156 83.8882 17.8807C84.1668 17.8441 84.4354 17.827 84.6845 17.827L84.6886 8.69754C84.4401 8.69754 84.1697 8.67747 83.8911 8.64206C83.6119 8.60723 83.4053 8.57122 83.2737 8.53521L83.2725 7.29914L86.5864 7.30091L91.6511 14.4092C91.9374 14.8035 92.1971 15.179 92.4374 15.5379C92.6741 15.8962 92.8246 16.1406 92.8825 16.2728H92.9202C92.9084 16.1535 92.8966 15.9404 92.8825 15.6353C92.8724 15.3324 92.8677 14.9535 92.8695 14.4995V8.70109C92.6192 8.69991 92.3547 8.68043 92.0814 8.64501C91.8058 8.61018 91.6033 8.57299 91.4728 8.53876V7.30327L95.9839 7.30445L95.9886 8.53876C95.8528 8.57476 95.6503 8.61254 95.3753 8.6456C95.0978 8.68161 94.8422 8.70109 94.6067 8.70109L94.6026 19.2278L92.8488 19.2272L87.4972 11.7228C87.3638 11.5445 87.2381 11.3627 87.1123 11.178C86.9854 10.9932 86.8768 10.8196 86.7847 10.6579C86.6861 10.4979 86.6035 10.3563 86.5315 10.2364C86.4607 10.1184 86.4146 10.0346 86.3886 9.98793H86.3509C86.3768 10.093 86.3928 10.3002 86.4058 10.603C86.4187 10.9094 86.4246 11.2039 86.4229 11.4908L86.4217 17.827C86.6602 17.8376 86.9175 17.8607 87.1979 17.8896C87.4795 17.9203 87.6849 17.9539 87.8177 17.9888L87.8166 19.2242L83.2695 19.2231L83.2707 17.987Z" fill="white"/>
<path d="M98.7956 19.4416C98.4243 19.4422 98.0831 19.3897 97.775 19.2805C97.4616 19.1737 97.1942 19.0155 96.9687 18.8065C96.7432 18.5975 96.5626 18.3467 96.4327 18.0533C96.2993 17.7623 96.2343 17.4252 96.2361 17.0433C96.2361 16.4813 96.3719 16.0103 96.6375 15.6284C96.9096 15.2464 97.2609 14.9389 97.6959 14.7075C98.131 14.4743 98.6262 14.3079 99.1799 14.2052C99.7366 14.1054 100.299 14.054 100.872 14.054L101.196 14.0546L101.195 13.3274C101.195 12.8062 101.077 12.4296 100.838 12.1976C100.598 11.9679 100.202 11.8528 99.6368 11.8528C99.1958 11.8528 98.7915 11.9349 98.4113 12.1031C98.0336 12.269 97.6859 12.4886 97.3659 12.7648L96.5265 11.5784C96.9049 11.2283 97.3718 10.9367 97.9226 10.7024C98.4692 10.4662 99.1067 10.3494 99.8375 10.3488C100.92 10.3494 101.735 10.5872 102.282 11.0648C102.823 11.5429 103.092 12.3257 103.091 13.4112L103.09 17.0468C103.091 17.2115 103.094 17.3638 103.1 17.5014C103.105 17.6407 103.114 17.7723 103.129 17.9045C103.38 17.9287 103.611 17.9464 103.827 17.9588C104.041 17.9712 104.225 17.9754 104.38 17.9754V19.2297C104.116 19.2533 103.722 19.277 103.191 19.3006C102.66 19.3248 102.076 19.3366 101.444 19.336C101.409 19.2162 101.38 19.0585 101.355 18.8614C101.334 18.6642 101.319 18.447 101.319 18.2085L101.284 18.2079C101.043 18.5296 100.712 18.8159 100.288 19.0668C99.8664 19.3171 99.3694 19.4422 98.7956 19.4416ZM99.2785 18.0084C99.7194 18.009 100.099 17.9222 100.414 17.7428C100.731 17.5633 100.991 17.3373 101.195 17.0622L101.193 15.2535H100.871C100.06 15.2529 99.4025 15.3745 98.8954 15.6189C98.3848 15.8651 98.1351 16.2966 98.1333 16.9158C98.1333 17.3113 98.2579 17.5928 98.5093 17.7593C98.7638 17.9264 99.0152 18.009 99.2785 18.0084" fill="white"/>
<path d="M110.241 12.8873C110.231 12.7368 110.218 12.5815 110.208 12.421C110.195 12.2592 110.19 12.1075 110.19 11.9623C109.901 11.8466 109.548 11.784 109.132 11.784C108.738 11.784 108.392 11.8649 108.093 12.0267C107.794 12.1866 107.548 12.4068 107.35 12.6872C107.157 12.967 107.005 13.2964 106.902 13.6724C106.804 14.0496 106.749 14.4557 106.747 14.8978C106.749 15.3276 106.805 15.7313 106.909 16.1068C107.021 16.4828 107.174 16.808 107.388 17.0825C107.595 17.357 107.851 17.5736 108.155 17.7371C108.459 17.8971 108.814 17.978 109.22 17.9786C109.482 17.9786 109.726 17.9556 109.944 17.9066C110.166 17.8599 110.362 17.7991 110.537 17.7283C110.708 17.6563 110.858 17.5849 110.983 17.514C111.107 17.442 111.208 17.3806 111.28 17.3352L111.904 18.6249C111.81 18.6952 111.679 18.7755 111.513 18.8652C111.343 18.9549 111.137 19.0446 110.891 19.1332C110.649 19.2223 110.368 19.2973 110.053 19.3551C109.734 19.4165 109.38 19.446 108.985 19.446C108.307 19.446 107.703 19.3339 107.175 19.1131C106.651 18.8941 106.208 18.5854 105.845 18.1923C105.485 17.7974 105.208 17.3316 105.017 16.7956C104.824 16.2585 104.727 15.6741 104.728 15.0407C104.73 14.3011 104.84 13.6387 105.063 13.0538C105.284 12.4688 105.594 11.9771 105.993 11.5786C106.389 11.1784 106.856 10.8738 107.386 10.6648C107.921 10.4571 108.502 10.3508 109.133 10.352C109.752 10.352 110.286 10.4246 110.725 10.5669C111.166 10.7115 111.487 10.8608 111.691 11.0149L111.693 12.8879L110.241 12.8873Z" fill="white"/>
<path d="M112.89 17.9974C113.016 17.9614 113.212 17.9271 113.47 17.8905C113.729 17.8551 113.975 17.8368 114.214 17.8362L114.216 11.9126C113.945 11.8878 113.689 11.8707 113.455 11.8577C113.222 11.8477 113.032 11.84 112.891 11.8394L112.89 10.6039C113.164 10.5673 113.607 10.5349 114.206 10.5071C114.812 10.477 115.486 10.4611 116.22 10.4623L116.151 11.8778L116.148 17.8386C116.384 17.8386 116.629 17.8581 116.88 17.8994C117.129 17.9419 117.321 17.9749 117.453 17.9991L117.451 19.2346L112.89 19.2334V17.9974ZM115.175 9.3962C114.863 9.3962 114.598 9.287 114.385 9.07213C114.172 8.85845 114.062 8.60108 114.062 8.29826C114.063 7.99721 114.172 7.73984 114.386 7.52556C114.599 7.31129 114.863 7.20385 115.173 7.20503C115.496 7.20385 115.765 7.31129 115.971 7.52674C116.181 7.74161 116.285 7.99839 116.285 8.30003C116.285 8.60108 116.18 8.85845 115.971 9.07213C115.763 9.28759 115.496 9.3962 115.175 9.3962Z" fill="white"/>
<path d="M122.238 19.4514C121.5 19.4508 120.868 19.3221 120.334 19.0654C119.808 18.8092 119.373 18.4715 119.042 18.053C118.711 17.6363 118.464 17.1581 118.31 16.621C118.156 16.0844 118.077 15.5354 118.077 14.9746C118.077 14.4375 118.16 13.8932 118.319 13.3454C118.482 12.7976 118.728 12.3006 119.064 11.8597C119.395 11.4175 119.825 11.058 120.349 10.7765C120.871 10.4961 121.502 10.3574 122.241 10.3574C122.982 10.358 123.617 10.4866 124.154 10.7411C124.69 11.0002 125.127 11.3349 125.475 11.7558C125.818 12.1719 126.079 12.6501 126.244 13.1872C126.409 13.7256 126.494 14.2734 126.494 14.8353C126.492 15.3583 126.409 15.8955 126.243 16.4445C126.078 16.9934 125.816 17.4922 125.474 17.9403C125.127 18.3859 124.686 18.7513 124.15 19.0323C123.615 19.3103 122.978 19.4508 122.238 19.4514ZM122.274 18.0182C122.667 18.0182 123.001 17.9403 123.274 17.7768C123.547 17.6156 123.774 17.3984 123.952 17.1227C124.128 16.8506 124.259 16.5224 124.346 16.1405C124.427 15.7585 124.47 15.3518 124.471 14.9233C124.47 14.4924 124.425 14.0874 124.335 13.7061C124.245 13.3236 124.112 12.9907 123.934 12.7097C123.758 12.4311 123.528 12.2067 123.251 12.0403C122.969 11.8732 122.634 11.7888 122.239 11.7882C121.862 11.7894 121.534 11.8691 121.261 12.0308C120.987 12.192 120.764 12.4104 120.594 12.6843C120.418 12.9576 120.296 13.2834 120.218 13.6583C120.142 14.0349 120.101 14.4381 120.101 14.866C120.101 15.2975 120.142 15.7036 120.227 16.0844C120.308 16.4681 120.435 16.801 120.61 17.0873C120.779 17.3754 121.003 17.602 121.278 17.7685C121.548 17.9361 121.882 18.0182 122.274 18.0182V18.0182ZM122.878 7.27131L125.457 7.2719L123.179 9.29542L121.516 9.29483L122.878 7.27131Z" fill="white"/>
<path d="M127.121 18.003C127.25 17.9681 127.449 17.9321 127.709 17.8961C127.972 17.8583 128.222 17.8424 128.461 17.8424L128.462 11.9182C128.188 11.8934 127.935 11.8763 127.693 11.8639C127.455 11.8527 127.264 11.845 127.123 11.845L127.124 10.6084C127.394 10.5735 127.829 10.5399 128.429 10.5133C129.026 10.4814 129.679 10.4685 130.399 10.4685L130.325 11.8285H130.361C130.684 11.3999 131.066 11.0464 131.506 10.7713C131.948 10.4962 132.486 10.3604 133.118 10.3604C133.582 10.3604 133.981 10.4342 134.308 10.5759C134.638 10.7193 134.9 10.9183 135.105 11.168C135.307 11.4176 135.456 11.711 135.551 12.0451C135.647 12.381 135.693 12.7381 135.696 13.1183L135.692 17.8448C135.93 17.8454 136.182 17.8654 136.437 17.9067C136.694 17.9498 136.88 17.9835 137 18.0065L136.997 19.2432L132.526 19.2414V18.0053C132.645 17.9817 132.822 17.951 133.064 17.9156C133.304 17.8802 133.546 17.8548 133.795 17.8436L133.798 13.44C133.797 12.9506 133.696 12.5764 133.495 12.3131C133.288 12.051 132.943 11.9194 132.457 11.9188C132.003 11.9182 131.603 12.0558 131.253 12.3297C130.909 12.6047 130.615 12.9034 130.38 13.2269L130.376 17.843C130.615 17.8548 130.859 17.8796 131.1 17.9156C131.347 17.9516 131.529 17.9817 131.646 18.0053L131.648 19.2408L127.121 19.2396V18.003Z" fill="white"/>
</svg>
