<svg width="92" height="96" viewBox="0 0 92 96" fill="none" xmlns="http://www.w3.org/2000/svg">
<path d="M40.674 35.3944L36.1279 56.6672H30.6345L35.1806 35.3944H40.674ZM63.7917 49.1305L66.6892 41.144L68.3501 49.1305H63.7917ZM69.9249 56.6734H75L70.5708 35.4006H65.8771C64.8252 35.4006 63.9332 36.0106 63.5395 36.9597L55.2964 56.6734H61.0604L62.2108 53.4997H69.2605L69.9249 56.6734ZM55.5793 49.7283C55.6039 44.1081 47.8283 43.8 47.8837 41.2919C47.9021 40.5216 48.628 39.7081 50.2151 39.5048C51.0025 39.4062 53.1679 39.326 55.6347 40.4538L56.5944 35.9429C55.2779 35.4683 53.5678 35 51.4578 35C46.032 35 42.2057 37.8902 42.175 42.0375C42.138 45.1003 44.9001 46.8073 46.9855 47.8302C49.1263 48.8717 49.8399 49.5372 49.8337 50.4739C49.8153 51.8975 48.1236 52.5322 46.5426 52.5507C43.7805 52.6 42.175 51.805 40.8954 51.2134L39.8989 55.8723C41.1845 56.4639 43.5529 56.9692 46.0136 57C51.7899 57.0062 55.567 54.1468 55.5793 49.7283ZM32.8245 35.3944L23.9231 56.6672H18.1098L13.7299 39.6896C13.4592 38.642 13.2316 38.2599 12.4196 37.8162C11.1031 37.0952 8.9193 36.4235 7 36.0045L7.13534 35.3944H16.4858C17.6792 35.3944 18.7496 36.1832 19.0203 37.5636L21.3333 49.8762L27.0481 35.3944H32.8245Z" fill="white"/>
<path d="M39.564 76.132C38.94 76.132 38.36 76.024 37.824 75.808C37.296 75.584 36.828 75.276 36.42 74.884C36.02 74.484 35.708 74.024 35.484 73.504C35.268 72.976 35.16 72.408 35.16 71.8C35.16 71.192 35.268 70.628 35.484 70.108C35.708 69.58 36.02 69.12 36.42 68.728C36.828 68.328 37.3 68.02 37.836 67.804C38.372 67.58 38.948 67.468 39.564 67.468C40.004 67.468 40.432 67.528 40.848 67.648C41.272 67.76 41.66 67.924 42.012 68.14C42.372 68.356 42.684 68.616 42.948 68.92L42.108 69.784C41.796 69.408 41.416 69.124 40.968 68.932C40.52 68.732 40.052 68.632 39.564 68.632C39.116 68.632 38.7 68.712 38.316 68.872C37.94 69.032 37.612 69.256 37.332 69.544C37.052 69.824 36.832 70.156 36.672 70.54C36.52 70.924 36.444 71.344 36.444 71.8C36.444 72.248 36.52 72.664 36.672 73.048C36.832 73.432 37.056 73.768 37.344 74.056C37.632 74.344 37.968 74.568 38.352 74.728C38.736 74.888 39.152 74.968 39.6 74.968C40.088 74.968 40.548 74.872 40.98 74.68C41.42 74.48 41.792 74.2 42.096 73.84L42.924 74.68C42.644 74.976 42.324 75.236 41.964 75.46C41.612 75.676 41.228 75.844 40.812 75.964C40.404 76.076 39.988 76.132 39.564 76.132ZM44.0127 76V69.892H45.2127V70.672C45.4047 70.384 45.6407 70.16 45.9207 70C46.2087 69.832 46.5327 69.748 46.8927 69.748C47.1407 69.756 47.3447 69.792 47.5047 69.856V70.936C47.3927 70.888 47.2767 70.856 47.1567 70.84C47.0367 70.816 46.9167 70.804 46.7967 70.804C46.4447 70.804 46.1327 70.9 45.8607 71.092C45.5887 71.276 45.3727 71.548 45.2127 71.908V76H44.0127ZM51.0423 76.108C50.4423 76.108 49.8983 75.968 49.4103 75.688C48.9303 75.408 48.5463 75.028 48.2583 74.548C47.9783 74.068 47.8383 73.532 47.8383 72.94C47.8383 72.356 47.9743 71.828 48.2463 71.356C48.5183 70.876 48.8863 70.496 49.3503 70.216C49.8143 69.928 50.3303 69.784 50.8983 69.784C51.4663 69.784 51.9703 69.928 52.4103 70.216C52.8503 70.496 53.1983 70.88 53.4543 71.368C53.7183 71.848 53.8503 72.392 53.8503 73V73.336H49.0383C49.1023 73.672 49.2263 73.972 49.4103 74.236C49.6023 74.5 49.8423 74.708 50.1303 74.86C50.4263 75.012 50.7463 75.088 51.0903 75.088C51.3863 75.088 51.6703 75.044 51.9423 74.956C52.2223 74.86 52.4543 74.724 52.6383 74.548L53.4062 75.304C53.0463 75.576 52.6743 75.78 52.2903 75.916C51.9143 76.044 51.4983 76.108 51.0423 76.108ZM49.0503 72.436H52.6623C52.6143 72.116 52.5023 71.836 52.3263 71.596C52.1583 71.348 51.9463 71.156 51.6903 71.02C51.4423 70.876 51.1703 70.804 50.8743 70.804C50.5703 70.804 50.2903 70.872 50.0343 71.008C49.7783 71.144 49.5623 71.336 49.3863 71.584C49.2183 71.824 49.1063 72.108 49.0503 72.436ZM50.0343 68.764L51.1383 67.3H52.5783L51.0423 68.764H50.0343ZM57.8246 76.096C57.2566 76.096 56.7366 75.956 56.2646 75.676C55.7926 75.396 55.4206 75.02 55.1486 74.548C54.8766 74.068 54.7406 73.532 54.7406 72.94C54.7406 72.348 54.8766 71.816 55.1486 71.344C55.4286 70.872 55.8046 70.496 56.2766 70.216C56.7486 69.936 57.2726 69.796 57.8486 69.796C58.1846 69.796 58.5086 69.848 58.8206 69.952C59.1326 70.056 59.4206 70.208 59.6846 70.408V67.6L60.8846 67.372V76H59.6966V75.412C59.1766 75.868 58.5526 76.096 57.8246 76.096ZM57.9806 75.052C58.3326 75.052 58.6526 74.988 58.9406 74.86C59.2366 74.732 59.4846 74.548 59.6846 74.308V71.56C59.4846 71.336 59.2366 71.16 58.9406 71.032C58.6526 70.896 58.3326 70.828 57.9806 70.828C57.5966 70.828 57.2486 70.92 56.9366 71.104C56.6246 71.288 56.3766 71.54 56.1926 71.86C56.0086 72.172 55.9166 72.528 55.9166 72.928C55.9166 73.328 56.0086 73.688 56.1926 74.008C56.3766 74.328 56.6246 74.584 56.9366 74.776C57.2486 74.96 57.5966 75.052 57.9806 75.052ZM62.3057 76V69.892H63.5057V76H62.3057ZM62.9057 68.908C62.7057 68.908 62.5337 68.836 62.3897 68.692C62.2457 68.54 62.1737 68.364 62.1737 68.164C62.1737 67.956 62.2457 67.784 62.3897 67.648C62.5337 67.504 62.7057 67.432 62.9057 67.432C63.1137 67.432 63.2897 67.504 63.4337 67.648C63.5777 67.784 63.6497 67.956 63.6497 68.164C63.6497 68.364 63.5777 68.54 63.4337 68.692C63.2897 68.836 63.1137 68.908 62.9057 68.908ZM67.5349 76.108C66.9429 76.108 66.4909 75.972 66.1789 75.7C65.8669 75.42 65.7109 75.016 65.7109 74.488V70.9H64.4149V69.892H65.7109V68.332L66.8989 68.044V69.892H68.6989V70.9H66.8989V74.212C66.8989 74.524 66.9669 74.748 67.1029 74.884C67.2469 75.012 67.4789 75.076 67.7989 75.076C67.9669 75.076 68.1149 75.064 68.2429 75.04C68.3789 75.016 68.5229 74.98 68.6749 74.932V75.94C68.5149 75.996 68.3269 76.036 68.1109 76.06C67.9029 76.092 67.7109 76.108 67.5349 76.108ZM72.3933 76.12C71.8013 76.12 71.2613 75.98 70.7733 75.7C70.2933 75.42 69.9133 75.04 69.6333 74.56C69.3533 74.08 69.2133 73.544 69.2133 72.952C69.2133 72.36 69.3533 71.824 69.6333 71.344C69.9133 70.864 70.2933 70.484 70.7733 70.204C71.2613 69.916 71.8013 69.772 72.3933 69.772C72.9933 69.772 73.5333 69.916 74.0133 70.204C74.4933 70.484 74.8733 70.864 75.1533 71.344C75.4333 71.824 75.5733 72.36 75.5733 72.952C75.5733 73.544 75.4333 74.08 75.1533 74.56C74.8733 75.04 74.4933 75.42 74.0133 75.7C73.5333 75.98 72.9933 76.12 72.3933 76.12ZM72.3933 75.064C72.7693 75.064 73.1093 74.972 73.4133 74.788C73.7173 74.596 73.9573 74.34 74.1333 74.02C74.3093 73.7 74.3973 73.34 74.3973 72.94C74.3973 72.548 74.3053 72.196 74.1213 71.884C73.9453 71.564 73.7053 71.308 73.4013 71.116C73.1053 70.924 72.7693 70.828 72.3933 70.828C72.0173 70.828 71.6773 70.924 71.3733 71.116C71.0773 71.308 70.8373 71.564 70.6533 71.884C70.4773 72.196 70.3893 72.548 70.3893 72.94C70.3893 73.34 70.4773 73.7 70.6533 74.02C70.8293 74.34 71.0693 74.596 71.3733 74.788C71.6773 74.972 72.0173 75.064 72.3933 75.064Z" fill="white"/>
</svg>
