<svg xmlns="http://www.w3.org/2000/svg" width="32" height="32" viewBox="0 0 32 32" fill="none">
<g clip-path="url(#clip0_28221_2968)">
<g clip-path="url(#clip1_28221_2968)">
<path d="M10.4798 6.98839C11.1728 6.20947 12.1336 5.78052 13.185 5.78052C14.3585 5.78052 15.3758 6.33543 16.1269 7.38522C16.1832 7.46393 16.2359 7.54264 16.2853 7.62056C16.3346 7.5426 16.3873 7.46393 16.4436 7.38522C17.1947 6.33543 18.212 5.78052 19.3855 5.78052C20.437 5.78052 21.3977 6.20947 22.0907 6.98835C22.7484 7.72751 23.1107 8.71568 23.1107 9.7708C23.1107 10.9174 22.6657 11.9755 21.7105 13.1006C20.877 14.0823 19.6815 15.0913 18.2972 16.2597C17.7857 16.6915 17.2567 17.138 16.6945 17.6252C16.5771 17.727 16.4312 17.7779 16.2853 17.7779C16.1394 17.7779 15.9935 17.727 15.876 17.6252C15.314 17.1381 14.7851 16.6917 14.2735 16.26C13.3845 15.5095 12.6167 14.8615 11.9504 14.2329C10.6568 13.0124 9.45985 11.6271 9.45985 9.77084C9.45985 8.71568 9.82206 7.72755 10.4798 6.98839ZM12.8081 13.3239C13.4491 13.9288 14.2047 14.5665 15.0796 15.3049C15.4688 15.6333 15.868 15.9702 16.2853 16.3281C16.7026 15.9703 17.1019 15.6333 17.4911 15.3047C20.2161 13.0048 21.8609 11.6165 21.8609 9.77084C21.861 8.20847 20.7968 7.03031 19.3856 7.03031C18.6316 7.03031 17.9904 7.38522 17.4798 8.08518C17.0607 8.65959 16.8887 9.25509 16.8875 9.25909C16.8125 9.5298 16.5662 9.71722 16.2853 9.71722C16.0044 9.71722 15.7581 9.5298 15.6831 9.25909C15.6769 9.2368 15.0443 7.03031 13.185 7.03031C11.7738 7.03031 10.7096 8.20851 10.7096 9.77084C10.7096 10.9029 11.2979 11.899 12.8081 13.3239Z" fill="#ffffff"/>
<path d="M24.7897 18.0289C24.2713 18.0289 23.7713 18.2465 23.4178 18.626L21.5813 20.5975C21.3439 19.8344 20.6311 19.2787 19.7908 19.2787L16.9042 19.2787C16.5 19.2787 16.1103 19.1316 15.8069 18.8646C14.1751 17.4286 11.7224 17.416 10.0751 18.8249C9.73539 18.344 9.17564 18.029 8.54331 18.029L5.96057 18.029C5.61548 18.029 5.33569 18.3087 5.33569 18.6538L5.33569 26.1522C5.33569 26.4972 5.61544 26.777 5.96057 26.777L8.54331 26.777C9.10448 26.777 9.60848 26.5288 9.95231 26.1368L10.3223 26.2408C11.5881 26.5966 12.8965 26.777 14.2113 26.777L19.7908 26.777C21.1602 26.777 22.4683 26.1229 23.29 25.0274L26.2899 21.0275C26.29 21.0274 26.29 21.0273 26.2901 21.0272C26.5349 20.7008 26.6643 20.3122 26.6643 19.9034C26.6643 18.8698 25.8233 18.0289 24.7897 18.0289ZM9.16818 24.9024C9.16818 25.2469 8.88789 25.5272 8.54331 25.5272L6.5854 25.5272L6.5854 19.2786L8.54331 19.2786C8.88785 19.2786 9.16818 19.5589 9.16818 19.9035L9.16818 24.9024ZM25.2902 20.2775C25.2902 20.2776 25.2902 20.2776 25.2901 20.2776L22.2902 24.2776C21.7033 25.0601 20.7689 25.5273 19.7908 25.5273L14.2114 25.5273C13.011 25.5273 11.8163 25.3626 10.6606 25.0377L10.4163 24.969C10.4171 24.9469 10.418 24.9247 10.418 24.9024L10.418 20.186L10.8534 19.8027C12.0301 18.7673 13.8047 18.7672 14.9815 19.8027C15.5132 20.2706 16.196 20.5283 16.9042 20.5283L19.7909 20.5283C20.1355 20.5283 20.4158 20.8086 20.4158 21.1532C20.4158 21.4977 20.1355 21.778 19.7909 21.778L15.3499 21.778C15.0048 21.778 14.725 22.0578 14.725 22.4029C14.725 22.748 15.0048 23.0278 15.3499 23.0278L20.2096 23.0278C20.728 23.0278 21.2279 22.8102 21.5813 22.4309L24.3323 19.4777C24.4519 19.3493 24.6144 19.2786 24.7897 19.2786C25.1342 19.2786 25.4146 19.5589 25.4146 19.9035C25.4146 20.0397 25.3716 20.1691 25.2902 20.2775Z" fill="#ffffff"/>
</g>
</g>
<defs fill="#ffffff">
<clipPath id="clip0_28221_2968" fill="#ffffff">
<rect width="32" height="32" fill="#ffffff"/>
</clipPath>
<clipPath id="clip1_28221_2968" fill="#ffffff">
<rect width="21.3333" height="21.3333" fill="#ffffff" transform="matrix(1 8.74228e-08 8.74228e-08 -1 5.33331 26.6667)"/>
</clipPath>
</defs>
</svg>